<?xml version="1.0" encoding="UTF-8" standalone="no"?>
<!-- Created with Inkscape (http://www.inkscape.org/) -->

<svg
   xmlns:dc="http://purl.org/dc/elements/1.1/"
   xmlns:cc="http://creativecommons.org/ns#"
   xmlns:rdf="http://www.w3.org/1999/02/22-rdf-syntax-ns#"
   xmlns:svg="http://www.w3.org/2000/svg"
   xmlns="http://www.w3.org/2000/svg"
   xmlns:sodipodi="http://sodipodi.sourceforge.net/DTD/sodipodi-0.dtd"
   xmlns:inkscape="http://www.inkscape.org/namespaces/inkscape"
   width="1052.3622"
   height="744.09448"
   id="svg2"
   version="1.1"
   inkscape:version="0.48+devel r9772"
   sodipodi:docname="tazzina.svg">
  <defs
     id="defs4" />
  <sodipodi:namedview
     id="base"
     pagecolor="#ffffff"
     bordercolor="#666666"
     borderopacity="1.0"
     inkscape:pageopacity="0.0"
     inkscape:pageshadow="2"
     inkscape:zoom="0.85069842"
     inkscape:cx="526.18109"
     inkscape:cy="372.04724"
     inkscape:document-units="px"
     inkscape:current-layer="layer1"
     showgrid="false"
     inkscape:window-width="1440"
     inkscape:window-height="851"
     inkscape:window-x="0"
     inkscape:window-y="1"
     inkscape:window-maximized="1" />
  <metadata
     id="metadata7">
    <rdf:RDF>
      <cc:Work
         rdf:about="">
        <dc:format>image/svg+xml</dc:format>
        <dc:type
           rdf:resource="http://purl.org/dc/dcmitype/StillImage" />
        <dc:title></dc:title>
      </cc:Work>
    </rdf:RDF>
  </metadata>
  <g
     inkscape:label="Layer 1"
     inkscape:groupmode="layer"
     id="layer1"
     transform="translate(0,-308.2677)">
    <g
       id="g3264"
       transform="matrix(2.7891427,0,0,2.7891427,-427.96169,-1179.1222)">
      <g
         id="g3180">
        <path
           sodipodi:type="arc"
           style="fill:#ffffff;stroke:#000000"
           id="path3158"
           sodipodi:cx="764.04462"
           sodipodi:cy="370.36197"
           sodipodi:rx="113.29414"
           sodipodi:ry="85.661423"
           d="m 877.33876,370.36197 c 0,47.3095 -50.72352,85.66142 -113.29414,85.66142 -62.57063,0 -113.29415,-38.35192 -113.29415,-85.66142 0,-47.3095 50.72352,-85.66142 113.29415,-85.66142 62.57062,0 113.29414,38.35192 113.29414,85.66142 z"
           transform="matrix(1.1914991,0,0,1.0718213,-568.74902,269.92388)" />
        <path
           transform="matrix(1.1295093,0,0,1.016058,-521.38607,290.57649)"
           d="m 877.33876,370.36197 c 0,47.3095 -50.72352,85.66142 -113.29414,85.66142 -62.57063,0 -113.29415,-38.35192 -113.29415,-85.66142 0,-47.3095 50.72352,-85.66142 113.29415,-85.66142 62.57062,0 113.29414,38.35192 113.29414,85.66142 z"
           sodipodi:ry="85.661423"
           sodipodi:rx="113.29414"
           sodipodi:cy="370.36197"
           sodipodi:cx="764.04462"
           id="path3160"
           style="fill:#ffffff;stroke:#000000"
           sodipodi:type="arc" />
      </g>
      <g
         id="g3186">
        <path
           style="fill:#ffffff;stroke:#000000;stroke-width:1.15158117"
           d="m 451.8007,591.57691 c -1.63005,-0.0277 -3.30027,0.0537 -5,0.21875 -5.3209,0.51655 -10.92283,1.9744 -16.46875,4.46875 -19.71876,8.86883 -31.17135,27.32716 -25.59375,41.21875 5.57761,13.89158 26.06247,17.96256 45.78125,9.09375 19.71876,-8.86883 31.20261,-27.32716 25.625,-41.21875 -3.50779,-8.73651 -12.93343,-13.58772 -24.34375,-13.78125 z m -5.5625,10.53125 c 8.071,-0.0258 14.78924,3.0255 17.25,8.65625 3.81793,8.7362 -4.03356,20.32878 -17.53125,25.90625 -13.49767,5.57747 -27.52585,3.04871 -31.34375,-5.6875 -3.81792,-8.73621 4.03357,-20.32878 17.53125,-25.90625 4.21803,-1.74295 8.4737,-2.72412 12.46875,-2.9375 0.54932,-0.0293 1.08693,-0.0295 1.625,-0.0312 z"
           id="path3175"
           inkscape:connector-curvature="0" />
        <path
           style="fill:none;stroke:#000000;stroke-width:1.01743853px;stroke-linecap:butt;stroke-linejoin:miter;stroke-opacity:1"
           d="m 451.8826,599.13897 c 26.8656,0.58912 30.06501,36.95884 -18.98462,49.13643"
           id="path3184"
           inkscape:connector-curvature="0"
           sodipodi:nodetypes="cc" />
      </g>
      <g
         transform="translate(-324.08829,-20.33459)"
         id="g3232">
        <path
           style="fill:#ffffff;stroke:#000000;stroke-width:1px;stroke-linecap:butt;stroke-linejoin:miter;stroke-opacity:1"
           d="m 757.50972,815.04766 c 5.34439,1.65376 16.07322,-5.83495 15.45055,-11.88504 -3.60193,-10.94897 -133.77428,-68.03997 -149.15724,-72.49875 -19.36527,-35.92154 -57.50445,-47.88919 -69.52749,-33.87236 -13.82827,21.76133 15.21926,57.64289 65.36772,43.3804 27.94646,3.34775 96.81613,59.46932 137.86646,74.87575 z"
           id="path3226"
           inkscape:connector-curvature="0"
           sodipodi:nodetypes="cccccc" />
        <path
           sodipodi:nodetypes="cccssssssccc"
           inkscape:connector-curvature="0"
           id="path3228"
           d="m 756.32603,811.26043 c 5.11946,1.40069 12.04059,-3.3931 11.44411,-8.51741 -3.45033,-9.27355 -130.4676,-66.92251 -145.20314,-70.69902 -1.73623,-2.84765 -3.61643,-5.55601 -5.60789,-8.11648 -2.04107,-2.62425 -21.05287,3.52697 -18.37004,1.75838 2.53475,-1.67097 16.98364,-4.07147 6.62157,-13.68693 -13.74907,-12.75842 -18.54459,-13.72862 -27.97282,-16.07584 -2.21122,-0.5505 12.11687,19.479 10.10446,19.34671 -2.78688,-0.18322 -21.80727,-20.33212 -24.05586,-19.67205 -2.2788,0.669 -4.23434,1.78339 -5.77171,3.36814 -13.24629,18.43143 14.06241,51.40408 62.10025,39.32403 26.77027,2.83547 97.38843,59.92151 136.71107,72.97047 z"
           style="fill:#000000;stroke:#000000;stroke-width:0.90074062px;stroke-linecap:butt;stroke-linejoin:miter;stroke-opacity:1" />
        <path
           style="fill:#ffffff;stroke:#000000;stroke-width:1px;stroke-linecap:butt;stroke-linejoin:miter;stroke-opacity:1"
           d="m 756.38251,500.99399 c 4.75177,0.14725 5.67881,-3.69582 5.40397,-7.56985 -24.66881,-12.56843 -49.44462,-25.13686 -75.7597,-37.70529 19.06769,14.54679 45.90964,30.72834 70.35573,45.27514 z"
           id="path3230"
           inkscape:connector-curvature="0"
           transform="translate(0,308.2677)"
           sodipodi:nodetypes="cccc" />
      </g>
      <path
         sodipodi:nodetypes="cccc"
         inkscape:connector-curvature="0"
         id="path3166"
         d="m 238.81954,596.52337 200.13516,4.50427 c -2.61068,35.64753 -35.59762,114.66597 -98.6968,111.10501 -86.64437,-0.47742 -98.08791,-81.70146 -101.43836,-115.60928 z"
         style="fill:#ffffff;stroke:#000000;stroke-width:1.03834736px;stroke-linecap:butt;stroke-linejoin:miter;stroke-opacity:1" />
      <g
         transform="translate(-419.32649,-11.053087)"
         id="g3154">
        <path
           sodipodi:type="arc"
           style="fill:#ffffff;fill-rule:evenodd;stroke:#000000;stroke-width:1px;stroke-linecap:butt;stroke-linejoin:miter;stroke-opacity:1"
           id="path3150"
           sodipodi:cx="759.89972"
           sodipodi:cy="298.51691"
           sodipodi:rx="94.642059"
           sodipodi:ry="57.337887"
           d="m 854.54178,298.51691 c 0,31.66684 -42.37269,57.33788 -94.64206,57.33788 -52.26937,0 -94.64206,-25.67104 -94.64206,-57.33788 0,-31.66684 42.37269,-57.33789 94.64206,-57.33789 52.26937,0 94.64206,25.67105 94.64206,57.33789 z"
           transform="matrix(1.0582432,0,0,0.99975076,-45.640599,308.3421)" />
        <path
           transform="matrix(0.95712562,0,0,0.90422227,31.198621,336.85897)"
           d="m 854.54178,298.51691 c 0,31.66684 -42.37269,57.33788 -94.64206,57.33788 -52.26937,0 -94.64206,-25.67104 -94.64206,-57.33788 0,-31.66684 42.37269,-57.33789 94.64206,-57.33789 52.26937,0 94.64206,25.67105 94.64206,57.33789 z"
           sodipodi:ry="57.337887"
           sodipodi:rx="94.642059"
           sodipodi:cy="298.51691"
           sodipodi:cx="759.89972"
           id="path3152"
           style="fill:#ffffff;fill-rule:evenodd;stroke:#000000;stroke-width:1px;stroke-linecap:butt;stroke-linejoin:miter;stroke-opacity:1"
           sodipodi:type="arc" />
      </g>
      <path
         inkscape:connector-curvature="0"
         id="path3224"
         d="m 422.16356,607.89028 c 0,21.51151 -36.77268,38.95004 -82.13409,38.95004 -45.36141,0 -82.13409,-17.43853 -82.13409,-38.95004 0,-21.51151 36.77268,-38.95004 82.13409,-38.95004 45.36141,0 82.13409,17.43853 82.13409,38.95004 z"
         style="fill:#000000;fill-rule:evenodd;stroke:#000000;stroke-width:1.00549829px;stroke-linecap:butt;stroke-linejoin:miter;stroke-opacity:1" />
      <g
         transform="translate(1.1755047,2.3510094)"
         id="g3257">
        <path
           style="font-size:33.05515289px;font-style:normal;font-weight:normal;line-height:125%;letter-spacing:0px;word-spacing:0px;fill:#000000;fill-opacity:1;stroke:none;font-family:Sans"
           inkscape:connector-curvature="0"
           id="path3242"
           d="m 374.09179,652.17118 0.14116,1.40365 c -0.55411,-0.3376 -1.13275,-0.56429 -1.73593,-0.68008 -0.5981,-0.11696 -1.22362,-0.12403 -1.87632,-0.0224 -1.28534,0.20018 -2.23475,0.6983 -2.84823,1.49436 -0.61392,0.79169 -0.85549,1.83773 -0.72471,3.13811 0.13033,1.29602 0.57159,2.23572 1.3238,2.8191 0.75176,0.57901 1.7703,0.76843 3.05564,0.56831 0.6527,-0.10165 1.25738,-0.30067 1.81402,-0.59708 0.56165,-0.29717 1.07756,-0.69432 1.54773,-1.19143 l 0.13982,1.39046 c -0.50041,0.3992 -1.0414,0.72439 -1.62297,0.97559 -0.57657,0.25042 -1.19623,0.42724 -1.85897,0.53044 -1.70208,0.26507 -3.08837,0.0191 -4.15889,-0.73777 -1.07097,-0.76132 -1.68575,-1.93056 -1.84436,-3.50773 -0.15906,-1.58156 0.20489,-2.90331 1.09285,-3.96515 0.88718,-1.06625 2.1818,-1.73192 3.88389,-1.997 0.67277,-0.10475 1.31336,-0.1242 1.92173,-0.0583 0.61293,0.0608 1.19617,0.20645 1.74972,0.43698" />
        <path
           style="font-size:33.05515289px;font-style:normal;font-weight:normal;line-height:125%;letter-spacing:0px;word-spacing:0px;fill:#000000;fill-opacity:1;stroke:none;font-family:Sans"
           inkscape:connector-curvature="0"
           id="path3244"
           d="m 378.71857,651.4757 -0.94476,5.36652 4.02987,-1.12712 -3.08511,-4.2394 m -1.12243,-1.05262 1.68094,-0.47015 6.31972,8.48507 -1.54148,0.43113 -1.54805,-2.19713 -4.94007,1.38169 -0.44854,2.75556 -1.5635,0.43729 2.04098,-10.82346" />
        <path
           style="font-size:33.05515289px;font-style:normal;font-weight:normal;line-height:125%;letter-spacing:0px;word-spacing:0px;fill:#000000;fill-opacity:1;stroke:none;font-family:Sans"
           inkscape:connector-curvature="0"
           id="path3246"
           d="m 384.05185,648.96103 6.1809,-2.13651 0.30958,1.08252 -4.72572,1.63351 0.80126,2.80184 4.26468,-1.47414 0.30958,1.08252 -4.26468,1.47415 1.29842,4.54024 -1.45518,0.503 -2.71884,-9.50713" />
        <path
           style="font-size:33.05515289px;font-style:normal;font-weight:normal;line-height:125%;letter-spacing:0px;word-spacing:0px;fill:#000000;fill-opacity:1;stroke:none;font-family:Sans"
           inkscape:connector-curvature="0"
           id="path3248"
           d="m 391.69922,646.4502 6.04745,-2.48931 0.37147,1.06288 -4.62369,1.90325 0.96148,2.75098 4.17259,-1.71757 0.37148,1.06288 -4.1726,1.71757 1.55802,4.45783 -1.42376,0.58607 -3.26244,-9.33458" />
        <path
           style="font-size:33.05515289px;font-style:normal;font-weight:normal;line-height:125%;letter-spacing:0px;word-spacing:0px;fill:#000000;fill-opacity:1;stroke:none;font-family:Sans"
           inkscape:connector-curvature="0"
           id="path3250"
           d="m 398.58268,643.76896 6.54954,-2.97909 0.4099,1.04865 -5.14806,2.34162 1.06575,2.72651 4.93298,-2.24378 0.4099,1.04865 -4.93298,2.24379 1.30446,3.3372 5.27294,-2.39842 0.4099,1.04866 -6.67443,3.03589 -3.5999,-9.20968" />
      </g>
    </g>
  </g>
</svg>
