<?xml version="1.0" encoding="UTF-8" standalone="no"?>
<!DOCTYPE svg PUBLIC "-//W3C//DTD SVG 1.1//EN" "http://www.w3.org/Graphics/SVG/1.1/DTD/svg11.dtd">
<svg width="100%" height="100%" viewBox="0 0 1890 1890" version="1.1" xmlns="http://www.w3.org/2000/svg" xmlns:xlink="http://www.w3.org/1999/xlink" xml:space="preserve" xmlns:serif="http://www.serif.com/" style="fill-rule:evenodd;clip-rule:evenodd;stroke-linejoin:round;stroke-miterlimit:1.41421;">
    <g transform="matrix(1.33333,0,0,1.33333,0,0)">
        <g transform="matrix(7.21298,0,0,7.21298,-2549.81,-2762.39)">
            <g transform="matrix(1,0,0,1,-0.49489,10.5582)">
                <path d="M385.672,447.57C385.673,415.704 411.543,389.834 443.408,389.834C475.273,389.834 501.144,415.704 501.144,447.57L501.144,554.627L385.672,554.627L385.672,447.57Z" style="fill:rgb(201,178,152);"/>
            </g>
            <g transform="matrix(0.900106,0,0,0.90082,44.2938,58.3525)">
                <path d="M385.672,447.57C385.673,415.704 411.543,389.834 443.408,389.834C475.273,389.834 501.144,415.704 501.144,447.57L501.144,554.627L385.672,554.627L385.672,447.57Z" style="fill:rgb(144,195,230);"/>
            </g>
            <path d="M495.377,470.846C495.376,438.981 469.506,413.11 437.641,413.11C430.053,413.11 422.806,414.577 416.166,417.243C424.089,412.348 433.422,409.523 443.408,409.523C472.09,409.523 495.376,432.827 495.377,461.532L495.377,470.846Z" style="fill:rgb(117,159,188);"/>
            <rect x="391.44" y="488.962" width="103.937" height="5.773" style="fill:rgb(117,159,188);"/>
            <g transform="matrix(1,0,0,1,75.5454,-815.541)">
                <path d="M416.759,1259.43C418.747,1264.94 419.831,1270.88 419.831,1277.07L419.831,1373.51L414.059,1373.51L414.059,1259.43L416.759,1259.43Z" style="fill:rgb(117,159,188);"/>
            </g>
            <g transform="matrix(1,0,0,1,75.5454,-815.541)">
                <path d="M362.623,1225.33L362.623,1373.51L356.85,1373.51L356.85,1226.24C358.739,1225.83 360.665,1225.52 362.623,1225.33Z" style="fill:rgb(117,159,188);"/>
            </g>
            <g transform="matrix(1.02273,0,0,0.666744,-10.0775,184.543)">
                <rect x="391.44" y="448.755" width="103.937" height="8.658" style="fill:rgb(201,178,152);"/>
            </g>
            <g transform="matrix(8.83144e-17,-1.44228,0.666744,4.08263e-17,137.936,1122.54)">
                <rect x="391.44" y="448.755" width="103.937" height="8.658" style="fill:rgb(201,178,152);"/>
            </g>
        </g>
    </g>
</svg>
