<svg id="Layer_1" data-name="Layer 1" xmlns="http://www.w3.org/2000/svg" viewBox="0 0 157.28 209.53"><defs><style>.cls-1,.cls-4{fill:#fff;}.cls-1{stroke:#ee7623;stroke-miterlimit:10;stroke-width:2.99px;}.cls-2{fill:none;}.cls-3{fill:#ee7623;}</style></defs><title>Claims</title><path class="cls-1" d="M495.07,219.37c0-10.13-6.6-16.67-16.8-16.68-32.85,0-65.71,0-98.56-.05a8.09,8.09,0,0,0-6.22,2.62q-14.83,14.84-29.85,29.49a8.7,8.7,0,0,0-2.85,6.79q.1,75.12,0,150.24c0,11.08,6.39,17.38,17.58,17.38H477c11.89,0,18.08-6.11,18.09-17.84q0-42.69,0-85.37Q495.08,262.66,495.07,219.37Z" transform="translate(-339.3 -201.14)"/><rect class="cls-2" x="2.13" y="24.66" width="155.02" height="184.7"/><path class="cls-3" d="M480.13,210.37a7.7,7.7,0,0,1,7.1,7.41c.07,1.12,0,2.25,0,3.37V390.94c0,1.05,0,2.1,0,3.14a7.58,7.58,0,0,1-7.36,7.3c-1.95.13-3.91.06-5.86.06H360.79c-1.3,0-2.6,0-3.91,0-5.06-.1-8.19-3.15-8.21-8.19-.05-12.14,0-24.28,0-36.42V242.26c0-.56,0-1.12,0-1.68-.17-2.24.8-3.26,3.13-3.18,2.76.09,5.53,0,8.3,0,9.59-.21,15.66-6.18,15.88-15.64.07-2.89.05-5.79,0-8.68,0-1.79.79-2.71,2.64-2.66" transform="translate(-339.3 -201.14)"/><rect class="cls-4" x="76.75" y="111.26" width="58.71" height="7.05"/><rect class="cls-4" x="76.75" y="126.53" width="58.71" height="7.05"/><rect class="cls-4" x="76.75" y="141.79" width="58.71" height="7.05"/><rect class="cls-4" x="23.33" y="157.06" width="112.13" height="7.05"/><path class="cls-4" d="M399.91,342.93H369.53V319.45h30.38Zm7-30.52H362.48V350H407Z" transform="translate(-339.3 -201.14)"/><path class="cls-4" d="M467.72,269.85a3.5,3.5,0,0,1-1,2.49,3.45,3.45,0,0,1-2.49,1H450.1v14.09a3.53,3.53,0,0,1-3.52,3.53h-3.52a3.53,3.53,0,0,1-3.52-3.53V273.37H425.45a3.52,3.52,0,0,1-3.52-3.52v-3.52a3.52,3.52,0,0,1,3.52-3.52h14.09v-14.1a3.52,3.52,0,0,1,3.52-3.52h3.52a3.52,3.52,0,0,1,3.52,3.52v14.1h14.09a3.52,3.52,0,0,1,3.53,3.52Zm-3.53-14.09h-7v-7a10.58,10.58,0,0,0-10.57-10.56h-3.52a10.57,10.57,0,0,0-10.57,10.56v7h-7a10.57,10.57,0,0,0-10.57,10.57v3.52a10.57,10.57,0,0,0,10.57,10.56h7v7A10.57,10.57,0,0,0,443.06,298h3.52a10.58,10.58,0,0,0,10.57-10.57v-7h7a10.55,10.55,0,0,0,10.57-10.56v-3.52a10.57,10.57,0,0,0-10.57-10.57" transform="translate(-339.3 -201.14)"/></svg>