<?xml version="1.0" encoding="UTF-8" standalone="no"?>
<!-- Created with Inkscape (http://www.inkscape.org/) -->

<svg
   xmlns:dc="http://purl.org/dc/elements/1.1/"
   xmlns:cc="http://creativecommons.org/ns#"
   xmlns:rdf="http://www.w3.org/1999/02/22-rdf-syntax-ns#"
   xmlns:svg="http://www.w3.org/2000/svg"
   xmlns="http://www.w3.org/2000/svg"
   xmlns:sodipodi="http://sodipodi.sourceforge.net/DTD/sodipodi-0.dtd"
   xmlns:inkscape="http://www.inkscape.org/namespaces/inkscape"
   id="svg2"
   version="1.1"
   inkscape:version="0.48.4 r9939"
   width="19"
   height="24"
   sodipodi:docname="logo_resource_document.png">
  <metadata
     id="metadata8">
    <rdf:RDF>
      <cc:Work
         rdf:about="">
        <dc:format>image/svg+xml</dc:format>
        <dc:type
           rdf:resource="http://purl.org/dc/dcmitype/StillImage" />
        <dc:title></dc:title>
      </cc:Work>
    </rdf:RDF>
  </metadata>
  <defs
     id="defs6" />
  <sodipodi:namedview
     pagecolor="#ffffff"
     bordercolor="#666666"
     borderopacity="1"
     objecttolerance="10"
     gridtolerance="10"
     guidetolerance="10"
     inkscape:pageopacity="0"
     inkscape:pageshadow="2"
     inkscape:window-width="1301"
     inkscape:window-height="744"
     id="namedview4"
     showgrid="false"
     showguides="true"
     inkscape:guide-bbox="true"
     fit-margin-top="0"
     fit-margin-left="0"
     fit-margin-right="0"
     fit-margin-bottom="0"
     inkscape:zoom="18.153846"
     inkscape:cx="9.8229572"
     inkscape:cy="11.835859"
     inkscape:window-x="65"
     inkscape:window-y="24"
     inkscape:window-maximized="1"
     inkscape:current-layer="svg2" />
  <path
     style="opacity:0.97000002;fill:#104667;fill-opacity:1;fill-rule:nonzero;stroke:none"
     d="M 0,0 0,24 19,24 19,5.03125 13.96875,0 0,0 z M 1.96875,1.96875 12,1.96875 12,7 l 4.96875,0 0,15.03125 -15,0 0,-20.0625 z M 4,11 l 0,1 11,0 0,-1 -11,0 z m -0.03125,1.96875 0,1 11.03125,0 0,-1 -11.03125,0 z m 0,2.03125 0,1 L 15,16 15,15 3.96875,15 z m 0,2 0,0.96875 11.03125,0 L 15,17 3.96875,17 z m 0,1.96875 0,1 11.03125,0 0,-1 -11.03125,0 z"
     id="rect3027"
     inkscape:connector-curvature="0" />
</svg>
