<?xml version="1.0" encoding="UTF-8" standalone="no"?>
<!DOCTYPE svg PUBLIC "-//W3C//DTD SVG 1.1//EN" "http://www.w3.org/Graphics/SVG/1.1/DTD/svg11.dtd">
<svg width="100%" height="100%" viewBox="0 0 922 988" version="1.1" xmlns="http://www.w3.org/2000/svg" xmlns:xlink="http://www.w3.org/1999/xlink" xml:space="preserve" xmlns:serif="http://www.serif.com/" style="fill-rule:evenodd;clip-rule:evenodd;stroke-linejoin:round;stroke-miterlimit:2;">
    <g transform="matrix(1,0,0,1,-39.4368,-48.1027)">
        <g transform="matrix(4.16667,0,0,4.16667,-775,-1108.33)">
            <g transform="matrix(1,0,0,1,1.13381,1.2833)">
                <g transform="matrix(2.0848,0,0,2.0848,-323.832,-256.918)">
                    <path d="M346.859,300.91C352.008,311.133 354.582,320.691 354.582,329.566C354.582,342.723 345.762,355.234 328.156,367.078C325.891,368.609 324.449,369.383 323.875,369.383C323.73,369.383 323.676,369.309 323.676,369.184C323.676,368.75 324.664,367.637 326.645,365.816C333.973,359.141 338.633,354.641 340.613,352.336C347.258,344.613 350.586,337.523 350.586,331.043C350.586,323.984 347.258,314.84 340.613,303.645C338.527,300.137 334.691,294.125 329.094,285.629C323.93,277.781 320.652,272.937 319.285,271.066C318.797,270.398 317.953,269.445 316.746,268.238C315.863,267.359 315.434,266.781 315.434,266.477L315.434,257.152C315.434,256.215 315.648,255.746 316.098,255.746C316.332,255.746 316.621,255.891 316.98,256.18L333.918,270.578C334.961,271.461 335.484,272.13 335.484,272.578C335.484,272.883 335.23,273.027 334.711,273.027C333.953,273.027 332.695,272.687 330.949,272C329.707,271.516 329.094,271.391 329.094,271.66C329.094,271.785 329.293,272.109 329.672,272.633C335.824,280.965 341.551,290.398 346.859,300.91Z" style="fill:rgb(255,97,6);fill-rule:nonzero;"/>
                </g>
                <g transform="matrix(2.0848,0,0,2.0848,-323.832,-256.918)">
                    <path d="M327.203,323.426C325.547,318.406 324.434,313.727 323.84,309.352C323.621,307.66 323.461,306.633 323.352,306.238C323.117,305.32 322.688,304.418 322.039,303.555C322.488,302.043 323.207,299.957 324.18,297.254C324.504,296.465 324.809,296.086 325.063,296.086C325.297,296.086 325.691,296.465 326.285,297.254C328.859,300.836 331.02,304.043 332.766,306.867C333.484,308.039 333.848,308.867 333.848,309.352C333.848,309.711 333.684,309.891 333.359,309.891C332.711,309.891 331.543,309.352 329.852,308.289C329.688,308.289 329.563,308.398 329.453,308.633C330.047,310.738 330.984,313.652 332.281,317.363C335.215,325.695 336.691,331.762 336.691,335.578C336.691,339.375 336.113,342.707 334.98,345.531C333.09,350.355 329.813,352.77 325.172,352.77C320.219,352.77 316.313,350.609 313.453,346.324C311.723,343.75 310.195,339.898 308.863,334.75C308.285,339.934 306.629,344.379 303.93,348.125C300.617,352.66 296.371,354.926 291.203,354.926C285.496,354.926 281.52,352.211 279.234,346.754C277.973,343.695 277.344,340.113 277.344,335.973C277.344,330.5 277.992,325.406 279.289,320.691C279.629,319.414 279.809,318.566 279.809,318.152C279.809,317.918 279.758,317.812 279.629,317.812C279.395,317.812 278.875,318.441 278.063,319.703C276.785,321.699 275.453,325.73 274.051,331.816C272.23,339.664 271.043,344.398 270.484,346.02C269.746,348.27 268.688,350.086 267.316,351.453C266.219,352.586 265.246,353.164 264.438,353.164C260.801,353.164 257.976,350.84 255.996,346.215C254.375,342.383 253.566,337.738 253.566,332.301C253.566,328.504 254.141,324.363 255.313,319.898C255.582,318.891 255.836,318.152 256.105,317.648C256.445,317.039 256.699,316.965 256.824,317.414C256.949,317.937 256.894,318.855 256.625,320.187C255.977,323.59 255.652,326.687 255.652,329.531C255.652,340.527 257.957,346.035 262.586,346.035C264.563,346.035 266.219,344.543 267.516,341.59C268.324,339.734 269.316,336.191 270.484,330.988C271.836,325.227 272.969,321.016 273.906,318.332C274.984,315.273 276.316,312.555 277.922,310.18C279.629,307.516 281.141,306.184 282.402,306.184C283.445,306.184 283.969,307.281 283.969,309.496C283.969,311.332 283.445,315.023 282.402,320.602C281.359,326.199 280.855,329.945 280.855,331.871C280.855,336.027 281.719,339.285 283.465,341.625C285.191,343.984 287.621,345.152 290.699,345.152C296.297,345.152 300.512,343.391 303.301,339.879C305.516,337.109 306.629,333.687 306.629,329.621C306.629,325.715 306.289,321.934 305.641,318.297C305.191,315.723 304.559,313.277 303.785,310.973C303.137,308.957 302.813,308 302.813,308.129C302.813,305.895 303.535,302.836 305.012,298.949C305.336,298.102 305.586,297.687 305.785,297.687C306.02,297.687 306.379,298.246 306.898,299.344C308.988,303.684 310.625,310.324 311.832,319.27C312.965,327.641 314.605,333.617 316.746,337.215C318.871,340.816 322.109,342.617 326.484,342.617C330.121,342.617 332.516,341.285 333.648,338.656C333.648,337.738 332.891,335.793 331.363,332.789C329.398,328.988 328.031,325.859 327.203,323.426Z" style="fill:rgb(0,158,158);fill-rule:nonzero;"/>
                </g>
                <g transform="matrix(2.0848,0,0,2.0848,-323.832,-256.918)">
                    <path d="M309.313,284.762C309.313,286.043 309.023,287.355 308.465,288.723C307.727,290.488 306.773,291.371 305.586,291.371C303.73,291.371 302.418,290.09 301.645,287.555C300.762,290.812 299.16,292.449 296.801,292.449C295.938,292.449 295.164,292 294.516,291.117C293.762,290.074 293.398,288.707 293.398,287.012L293.398,283.02C293.398,282.695 293.164,282.461 292.734,282.332C292.285,282.207 292.066,281.867 292.066,281.309C292.066,280.426 292.43,279.562 293.184,278.716C293.867,277.977 294.391,277.602 294.75,277.602C295.219,277.602 295.453,278.48 295.453,280.227C295.453,281.145 295.363,281.902 295.219,282.531C295.074,283.145 295.004,283.684 295.004,284.133C295.004,285.086 295.184,286.004 295.578,286.871C296.047,287.895 296.605,288.398 297.289,288.398C298.172,288.398 298.996,287.984 299.773,287.195C300.527,286.402 300.926,285.465 300.926,284.387C300.926,283.773 300.742,282.711 300.383,281.219C300.023,279.707 299.844,278.789 299.844,278.427C299.844,278.105 300.008,277.582 300.328,276.88C300.652,276.195 300.887,275.836 301.051,275.836C301.355,275.836 301.734,276.824 302.203,278.824C302.672,280.805 302.922,282.262 302.922,283.215C302.922,285.953 303.965,287.32 306.09,287.32C306.988,287.32 307.566,286.852 307.801,285.953C305.965,282.746 305.063,280.316 305.063,278.625C305.063,277.638 305.297,276.773 305.785,276.035C306.125,275.513 306.344,275.224 306.469,275.207C306.613,275.207 306.703,275.531 306.773,276.177C306.863,277.094 307.008,277.832 307.207,278.427C307.242,278.48 307.676,279.617 308.52,281.793C309.043,283.09 309.313,284.078 309.313,284.762Z" style="fill:rgb(255,97,6);fill-rule:nonzero;"/>
                </g>
                <g transform="matrix(2.0848,0,0,2.0848,-323.832,-256.918)">
                    <path d="M307.027,265.719C306.379,267.359 305.891,268.277 305.605,268.508C300.438,270.328 294.121,272.777 286.668,275.836C284.418,277.005 283.301,277.922 283.301,278.57C283.301,279.219 284.867,280.066 288.035,281.109C288.324,281.199 288.469,281.828 288.469,283C288.469,284.027 288.434,284.621 288.324,284.801C288.234,284.961 287.875,284.996 287.262,284.871C283.32,284.117 281.359,282.73 281.359,280.715C281.359,279.578 281.898,278.105 282.977,276.32C284.074,274.523 285.227,273.263 286.434,272.505C287.496,271.82 290.969,270.453 296.82,268.367C299.953,267.25 303.066,266.168 306.199,265.09C306.773,264.875 307.117,264.785 307.223,264.855C307.277,264.945 307.223,265.234 307.027,265.719Z" style="fill:rgb(255,176,0);fill-rule:nonzero;"/>
                </g>
                <g transform="matrix(2.0848,0,0,2.0848,-323.832,-256.918)">
                    <path d="M279.434,293.906C278.586,292.055 277.145,290.703 275.129,289.859C275.129,291.641 274.949,293.098 274.555,294.195C274.805,294.27 276.371,294.484 279.234,294.879C279.395,294.914 279.504,294.898 279.574,294.824C279.703,294.699 279.664,294.395 279.434,293.906ZM273.043,293.906C273.313,292.953 273.313,291.945 273.043,290.867C272.734,289.695 272.23,289.121 271.477,289.121C271.043,289.121 270.469,289.48 269.711,290.234C268.973,290.992 268.598,291.551 268.598,291.945C268.598,292.863 270.07,293.512 273.043,293.906ZM268.254,288.687C267.66,286.652 267.785,285.23 268.633,284.387C269.297,283.738 270.055,283.414 270.938,283.414C271.781,283.414 272.754,283.703 273.871,284.277C277.703,286.402 280.262,288.977 281.52,292C281.629,292.199 281.684,292.449 281.684,292.773C281.684,293.816 281.34,295.023 280.691,296.391C280.043,297.758 279.414,298.445 278.801,298.445C278.566,298.445 276.77,298.262 273.422,297.902C271.727,300.262 269.641,302.352 267.137,304.203C264.168,306.383 261.449,308.039 258.984,309.137C258.461,309.406 255.602,310.484 250.398,312.41C249.57,312.699 249.031,312.863 248.723,312.863C248.598,312.863 248.543,312.824 248.543,312.754C248.543,312.59 249.012,312.195 249.949,311.582C253.766,309.332 257.562,307.082 261.379,304.852C265.734,302.277 269.102,299.848 271.477,297.562C268.453,296.879 266.941,295.508 266.941,293.457C266.941,291.766 267.371,290.184 268.254,288.687Z" style="fill:rgb(255,176,0);fill-rule:nonzero;"/>
                </g>
                <g transform="matrix(2.0848,0,0,2.0848,-323.832,-256.918)">
                    <path d="M296.316,329.547C296.406,329.352 296.516,329.207 296.605,329.098C296.711,329.043 296.746,329.062 296.746,329.152C296.785,329.242 296.785,329.402 296.746,329.637C295.883,334.426 294.445,336.82 292.465,336.82C290.34,336.82 289.297,335.055 289.297,331.547C289.297,327.207 290.539,322.672 293.039,317.918C293.672,316.75 294.031,316.137 294.176,316.121C294.191,316.121 294.211,316.137 294.211,316.156C294.211,316.391 294.031,317.055 293.672,318.172C292.051,323.121 291.238,326.578 291.238,328.559C291.238,331.258 291.961,332.625 293.438,332.625C294.281,332.625 295.234,331.602 296.316,329.547Z" style="fill:rgb(255,97,6);fill-rule:nonzero;"/>
                </g>
                <g transform="matrix(2.0848,0,0,2.0848,-323.832,-256.918)">
                    <path d="M296.027,301.523C296.027,302.512 295.613,303.645 294.785,304.922C293.941,306.254 292.859,307.391 291.527,308.324C291.008,308.687 290.699,308.883 290.594,308.883C290.574,308.883 290.574,308.867 290.574,308.848C290.574,308.777 290.789,308.488 291.238,308C293.438,305.609 294.535,304.023 294.535,303.215C294.535,302.457 294.176,302.078 293.473,302.078C293.074,302.078 292.734,302.187 292.41,302.402C292.176,302.566 292.031,302.637 291.977,302.656C291.926,302.621 291.887,302.602 291.816,302.582C291.852,302.492 291.887,302.297 291.941,301.953C292.301,300.316 293.113,299.504 294.406,299.504C295.488,299.504 296.027,300.172 296.027,301.523Z" style="fill:rgb(0,158,158);fill-rule:nonzero;"/>
                </g>
                <g transform="matrix(2.0848,0,0,2.0848,-323.832,-256.918)">
                    <path d="M318.168,356.008C319.051,356.008 319.824,356.531 320.527,357.555C321.227,358.602 321.715,359.949 321.984,361.625C322.02,361.805 322.039,361.91 322.039,361.93C322.074,361.984 322.094,361.984 322.109,361.93C322.129,361.91 322.164,361.805 322.219,361.625C322.363,360.633 322.703,359.141 323.262,357.16C323.855,355.738 324.504,355.035 325.207,355.035C325.566,355.035 325.926,355.27 326.285,355.754C326.594,356.168 326.754,356.512 326.754,356.781C326.754,356.98 326.699,357.25 326.574,357.574C326.449,358.004 326.285,358.238 326.09,358.238C326.016,358.238 325.836,358.059 325.586,357.734C325.313,357.395 325.043,357.23 324.758,357.23C324.125,357.23 323.551,358.707 323.027,361.66C322.793,362.937 322.523,363.836 322.254,364.379C322.039,364.738 321.875,364.918 321.73,364.918C321.605,364.918 321.551,364.738 321.551,364.414C321.551,363.91 321.246,362.902 320.652,361.406C320.059,359.914 319.645,359.176 319.391,359.176C319.211,359.176 319.105,359.23 319.066,359.336C319.016,359.445 318.871,359.5 318.637,359.5C318.383,359.5 318.023,359.301 317.594,358.906C317.18,358.508 316.961,358.203 316.961,357.969C316.961,357.863 317.141,357.5 317.504,356.906C317.863,356.297 318.078,356.008 318.168,356.008Z" style="fill:rgb(255,176,0);fill-rule:nonzero;"/>
                </g>
                <g transform="matrix(2.0848,0,0,2.0848,-323.832,-256.918)">
                    <path d="M275.219,352.137C275.273,352.047 275.309,351.977 275.363,351.941C275.398,351.902 275.438,351.902 275.438,351.957C275.453,351.992 275.453,352.082 275.438,352.191C275.004,354.496 274.32,355.648 273.367,355.648C272.359,355.648 271.855,354.801 271.855,353.109C271.855,351.039 272.449,348.844 273.652,346.574C273.941,346.02 274.121,345.711 274.195,345.711C274.211,345.711 274.211,345.711 274.211,345.73C274.211,345.836 274.121,346.16 273.961,346.684C273.168,349.059 272.789,350.734 272.789,351.687C272.789,352.984 273.133,353.633 273.836,353.633C274.246,353.633 274.699,353.129 275.219,352.137Z" style="fill:rgb(0,158,158);fill-rule:nonzero;"/>
                </g>
                <g transform="matrix(2.0848,0,0,2.0848,-323.832,-256.918)">
                    <path d="M310.52,350.699C310.57,350.609 310.609,350.535 310.66,350.5C310.699,350.465 310.734,350.465 310.734,350.52C310.754,350.555 310.754,350.645 310.734,350.75C310.301,353.055 309.617,354.207 308.664,354.207C307.656,354.207 307.152,353.363 307.152,351.668C307.152,349.602 307.746,347.402 308.953,345.137C309.238,344.578 309.422,344.273 309.492,344.273C309.512,344.273 309.512,344.273 309.512,344.289C309.512,344.398 309.422,344.723 309.258,345.242C308.465,347.621 308.09,349.293 308.09,350.246C308.09,351.543 308.43,352.191 309.133,352.191C309.547,352.191 309.996,351.687 310.52,350.699Z" style="fill:rgb(255,97,6);fill-rule:nonzero;"/>
                </g>
                <g transform="matrix(2.0848,0,0,2.0848,-323.832,-256.918)">
                    <path d="M261.719,296.355C261.719,297.164 261.379,298.066 260.73,299.09C260.062,300.152 259.183,301.055 258.121,301.809C257.707,302.098 257.453,302.258 257.383,302.258C257.363,302.258 257.363,302.242 257.363,302.223C257.363,302.168 257.543,301.937 257.887,301.559C259.648,299.648 260.531,298.371 260.531,297.723C260.531,297.129 260.242,296.824 259.687,296.824C259.363,296.824 259.094,296.895 258.84,297.074C258.64,297.203 258.535,297.273 258.48,297.273C258.445,297.254 258.406,297.219 258.355,297.219C258.371,297.148 258.406,296.984 258.461,296.715C258.73,295.402 259.398,294.754 260.426,294.754C261.289,294.754 261.719,295.293 261.719,296.355Z" style="fill:rgb(0,158,158);fill-rule:nonzero;"/>
                </g>
                <g transform="matrix(2.0848,0,0,2.0848,-323.832,-256.918)">
                    <path d="M320.543,286.816C320.543,287.625 320.203,288.527 319.555,289.551C318.887,290.613 318.008,291.512 316.945,292.27C316.531,292.559 316.277,292.719 316.207,292.719C316.188,292.719 316.188,292.703 316.188,292.684C316.188,292.629 316.367,292.395 316.711,292.02C318.473,290.109 319.355,288.832 319.355,288.184C319.355,287.59 319.066,287.285 318.512,287.285C318.188,287.285 317.914,287.355 317.664,287.535C317.465,287.66 317.359,287.734 317.305,287.734C317.27,287.715 317.23,287.68 317.18,287.68C317.195,287.609 317.23,287.445 317.285,287.176C317.555,285.863 318.223,285.215 319.246,285.215C320.113,285.215 320.543,285.754 320.543,286.816Z" style="fill:rgb(255,97,6);fill-rule:nonzero;"/>
                </g>
            </g>
        </g>
    </g>
</svg>
