<?xml version="1.0" encoding="UTF-8" standalone="no"?>
<svg
   xmlns:dc="http://purl.org/dc/elements/1.1/"
   xmlns:cc="http://creativecommons.org/ns#"
   xmlns:rdf="http://www.w3.org/1999/02/22-rdf-syntax-ns#"
   xmlns:svg="http://www.w3.org/2000/svg"
   xmlns="http://www.w3.org/2000/svg"
   xmlns:xlink="http://www.w3.org/1999/xlink"
   xmlns:sodipodi="http://sodipodi.sourceforge.net/DTD/sodipodi-0.dtd"
   xmlns:inkscape="http://www.inkscape.org/namespaces/inkscape"
   width="1280pt"
   height="959.98938pt"
   viewBox="0 0 1280 959.98938"
   version="1.1"
   id="svg3475"
   inkscape:version="0.91 r13725"
   sodipodi:docname="BackgroundPattern96.svg">
  <metadata
     id="metadata3501">
    <rdf:RDF>
      <cc:Work
         rdf:about="">
        <dc:format>image/svg+xml</dc:format>
        <dc:type
           rdf:resource="http://purl.org/dc/dcmitype/StillImage" />
        <dc:title></dc:title>
      </cc:Work>
    </rdf:RDF>
  </metadata>
  <defs
     id="defs3499" />
  <sodipodi:namedview
     pagecolor="#ffffff"
     bordercolor="#666666"
     borderopacity="1"
     objecttolerance="10"
     gridtolerance="10"
     guidetolerance="10"
     inkscape:pageopacity="0"
     inkscape:pageshadow="2"
     inkscape:window-width="1600"
     inkscape:window-height="837"
     id="namedview3497"
     showgrid="false"
     inkscape:zoom="0.55833951"
     inkscape:cx="800"
     inkscape:cy="599.99336"
     inkscape:window-x="-8"
     inkscape:window-y="-8"
     inkscape:window-maximized="1"
     inkscape:current-layer="svg3475"
     fit-margin-top="0"
     fit-margin-left="0"
     fit-margin-right="0"
     fit-margin-bottom="0" />
  <g
     id="g4950"
     transform="matrix(0.12820942,0,0,0.12820942,11.363372,800.02678)">
    <g
       id="g4808">
      <g
         id="g3503"
         inkscape:transform-center-x="6.7019928"
         inkscape:transform-center-y="-352.33333">
        <path
           id="path3477"
           d="m 472.09,0 0.9,0 c 11.42,10.15 29.42,-3.81 41.91,6.92 9.53,8.99 14.73,24.37 9.75,36.87 -3.17,10.93 8.71,21.63 1.66,32.2 -5.86,4.38 -11.4,12.76 -4.16,18.7 13.73,13.53 2.36,48.21 -19.62,38.87 -3.13,-10.18 9.23,-11.71 16.15,-12.62 4.5,-6.13 1.76,-14.73 0.25,-21.39 -10.03,-9.91 -28.4,-10.1 -37.98,0.54 -16.37,13.39 -28,34.76 -28.33,55.84 49.32,23.14 80.79,80.32 71.8,134.43 -2.19,30.48 -14.51,60.54 -33.53,84.54 -15.61,26.64 -27.99,59.93 -13.66,89.9 4.41,12 18.68,17.81 30.4,13.23 10.17,-0.69 6.69,-16.11 5.07,-21.4 -7.98,2.23 -16.85,-8.66 -7.93,-13.14 18.99,-3.87 20.54,20.88 17.84,33.93 -16.62,22.69 -53.46,7.93 -59.4,-16.77 -5.95,-26.75 1.33,-55.07 15.08,-78.29 2.34,-6.14 15.57,-15.91 8.3,-19.75 -22.24,16.64 -55.88,26.42 -80.06,7.82 -31.79,-12.86 -29.43,-70.22 6.06,-75.31 13.98,-3.34 31.94,10.28 25.69,25.04 -9.48,7.9 -16.92,-3.72 -15.29,-13.03 -7.67,-6.7 -22.58,-1.51 -25.15,8.67 -8.99,15.97 0.14,36.46 14.33,46.09 29.51,16.41 70.53,4.87 87,-24.71 41.59,-56.45 9.66,-142.23 -47.52,-172.69 -1.6,23.6 3.77,50.12 18.45,69.64 2.38,3.1 -0.48,8.34 -4.47,6.35 -20.76,-11.69 -45.43,-16.73 -69.03,-13.78 -7.81,-3.13 0.22,-12 0.87,-17.47 -0.17,-21.18 -1.36,-42.87 -4.03,-63.86 -24.46,0.24 -50.05,-6.37 -73.7,2.29 -3.34,1.25 -5.07,-3.07 -4.5,-5.77 2.03,-15.92 -5.71,-30.58 -9.2,-45.71 -1.83,-8.19 -14.65,-14.7 -11.78,-23.17 22.71,6.59 46.51,12.33 70.27,9.67 6.02,-2.14 -1.09,-7.42 -3.32,-9.96 -23.3,-28.95 -58.93,-49.45 -96.31,-49.73 -35.46,0.3 -71.35,19.91 -85.95,52.93 -13.44,24.57 -4.28,60.84 23.08,71.11 12.38,3.1 33.47,-5.49 26.62,-21.23 -2.45,-6.55 -11.79,-2.1 -15.86,-6.76 -3.2,-5.39 3.79,-12.56 9.39,-10.97 12.29,-0.22 20.81,13.88 18.25,25.12 -6.44,25.02 -45.93,37.12 -60.62,12.94 -26.37,-25.21 -19.86,-70.85 3.92,-95.34 -26.24,14.85 -53.7,36.64 -86.2,29.7 C 78.68,79.6 57.2,71.13 51.43,51.3 44.02,35.14 55.72,14.27 73.35,12.44 85.91,11.28 99.32,23.9 95.33,36.71 c -3.49,6.64 -14.87,5.04 -12.99,-3.5 2.7,-16.66 -22.33,-8.13 -21.79,3.52 -3.28,24.88 24.33,36.22 44.68,33.75 36.42,-5.67 66.73,-27.5 100.05,-41.18 22.73,-12.4 49.82,-20.23 75.77,-14.43 41.9,4.79 75.91,33.06 99.77,66.24 21.99,-2.94 46.52,-12.25 59.29,-32.05 8.45,-11.65 5.75,-35.43 -11.3,-37.09 C 413.5,7.15 418.85,40.96 404.26,26.28 398.23,2.89 438.03,-6.98 447.78,13.53 450.52,1.32 463.74,3.76 472.09,0 m -9.62,10.21 c -4.31,2.6 -6.01,8.56 -11.34,10.12 8.87,33.28 -22.74,62.35 -53.43,67.4 -3.98,1.82 -15.67,-0.48 -13.12,6.66 5.8,13.86 12.67,27.28 17.33,41.57 12.89,6.73 26.95,13.23 41.58,14.52 3.23,-32.87 27.71,-69.88 64.03,-67.83 9.03,-3.5 15.82,-13.16 10.6,-22.68 1.78,-7.72 -12.87,-9.81 -6.4,-17.09 21.75,-9.62 -8.48,-43.62 -22.55,-28.64 -6.79,11.51 -17.08,-5.95 -26.7,-4.03 M 312.32,86.17 c -0.2,10.22 7.14,18.36 9.88,27.74 2.22,6.94 -0.84,21.62 11.14,19.9 19.54,-2.18 39.08,0.49 58.35,2.7 -2.16,-15.97 -11.22,-30.88 -18.59,-45.16 -20.48,3.18 -40.69,-1.94 -60.78,-5.18 M 404,149.31 c -0.24,19.3 6.94,44.41 -1.05,64.94 15.22,2.71 31.21,2.76 44.97,10.78 8.89,-5.55 -1.85,-16.54 -0.51,-24.28 -5.68,-12.65 -2.69,-27.04 -7.08,-40.04 -11.94,-4.62 -23.25,-10.46 -36.33,-11.4 z"
           inkscape:connector-curvature="0"
           style="opacity:1;fill:#000000" />
        <path
           id="path3479"
           d="m 591.42,4.57 c 12.07,-5.12 20.32,21.38 28.67,7.41 8.34,-3.92 17.54,-6.58 26.6,-7.96 8.47,6.42 19.31,17.66 11.84,28.86 -11.76,2.85 -6.54,-16.94 -18.43,-15.12 -17.16,-7.31 -26.69,19.9 -17.94,32.06 10.52,20.76 34.28,29.57 55.6,34.19 11.64,-5.34 14.48,-19.62 22.31,-28.92 23.27,-27.51 57.78,-43.65 93.53,-47.61 10.78,-4.71 19.72,5.98 30.73,3.97 21.05,9.39 44.99,14.41 63.35,28.9 29.04,16.06 66.19,38.26 98.55,17.82 12.76,-5.83 19.43,-29.52 4.56,-37.35 -5.95,-1.62 -18.42,-1.78 -15.81,8.15 0.93,8.75 -10.57,7.93 -13.76,2.2 -2.18,-12.71 10.79,-25.29 23.47,-22.99 11.28,-2.04 15.16,10.27 21.31,16.91 9.37,16.14 -2.85,35.8 -18.17,42.67 -13.76,10.12 -32.21,8.05 -48.15,6.59 -19.23,-1.4 -33.47,-15.99 -49.96,-24.19 -9.18,0.09 6.24,9.01 3.72,14.36 13.71,25.92 9.92,63.03 -16.16,79.75 -20.55,20.06 -64.02,3.12 -60.25,-26.85 1.65,-11.97 23.48,-28.24 28.95,-10.24 -1.62,8.26 -15.27,1.06 -18.25,9.06 -3.19,8.32 1.9,15.72 5.01,23.02 11.63,4.74 26.32,7.52 37.44,-0.14 32.3,-23.3 26.58,-78.25 -6.52,-97.8 -12.48,-7.34 -24.35,-17.71 -39.72,-17.18 -40.07,-13.38 -85.87,2.63 -113.81,33 -4.39,9.93 -19.74,16.09 -16.45,27.83 22.67,0.95 46.76,-4.83 66.2,-17.04 6.71,4.79 1.69,16.7 -4.34,20.87 -4.36,16.36 -3.8,33.68 -4.9,50.59 -11.51,6.48 -23.91,-3.39 -35.89,1.24 -11.5,-1.43 -22.76,2.07 -34.3,1.63 -4.96,-0.86 -10.05,2.31 -9.6,7.77 0.01,24.5 -3.57,48.39 0.7,72.39 -21.09,1.66 -44.83,5.84 -61.17,20.91 -2.65,3.93 -14.52,6.85 -10.61,-1.32 10.58,-22.23 10.8,-47.34 10.72,-71.4 -5.29,-2.37 -7.96,5.83 -11.54,8.42 -27.41,22.24 -44.04,56.53 -47.87,91.28 1.07,29.46 10.07,60.49 34.46,79.14 21.79,26.99 75.63,26.6 87.63,-8.57 7.94,-13.57 -8.59,-36.68 -23.2,-27.61 -0.05,6.54 -2.02,18.98 -11.21,16.22 -13.55,-7.51 0.21,-28.94 13.25,-27.54 12.46,-3.75 19.73,7.71 28.63,13.47 4.97,14.36 8.4,35.72 -7.91,44.31 -9.97,14.67 -29.12,16.27 -45.02,20.06 -14.91,1.1 -26.11,-12.15 -40.47,-12.3 10.86,33.17 35.25,75.41 9.8,108.57 -8.54,20.95 -41.12,22.6 -52.09,2.96 -6.9,-12.92 0.6,-29 14.28,-32.63 7.29,-0.85 13.01,8.03 8.05,14.06 -5.05,0.63 -12.13,-1.56 -15.69,3.28 -2.56,11.88 8.87,26.42 21.57,19.44 12.73,-1.72 17.59,-14.45 22.58,-24.51 8.28,-31.07 -6.76,-60.66 -21.34,-87.03 -21.33,-38.5 -38.56,-82.66 -28.19,-127.37 11.4,-34.19 30.25,-69.56 64.6,-84.59 -6.05,-21.28 -11.33,-47.57 -31.86,-60.58 -8.14,-8 -20.68,-9.89 -30.91,-5.17 -6.58,9.33 -10.21,29.68 7.37,28.77 9.1,18.46 -25.29,10.29 -20.22,-3.41 3.99,-9.61 -4.8,-21.16 4.8,-28.56 -11.18,-21.36 -7.59,-50.28 -0.68,-73.37 7.27,-7.59 21.63,-18.71 30.44,-6.67 9.5,7.12 12.18,-9.07 21.67,-6.11 M 558.49,15.3 c -11.1,5.75 -23.63,20.97 -13.37,32.71 6.45,8.33 -7.28,16.05 -3.05,25.15 2.09,12.5 17.58,10.23 26.76,11.81 29.35,8.03 46.05,37.84 48.81,66.51 15.63,-3.45 31.4,-11.68 47.34,-16.54 3.42,-11.59 5.5,-23.69 11.58,-34.43 5.53,-8.33 -6.97,-8.88 -12.06,-10.06 -30.47,-3.13 -57.11,-33.11 -54,-63.57 -6.04,-5.97 -13.69,-15.9 -24.61,-11.58 -6.02,0.25 -4.61,7.95 -8.44,10.48 -9.37,3.11 -9.78,-12.71 -18.96,-10.48 M 745.5,84.38 c -18.95,6.41 -38.72,10.06 -58.67,11.12 -4.94,10.82 -7.54,22.64 -11.41,33.89 -1.68,3.05 2.68,5.13 5.2,4.17 19.43,-4.51 40.03,-0.79 59.3,-3.51 4.29,-12.06 1.71,-26.49 6.59,-38.38 4.31,-1.56 4.91,-9.41 -1.01,-7.29 m -86.93,62.88 c -10.71,2.26 -19.93,8.75 -30.52,11.67 -17.32,6.49 -5.55,28.06 -9.64,41.43 2.29,8.24 -9.32,21.22 -1.57,26.69 13.05,-7.15 26.94,-13.6 42.43,-12.44 4.32,-17.76 -3.11,-36.63 1.52,-54.7 -0.6,-4.09 5.94,-13.89 -2.22,-12.65 z"
           inkscape:connector-curvature="0"
           style="opacity:1;fill:#000000" />
        <path
           id="path3481"
           d="M 1018.06,35.1 C 1019.02,15.35 1051.57,9 1057,28.72 l 0,19.43 c -11.15,14.25 -42.12,6.78 -38.94,-13.05 m 19.35,-7.83 c -6.76,1.6 -9.81,11.09 -4.14,15.67 9.11,6.34 17.37,-17.87 4.14,-15.67 z"
           inkscape:connector-curvature="0"
           style="opacity:1;fill:#000000" />
        <path
           id="path3483"
           d="M 0,38.35 C 3.13,27.03 12.72,15.06 26.11,19.48 42.51,19.03 41.42,39.92 39.5,50.82 28.17,62.47 6.21,58.39 0,42.77 l 0,-4.42 m 20.41,-9.08 c -6.76,1.6 -9.81,11.09 -4.14,15.67 9.12,6.34 17.37,-17.87 4.14,-15.67 z"
           inkscape:connector-curvature="0"
           style="opacity:1;fill:#000000" />
        <path
           id="path3485"
           d="m 471.46,39.49 c 19.56,-3.68 29.67,25.02 15.13,36.31 -9.3,4.62 -21.61,5.69 -30.02,-1.42 -10.08,-12.19 -1.2,-34.12 14.89,-34.89 m -0.89,7.98 c -5.43,-0.15 -7.18,6.65 -7.31,10.88 -2.94,9.89 9.54,10.97 16.06,11.47 10.94,-5.97 4.9,-26.95 -8.75,-22.35 z"
           inkscape:connector-curvature="0"
           style="opacity:1;fill:#000000" />
        <path
           id="path3487"
           d="m 584.46,42.51 c 16.2,-0.16 30.05,20.51 18.36,34.19 -10.44,16.82 -38.63,0.42 -35.44,-17.16 -0.22,-9.71 8.91,-14.9 17.08,-17.03 m 0.25,7.9 c -17.41,0.96 -11.28,28.95 4.41,22.04 14.11,-2.61 11.06,-26.83 -4.41,-22.04 z"
           inkscape:connector-curvature="0"
           style="opacity:1;fill:#000000" />
        <path
           id="path3489"
           d="m 352.38,175.41 c 3.33,-1.26 6.64,5.06 2.93,6.71 -20.45,14.99 -38.1,33.57 -64.1,38.78 5.22,5.55 -0.64,13.8 4.08,19.71 5.08,6.42 14.71,6.99 22.27,7.49 6.78,-21.74 20.53,-40.95 35.61,-57.98 0.95,-3.38 11.94,-6.89 9.05,-1.03 -15.47,18.31 -30.06,38.55 -36.14,62.07 -3.53,12.26 3.06,28.95 15.72,32.69 4.95,-2.13 15.17,-9.52 17.23,-0.85 -3.28,11.88 -24.24,16.96 -30.59,4.53 -5.56,-0.74 -5.19,8.28 -7.76,12 -7.82,8.87 -22.83,8.29 -30.47,-0.76 -4.4,-4.17 -7.41,2.12 -8.61,5.75 -6.8,7.42 -17.44,9.82 -27.19,8.17 -10.07,-2.76 -18.02,7.99 -27.88,6.79 -1.24,-2.23 0.57,-4.35 1.71,-6.13 11.85,-14.09 -1.09,-34.98 10.02,-49.12 2.9,-2.48 16.69,-8.09 8.59,-12.01 -14.05,-8.54 -7.11,-31.23 7.81,-34.58 5,-0.25 6.08,-6.47 0.53,-7.68 -14.26,-6.4 -11.51,-34.56 6.27,-31.43 4.2,8.12 -9.35,9.54 -4.49,18.5 8.24,17.08 34.72,18.74 49.22,8.06 18.14,-5.02 29.79,-21.18 46.19,-29.68 m -85.94,42.04 c -9.4,5.62 -22.12,13.28 -16.78,26.38 5.32,4.43 14.79,8.49 14.1,16.75 -4.87,3.8 -14.08,1.31 -17.32,7.96 -6.24,9.79 -0.83,21.45 0.02,31.95 11.04,3.55 24.29,3.75 33.93,-3.54 -2.87,-7.76 6.69,-25.31 11.69,-11.08 5.88,18.34 28.05,4.65 31.2,-6.2 -4.96,-7.23 -5.26,-17.28 -8.81,-24.32 -18.94,4.06 -37.63,-18.45 -24.37,-34.72 -7.99,0.19 -16.28,-1.65 -23.66,-3.18 z"
           inkscape:connector-curvature="0"
           style="opacity:1;fill:#000000" />
        <path
           id="path3491"
           d="m 711.28,177.31 c 16.11,3.24 24.63,21.12 39.94,26.35 14.73,11.09 42,15.77 54.76,-0.17 5.94,-6.47 -6.92,-14.59 -0.58,-19.27 12,-0.52 11.8,16.05 7.36,23.41 -10.81,4.89 -17.97,17.99 -31.57,14.72 -7.26,-2.92 -7.02,1.93 -2.36,4.2 5.22,15.7 -17.52,36.93 -31.36,23.48 -6.38,13.72 -5.87,39.44 14.45,41.68 11.75,1.92 12.47,-19.58 23.32,-12.95 1.09,18.71 25.86,25.15 39.35,15.8 5.61,-13.56 2.97,-37.59 -16.23,-36.8 -6.6,-1.52 -2.35,-9.71 3.13,-10.21 13.98,-4.51 7.22,-25.27 -4.97,-28.36 0.53,-7.24 11.33,0.81 15.92,2.36 7.56,10 4.85,22.97 -2.33,31.25 20.26,11.49 11.58,36.6 17.83,55.12 -4.81,5.67 -13.32,-4.76 -20.01,-2.79 -13.31,3.42 -29.05,2.48 -37.14,-10.11 -11.61,9.93 -31.34,10.32 -38.45,-5.42 -4.63,-7.6 -11.26,0.89 -14.8,5.13 -8.06,3.56 -27.94,-2.74 -21.76,-14.1 6.72,-1.24 14.3,5.8 21.36,1.65 9.52,-7.07 14.15,-21.29 9.05,-32.44 -4.39,-20.34 -15.52,-38.43 -29.5,-53.53 -1.17,-2.69 -9.58,-10.87 -2.81,-12.32 10.69,4.93 15.09,16.94 23.32,24.78 10.79,9.66 10.94,26.74 20.55,36.89 16.18,9.07 30.41,-10.73 21.59,-23.93 -21.5,-10.69 -43.2,-22.57 -58.89,-41.35 -0.72,-0.83 -0.42,-2.92 0.83,-3.07 z"
           inkscape:connector-curvature="0"
           style="opacity:1;fill:#000000" />
        <path
           id="path3493"
           d="m 495.38,500.35 c 20.81,-5.47 29.06,22 18.73,35.86 -8.89,6.84 -26.93,10.29 -32.09,-2.42 -8.15,-11.91 -0.28,-29.87 13.36,-33.44 m 2.31,12.09 c -9.74,-0.27 -12.44,16.26 -1.56,16.6 14.34,8.51 16.81,-23.18 1.56,-16.6 z"
           inkscape:connector-curvature="0"
           style="opacity:1;fill:#000000" />
        <path
           id="path3495"
           d="m 558.76,543 c -19.39,-7.55 -13.07,-40.54 7.15,-41.75 24.67,-4.32 28.54,39.38 4.51,41.75 l -11.66,0 m 6.93,-29.56 c -9.74,-0.27 -12.44,16.26 -1.56,16.6 14.34,8.51 16.81,-23.18 1.56,-16.6 z"
           inkscape:connector-curvature="0"
           style="opacity:1;fill:#000000" />
      </g>
      <use
         x="0"
         y="0"
         xlink:href="#g3503"
         inkscape:transform-center-x="352.33333"
         inkscape:transform-center-y="6.70197"
         id="use4802"
         transform="matrix(0,-1,1,0,-88.631337,1159.0353)"
         width="100%"
         height="100%" />
      <use
         x="0"
         y="0"
         xlink:href="#use4802"
         inkscape:transform-center-x="-6.70197"
         inkscape:transform-center-y="352.33331"
         id="use4804"
         transform="matrix(0,-1,1,0,-88.631337,1159.0353)"
         width="100%"
         height="100%" />
      <use
         x="0"
         y="0"
         xlink:href="#use4804"
         inkscape:transform-center-x="-352.33331"
         inkscape:transform-center-y="-6.70199"
         id="use4806"
         transform="matrix(0,-1,1,0,-88.631334,1159.0353)"
         width="100%"
         height="100%" />
    </g>
    <use
       height="100%"
       width="100%"
       transform="matrix(-1,0,0,1,2318.404,0)"
       id="use4824"
       xlink:href="#g4808"
       y="0"
       x="0" />
    <use
       height="100%"
       width="100%"
       transform="translate(2496,0)"
       id="use4826"
       xlink:href="#g4808"
       y="0"
       x="0" />
    <use
       height="100%"
       width="100%"
       transform="translate(2496,0)"
       id="use4828"
       xlink:href="#use4824"
       y="0"
       x="0" />
    <use
       height="100%"
       width="100%"
       transform="translate(4992,0)"
       id="use4830"
       xlink:href="#g4808"
       y="0"
       x="0" />
    <use
       height="100%"
       width="100%"
       transform="translate(4992,0)"
       id="use4832"
       xlink:href="#use4824"
       y="0"
       x="0" />
    <use
       height="100%"
       width="100%"
       transform="translate(4992,0)"
       id="use4834"
       xlink:href="#use4826"
       y="0"
       x="0" />
    <use
       height="100%"
       width="100%"
       transform="translate(4992,0)"
       id="use4836"
       xlink:href="#use4828"
       y="0"
       x="0" />
    <use
       height="100%"
       width="100%"
       transform="matrix(1,0,0,-1,0,-0.333363)"
       id="use4838"
       xlink:href="#g4808"
       y="0"
       x="0" />
    <use
       height="100%"
       width="100%"
       transform="matrix(1,0,0,-1,0,-0.333363)"
       id="use4840"
       xlink:href="#use4824"
       y="0"
       x="0" />
    <use
       height="100%"
       width="100%"
       transform="matrix(1,0,0,-1,0,-0.333363)"
       id="use4842"
       xlink:href="#use4826"
       y="0"
       x="0" />
    <use
       height="100%"
       width="100%"
       transform="matrix(1,0,0,-1,0,-0.333363)"
       id="use4844"
       xlink:href="#use4828"
       y="0"
       x="0" />
    <use
       height="100%"
       width="100%"
       transform="matrix(1,0,0,-1,0,-0.333363)"
       id="use4846"
       xlink:href="#use4830"
       y="0"
       x="0" />
    <use
       height="100%"
       width="100%"
       transform="matrix(1,0,0,-1,0,-0.333363)"
       id="use4848"
       xlink:href="#use4832"
       y="0"
       x="0" />
    <use
       height="100%"
       width="100%"
       transform="matrix(1,0,0,-1,0,-0.333363)"
       id="use4850"
       xlink:href="#use4834"
       y="0"
       x="0" />
    <use
       height="100%"
       width="100%"
       transform="matrix(1,0,0,-1,0,-0.333363)"
       id="use4852"
       xlink:href="#use4836"
       y="0"
       x="0" />
    <use
       height="100%"
       width="100%"
       transform="translate(0,-2496)"
       id="use4886"
       xlink:href="#g4808"
       y="0"
       x="0" />
    <use
       height="100%"
       width="100%"
       transform="translate(0,-2496)"
       id="use4888"
       xlink:href="#use4824"
       y="0"
       x="0" />
    <use
       height="100%"
       width="100%"
       transform="translate(0,-2496)"
       id="use4890"
       xlink:href="#use4826"
       y="0"
       x="0" />
    <use
       height="100%"
       width="100%"
       transform="translate(0,-2496)"
       id="use4892"
       xlink:href="#use4828"
       y="0"
       x="0" />
    <use
       height="100%"
       width="100%"
       transform="translate(0,-2496)"
       id="use4894"
       xlink:href="#use4830"
       y="0"
       x="0" />
    <use
       height="100%"
       width="100%"
       transform="translate(0,-2496)"
       id="use4896"
       xlink:href="#use4832"
       y="0"
       x="0" />
    <use
       height="100%"
       width="100%"
       transform="translate(0,-2496)"
       id="use4898"
       xlink:href="#use4834"
       y="0"
       x="0" />
    <use
       height="100%"
       width="100%"
       transform="translate(0,-2496)"
       id="use4900"
       xlink:href="#use4836"
       y="0"
       x="0" />
    <use
       height="100%"
       width="100%"
       transform="translate(0,-2496)"
       id="use4902"
       xlink:href="#use4838"
       y="0"
       x="0" />
    <use
       height="100%"
       width="100%"
       transform="translate(0,-2496)"
       id="use4904"
       xlink:href="#use4840"
       y="0"
       x="0" />
    <use
       height="100%"
       width="100%"
       transform="translate(0,-2496)"
       id="use4906"
       xlink:href="#use4842"
       y="0"
       x="0" />
    <use
       height="100%"
       width="100%"
       transform="translate(0,-2496)"
       id="use4908"
       xlink:href="#use4844"
       y="0"
       x="0" />
    <use
       height="100%"
       width="100%"
       transform="translate(0,-2496)"
       id="use4910"
       xlink:href="#use4846"
       y="0"
       x="0" />
    <use
       height="100%"
       width="100%"
       transform="translate(0,-2496)"
       id="use4912"
       xlink:href="#use4848"
       y="0"
       x="0" />
    <use
       height="100%"
       width="100%"
       transform="translate(0,-2496)"
       id="use4914"
       xlink:href="#use4850"
       y="0"
       x="0" />
    <use
       height="100%"
       width="100%"
       transform="translate(0,-2496)"
       id="use4916"
       xlink:href="#use4852"
       y="0"
       x="0" />
    <use
       height="100%"
       width="100%"
       transform="translate(0,-2496)"
       id="use4918"
       xlink:href="#use4886"
       y="0"
       x="0" />
    <use
       height="100%"
       width="100%"
       transform="translate(0,-2496)"
       id="use4920"
       xlink:href="#use4888"
       y="0"
       x="0" />
    <use
       height="100%"
       width="100%"
       transform="translate(0,-2496)"
       id="use4922"
       xlink:href="#use4890"
       y="0"
       x="0" />
    <use
       height="100%"
       width="100%"
       transform="translate(0,-2496)"
       id="use4924"
       xlink:href="#use4892"
       y="0"
       x="0" />
    <use
       height="100%"
       width="100%"
       transform="translate(0,-2496)"
       id="use4926"
       xlink:href="#use4894"
       y="0"
       x="0" />
    <use
       height="100%"
       width="100%"
       transform="translate(0,-2496)"
       id="use4928"
       xlink:href="#use4896"
       y="0"
       x="0" />
    <use
       height="100%"
       width="100%"
       transform="translate(0,-2496)"
       id="use4930"
       xlink:href="#use4898"
       y="0"
       x="0" />
    <use
       height="100%"
       width="100%"
       transform="translate(0,-2496)"
       id="use4932"
       xlink:href="#use4900"
       y="0"
       x="0" />
    <use
       height="100%"
       width="100%"
       transform="translate(0,-2496)"
       id="use4934"
       xlink:href="#use4902"
       y="0"
       x="0" />
    <use
       height="100%"
       width="100%"
       transform="translate(0,-2496)"
       id="use4936"
       xlink:href="#use4904"
       y="0"
       x="0" />
    <use
       height="100%"
       width="100%"
       transform="translate(0,-2496)"
       id="use4938"
       xlink:href="#use4906"
       y="0"
       x="0" />
    <use
       height="100%"
       width="100%"
       transform="translate(0,-2496)"
       id="use4940"
       xlink:href="#use4908"
       y="0"
       x="0" />
    <use
       height="100%"
       width="100%"
       transform="translate(0,-2496)"
       id="use4942"
       xlink:href="#use4910"
       y="0"
       x="0" />
    <use
       height="100%"
       width="100%"
       transform="translate(0,-2496)"
       id="use4944"
       xlink:href="#use4912"
       y="0"
       x="0" />
    <use
       height="100%"
       width="100%"
       transform="translate(0,-2496)"
       id="use4946"
       xlink:href="#use4914"
       y="0"
       x="0" />
    <use
       height="100%"
       width="100%"
       transform="translate(0,-2496)"
       id="use4948"
       xlink:href="#use4916"
       y="0"
       x="0" />
  </g>
</svg>
