<?xml version="1.0" encoding="UTF-8" standalone="no"?>
<!-- Generator: Adobe Illustrator 16.0.0, SVG Export Plug-In . SVG Version: 6.00 Build 0)  -->

<svg
   xmlns:dc="http://purl.org/dc/elements/1.1/"
   xmlns:cc="http://creativecommons.org/ns#"
   xmlns:rdf="http://www.w3.org/1999/02/22-rdf-syntax-ns#"
   xmlns:svg="http://www.w3.org/2000/svg"
   xmlns="http://www.w3.org/2000/svg"
   xmlns:sodipodi="http://sodipodi.sourceforge.net/DTD/sodipodi-0.dtd"
   xmlns:inkscape="http://www.inkscape.org/namespaces/inkscape"
   version="1.1"
   x="0px"
   y="0px"
   width="1233px"
   height="902.167px"
   viewBox="0 0 1233 902.167"
   enable-background="new 0 0 1233 902.167"
   xml:space="preserve"
   id="svg325"
   sodipodi:docname="industry icons II.svg"
   inkscape:version="0.92.0 r15299"><title
     id="title4003">industry icons II</title><metadata
     id="metadata331"><rdf:RDF><cc:Work
         rdf:about=""><dc:format>image/svg+xml</dc:format><dc:type
           rdf:resource="http://purl.org/dc/dcmitype/StillImage" /><dc:title>industry icons II</dc:title><dc:date>7/20/2017</dc:date><dc:creator><cc:Agent><dc:title>cactus cowboy</dc:title></cc:Agent></dc:creator></cc:Work></rdf:RDF></metadata><defs
     id="defs329" /><sodipodi:namedview
     pagecolor="#ffffff"
     bordercolor="#666666"
     borderopacity="1"
     objecttolerance="10"
     gridtolerance="10"
     guidetolerance="10"
     inkscape:pageopacity="0"
     inkscape:pageshadow="2"
     inkscape:window-width="1920"
     inkscape:window-height="1052"
     id="namedview327"
     showgrid="false"
     inkscape:zoom="1"
     inkscape:cx="616.5"
     inkscape:cy="451.0835"
     inkscape:window-x="-9"
     inkscape:window-y="-9"
     inkscape:window-maximized="1"
     inkscape:current-layer="svg325" /><g
     id="mining"><path
       id="frame_5_"
       stroke="#000000"
       stroke-width="0"
       stroke-linejoin="bevel"
       d="M1227.46,476.249c0-14.875-12.125-27-27-27   h-0.75c-106.625,0-213.125,0-319.5,0.25h-1c-14.125,0-25.625,11.375-25.625,25.625c0,1,0,1.75,0.125,2.75v321   c-0.375,1.25-0.5,2.875-0.5,4.5c0,10.25,8.5,18.75,18.75,18.75c1.25,0,2.25-0.25,3.375-0.375h332c11.5-2.5,20.25-12.625,20.25-25   c0-0.25,0-0.25,0-0.375v-319.75L1227.46,476.249z M1211.21,797.749c-1,4.375-4.75,7.625-9.375,7.625h-321.5   c-5,0.125-9.25-3.625-10-9c0,0-0.375-322.25-0.375-322.875c0-4.375,3.625-8.125,8.125-8.125c0.625,0,323.375,0.375,323.375,0.375   c5.375,0.5,9.75,5.125,9.75,10.875V797.749z" /><path
       id="visor"
       d="M1193.99,690.434c0,0-41.335,29-56.665,45c0,0-28.67,25-55.335,31.336c0,0-62.335,21.664-139,0.33   c0,0-66.405-18.166-57.455-63.396c1.29,3.315,1.557,5.923,3.79,11.315c4.193,10.124,12.797,21.373,23.33,32.08   c15.17,15.42,84.335,23,84.335,23c46.665,4.334,92.335-12.33,92.335-12.33c16-2.336,56.665-37.336,56.665-37.336   c13-13,45.335-36.664,45.335-36.664c6.33-5-2-3.67-2-3.67c-14.335,1-41.67,32.334-41.67,32.334   c-46.33,48.67-104.33,51.666-104.33,51.666c-109.67,10.67-141.335-31.33-141.335-31.33c-10.465-13.131-14.415-26.334-12.832-34   l37.167-22.336c0,0,25.665,54,156,36c0,0,46-13.334,58.665-31.664c0,0,7.335-10.67,34.665-19l19,17.664   C1194.655,679.434,1197.99,683.77,1193.99,690.434z" /><g
       id="helmet"><path
         id="right"
         d="M958.556,601.744c-17.445,38.9-12.995,81.46-11.75,90.695c-14.15-8.5-18.98-16.42-18.98-16.42l5-69.25    c2.23-56.806,25.385-72.506,25.745-72.746C945.386,565.914,954.205,592.069,958.556,601.744z" /><path
         id="front"
         d="M1055.681,710.704c-22.965,2.245-41.605,1.065-41.605,1.065c-29.141-2.67-49.12-9.57-62.445-16.615    c-7.814-46.73,5.41-80.065,9.375-88.686c14.95,24.365,21.91,27.795,57.57,27.301c16.165-0.575,26.245-13.32,31.88-23.99    L1055.681,710.704z" /><path
         id="left"
         d="M1175.825,659.52c-11-1.5-18.5,4.5-18.5,4.5c-15.5,10-43,31-43,31c-15.325,8.595-35.16,12.944-53.13,15.09    l-5.479-112.795c0.414-1.295,0.609-2.045,0.609-2.045c1.75-34.25,7-53.25,11.5-61.5s15.75-20.5,32-23s42,20.75,42,20.75    c25.75,20.25,27.75,48.5,29.75,61.25S1175.825,659.52,1175.825,659.52z" /><path
         id="top_1_"
         d="M987.325,503.769c0,0,49.666-20.667,85.334-13.667c0,0,19.334,1,23.666,18.334c0,0-22-3.334-35.333,30.666    c0,0-10.333,22.334-7.333,48.334c0,0-1.667,40-38.667,43.666c0,0,21.667-6.666,32-41.666c0,0,8.667-28-5.333-58.667    C1041.659,530.769,1021.659,491.769,987.325,503.769z" /></g><ellipse
       id="light"
       cx="1000.762"
       cy="567.426"
       rx="45.7"
       ry="63.302" /><ellipse
       id="lens"
       fill="#FFFFFF"
       cx="1000.23"
       cy="566.973"
       rx="38.104"
       ry="52.934" /></g><g
     id="politics"><path
       id="frame_4_"
       d="M804.032,476.124c0-7.065-2.904-13.435-7.545-18.045c-4.64-4.61-11.02-7.455-17.955-7.455h-323.75   c-13.375,1.75-24,12.75-25,26.75v318.875c0,14.25,11.375,26,25.5,26.5h329.5c10.75-0.75,19.375-10,19.375-21.125v-1.5   C804.157,691.999,804.157,583.999,804.032,476.124z M779.407,807.124c-0.125,0-0.125,0-0.25,0h-324.25   c-4.625-0.5-8.25-4.375-8.25-9.25c0-0.75,0-1.125,0.125-1.875V477.374c0-5,3.625-9.125,8-9.875h325.75c4,0,7.25,3.25,7.25,7.125   c0,0.375,0,0.75-0.25,1.125v320.125c0.25,0.875,0.375,1.75,0.375,2.75C787.907,803.249,784.157,807.124,779.407,807.124z" /><g
       id="capital"><rect
         id="flag"
         x="616.157"
         y="484.498"
         fill="#FFFFFF"
         stroke="#000000"
         stroke-width="0.5"
         stroke-linejoin="round"
         width="15.75"
         height="11.877" /><path
         id="dome"
         fill="#FFFFFF"
         stroke="#000000"
         stroke-width="0.5"
         d="M597.407,546.814v-7.69h37.375l0.25,7.374    c47.93,12.75,45.5,75.626,45.5,75.626h-127.75C552.782,622.124,547.973,559.759,597.407,546.814z" /><g
         id="apex"><path
           fill="#FFFFFF"
           stroke="#000000"
           stroke-width="0.5"
           stroke-linejoin="round"
           d="M618.968,500.749v5.81     c-0.885-0.5-1.926-0.789-3.035-0.789c-0.955,0-1.855,0.209-2.65,0.59v-5.61H618.968z"
           id="path15" /><path
           fill="#FFFFFF"
           stroke="#000000"
           stroke-width="0.5"
           stroke-linejoin="round"
           d="M621.802,511.259     c0,1.105-0.344,2.13-0.944,2.99h-9.851c-0.6-0.86-0.949-1.885-0.949-2.99c0-2.14,1.311-3.995,3.225-4.899     c0.795-0.381,1.695-0.59,2.65-0.59c1.109,0,2.15,0.289,3.035,0.789C620.667,507.523,621.802,509.27,621.802,511.259z"
           id="path17" /><rect
           x="606.032"
           y="514.249"
           fill="#FFFFFF"
           stroke="#000000"
           stroke-width="0.5"
           stroke-linejoin="round"
           width="20.125"
           height="2.5"
           id="rect19" /><rect
           x="612.032"
           y="516.748"
           fill="#FFFFFF"
           stroke="#000000"
           stroke-width="0.5"
           stroke-linejoin="round"
           width="2.5"
           height="18.627"
           id="rect21" /><rect
           x="617.782"
           y="516.748"
           fill="#FFFFFF"
           stroke="#000000"
           stroke-width="0.5"
           stroke-linejoin="round"
           width="2.375"
           height="18.627"
           id="rect23" /><rect
           x="602.282"
           y="535.375"
           fill="none"
           stroke="#000000"
           stroke-width="0.5"
           stroke-linejoin="round"
           width="27.625"
           height="3.75"
           id="rect25" /><path
           fill="none"
           stroke="#000000"
           stroke-width="0.5"
           stroke-linejoin="round"
           d="M607.157,535.375c0,0,2.865-10.48,0.365-18.73     "
           id="path27" /><path
           fill="none"
           stroke="#000000"
           stroke-width="0.5"
           stroke-linejoin="round"
           d="M624.522,516.645c0,0-2.605,12.461,0.51,18.73     "
           id="path29" /><line
           fill="none"
           stroke="#000000"
           stroke-width="0.5"
           stroke-linejoin="round"
           x1="616.157"
           y1="496.375"
           x2="616.157"
           y2="500.749"
           id="line31" /><line
           fill="none"
           stroke="#000000"
           stroke-width="0.5"
           stroke-linejoin="round"
           x1="614.657"
           y1="500.749"
           x2="614.657"
           y2="505.9"
           id="line33" /><line
           fill="none"
           stroke="#000000"
           stroke-width="0.5"
           stroke-linejoin="round"
           x1="617.782"
           y1="500.749"
           x2="617.795"
           y2="506.023"
           id="line35" /></g><g
         id="windows"><rect
           id="_x35__1_"
           x="565.282"
           y="590.625"
           width="6.125"
           height="7.5" /><rect
           id="_x34__1_"
           x="589.157"
           y="590.625"
           width="6.125"
           height="7.5" /><rect
           id="_x33__1_"
           x="613.032"
           y="590.625"
           width="6.125"
           height="7.5" /><rect
           id="_x32__1_"
           x="636.907"
           y="590.625"
           width="6.125"
           height="7.5" /><rect
           id="_x31__1_"
           x="660.782"
           y="590.625"
           width="6.125"
           height="7.5" /></g><g
         id="main_building"><rect
           x="550.282"
           y="622.125"
           fill="#FFFFFF"
           stroke="#000000"
           stroke-width="0.5"
           stroke-miterlimit="10"
           width="131.875"
           height="3.623"
           id="rect44" /><rect
           x="554.845"
           y="625.748"
           width="122.438"
           height="10.377"
           id="rect46" /><rect
           x="545.407"
           y="636.125"
           fill="#FFFFFF"
           stroke="#000000"
           stroke-width="0.5"
           stroke-miterlimit="10"
           width="141.375"
           height="31.75"
           id="rect48" /><line
           fill="none"
           stroke="#000000"
           stroke-width="0.5"
           stroke-miterlimit="10"
           x1="545.407"
           y1="642.375"
           x2="686.782"
           y2="642.375"
           id="line50" /><line
           fill="none"
           stroke="#000000"
           stroke-width="0.5"
           stroke-miterlimit="10"
           x1="545.407"
           y1="649.248"
           x2="686.782"
           y2="649.248"
           id="line52" /><rect
           x="545.407"
           y="649.248"
           width="18.875"
           height="18.627"
           id="rect54" /><rect
           x="570.532"
           y="649.248"
           width="20.125"
           height="18.627"
           id="rect56" /><rect
           x="596.907"
           y="649.248"
           width="38.625"
           height="18.627"
           id="rect58" /><rect
           x="641.595"
           y="649.248"
           width="20.313"
           height="18.627"
           id="rect60" /><rect
           x="668.407"
           y="649.248"
           width="18.375"
           height="18.627"
           id="rect62" /><path
           fill="none"
           stroke="#000000"
           stroke-width="0.5"
           stroke-miterlimit="10"
           d="M597.407,546.789     c0,0,14.572-5.563,37.625-0.291"
           id="path64" /><rect
           x="535.907"
           y="667.875"
           fill="none"
           stroke="#000000"
           stroke-width="0.5"
           stroke-miterlimit="10"
           width="160.5"
           height="15.75"
           id="rect66" /><line
           fill="none"
           stroke="#000000"
           stroke-width="0.5"
           stroke-miterlimit="10"
           x1="535.907"
           y1="677.375"
           x2="696.407"
           y2="677.375"
           id="line68" /><rect
           x="460.032"
           y="691.498"
           fill="none"
           stroke="#000000"
           stroke-width="0.5"
           stroke-miterlimit="10"
           width="75.875"
           height="16"
           id="rect70" /><line
           fill="none"
           stroke="#000000"
           stroke-width="0.5"
           stroke-miterlimit="10"
           x1="460.032"
           y1="698.875"
           x2="535.907"
           y2="698.875"
           id="line72" /><rect
           x="696.345"
           y="691.498"
           fill="none"
           stroke="#000000"
           stroke-width="0.5"
           stroke-miterlimit="10"
           width="75.875"
           height="16"
           id="rect74" /><line
           fill="none"
           stroke="#000000"
           stroke-width="0.5"
           stroke-miterlimit="10"
           x1="696.345"
           y1="698.875"
           x2="772.22"
           y2="698.875"
           id="line76" /><polygon
           points="772.157,707.499 772.157,786.624 696.407,786.624 696.407,790.999 535.907,790.999 535.907,786.624      460.032,786.624 460.032,707.499 535.907,707.499 535.907,683.624 696.407,683.624 696.407,707.499    "
           id="polygon78" /></g><g
         id="columns"><rect
           x="466.907"
           y="707.499"
           fill="#FFFFFF"
           stroke="#000000"
           stroke-width="0.5"
           stroke-miterlimit="10"
           width="10.125"
           height="79.125"
           id="rect81" /><rect
           x="501.532"
           y="707.499"
           fill="#FFFFFF"
           stroke="#000000"
           stroke-width="0.5"
           stroke-miterlimit="10"
           width="10"
           height="79.125"
           id="rect83" /><rect
           x="561.397"
           y="683.77"
           fill="#FFFFFF"
           stroke="#000000"
           stroke-width="0.5"
           stroke-miterlimit="10"
           width="10.76"
           height="107.229"
           id="rect85" /><rect
           x="612.032"
           y="683.77"
           fill="#FFFFFF"
           stroke="#000000"
           stroke-width="0.5"
           stroke-miterlimit="10"
           width="10.365"
           height="107"
           id="rect87" /><rect
           x="661.157"
           y="683.77"
           fill="#FFFFFF"
           stroke="#000000"
           stroke-width="0.5"
           stroke-miterlimit="10"
           width="9.75"
           height="107.229"
           id="rect89" /><rect
           x="721.147"
           y="707.27"
           fill="#FFFFFF"
           stroke="#000000"
           stroke-width="0.5"
           stroke-miterlimit="10"
           width="9.385"
           height="79.354"
           id="rect91" /><rect
           x="755.282"
           y="707.27"
           fill="#FFFFFF"
           stroke="#000000"
           stroke-width="0.5"
           stroke-miterlimit="10"
           width="9.875"
           height="79.354"
           id="rect93" /></g></g></g><g
     id="banking"><path
       id="frame_3_"
       d="M380.866,477.48c0-14.88-12.25-26.88-27-26.88l-321.25,0.13c-14.125,0-25.625,11.37-25.625,25.62   c0,1-0.375,326.63-0.375,328.25c0,10.25,8.5,18.75,18.625,18.75c1.375,0,335.5-0.37,335.5-0.37c11.5-2.38,20.25-12.63,20.25-25   c0-0.13,0-0.13,0-0.38v-319.75L380.866,477.48z M364.616,798.98c-1,4.37-4.75,7.62-9.375,7.62h-321.5c-5,0.13-9.25-3.62-10.125-9   c0,0-0.25-322.25-0.25-322.87c0-4.38,3.5-8.13,8.125-8.13c0.625,0,323.375,0.38,323.375,0.38c5.375,0.5,9.75,5.12,9.75,10.87   V798.98z" /><g
       id="quarters"><path
         id="quarter_15"
         d="M246.095,586.485c-7.02-1.299-12.754-3.265-16.44-4.742l0.011,3.839    c3.612,1.452,9.283,3.402,16.254,4.688c10.646,1.964,26.471,2.703,42.813-4.303v-3.412c-9.76,3.99-19.298,5.318-27.662,5.318    C255.452,587.873,250.366,587.275,246.095,586.485z" /><path
         id="quarter_14"
         d="M288.731,596.467v-3.625c-9.934,4.151-19.655,5.531-28.162,5.531c-5.617,0-10.703-0.598-14.975-1.388    c-6.693-1.238-12.217-3.083-15.911-4.533l0.011,3.642c3.613,1.451,9.273,3.395,16.225,4.676    C256.565,602.733,272.39,603.473,288.731,596.467z" /><path
         id="quarter_13"
         d="M246.095,575.985c-7.039-1.302-12.784-3.274-16.469-4.754l0.01,3.636    c3.574,1.47,9.463,3.553,16.783,4.902c10.538,1.943,26.148,2.689,42.313-4.09v-3.625c-9.76,3.99-19.298,5.318-27.662,5.318    C255.452,577.373,250.366,576.775,246.095,575.985z" /><path
         id="quarter_12"
         d="M247.095,539.235c-7.785-1.44-13.988-3.701-17.571-5.207l0.01,3.625    c3.388,1.462,9.753,3.867,17.886,5.366c10.32,1.903,25.507,2.656,41.313-3.682v-3.641c-9.41,3.68-18.584,4.926-26.662,4.926    C256.452,540.623,251.366,540.025,247.095,539.235z" /><path
         id="quarter_11"
         d="M247.095,544.485c-7.775-1.438-13.973-3.694-17.557-5.201l0.01,3.626    c3.392,1.462,9.75,3.862,17.871,5.359c10.32,1.903,25.507,2.656,41.313-3.682v-3.641c-9.41,3.68-18.584,4.926-26.662,4.926    C256.452,545.873,251.366,545.275,247.095,544.485z" /><path
         id="quarter_10"
         d="M247.095,549.735c-7.766-1.437-13.955-3.688-17.543-5.194l0.01,3.625    c3.396,1.463,9.748,3.859,17.857,5.354c10.32,1.903,25.507,2.656,41.313-3.682v-3.641c-9.41,3.68-18.584,4.926-26.662,4.926    C256.452,551.123,251.366,550.525,247.095,549.735z" /><path
         id="quarter_9"
         d="M247.095,554.985c-7.755-1.435-13.939-3.683-17.528-5.188l0.011,3.625    c3.398,1.464,9.744,3.855,17.842,5.348c10.32,1.903,25.507,2.656,41.313-3.682v-3.641c-9.41,3.68-18.584,4.926-26.662,4.926    C256.452,556.373,251.366,555.775,247.095,554.985z" /><path
         id="Quarter_8"
         d="M245.595,591.735c-6.703-1.24-12.23-3.088-15.926-4.538l0.01,3.641c3.613,1.451,9.279,3.398,16.24,4.682    c10.646,1.964,26.471,2.703,42.813-4.303v-3.625c-9.934,4.151-19.655,5.531-28.162,5.531    C254.952,593.123,249.866,592.525,245.595,591.735z" /><path
         id="Quarter_7"
         d="M246.595,565.485c-7.385-1.366-13.348-3.471-16.998-4.969l0.01,3.631    c3.506,1.475,9.619,3.704,17.313,5.122c10.43,1.924,25.827,2.671,41.813-3.886v-3.631c-9.585,3.833-18.941,5.12-27.162,5.12    C255.952,566.873,250.866,566.275,246.595,565.485z" /><path
         id="quarter_6"
         d="M246.095,581.235c-7.029-1.3-12.77-3.27-16.455-4.748l0.01,3.636c3.576,1.469,9.459,3.549,16.77,4.896    c10.538,1.943,26.148,2.689,42.313-4.09v-3.625c-9.76,3.99-19.298,5.318-27.662,5.318    C255.452,582.623,250.366,582.025,246.095,581.235z" /><path
         id="quarter_5"
         d="M247.095,560.235c-7.744-1.433-13.923-3.677-17.514-5.183l0.011,3.839    c3.503,1.474,9.622,3.708,17.327,5.128c10.43,1.924,25.827,2.671,41.813-3.886v-3.437c-9.41,3.68-18.584,4.926-26.662,4.926    C256.452,561.623,251.366,561.025,247.095,560.235z" /><path
         id="quarter_4"
         d="M246.595,533.985c-7.445-1.377-13.441-3.505-17.086-5.005l0.01,3.416c3.385,1.462,9.756,3.872,17.9,5.373    c10.32,1.903,25.507,2.656,41.313-3.682v-3.835c-9.585,3.833-18.941,5.12-27.162,5.12    C255.952,535.373,250.866,534.775,246.595,533.985z" /><path
         id="quarter_3"
         d="M246.595,570.735c-7.376-1.364-13.332-3.466-16.984-4.963l0.011,3.839    c3.573,1.47,9.468,3.557,16.798,4.908c10.538,1.943,26.148,2.689,42.313-4.09v-3.427c-9.585,3.833-18.941,5.12-27.162,5.12    C255.952,572.123,250.866,571.525,246.595,570.735z" /><path
         id="quarter_2"
         d="M246.595,528.735c-7.455-1.379-13.458-3.51-17.1-5.011l0.01,3.63c3.488,1.474,9.644,3.733,17.414,5.165    c10.43,1.924,25.827,2.671,41.813-3.886v-3.631c-9.585,3.833-18.941,5.12-27.162,5.12    C255.952,530.123,250.866,529.525,246.595,528.735z" /><path
         id="quarter_1"
         d="M247.261,606.336c2.68,0.392,25.846,2.975,41.471-4.838v-3.406c-9.934,4.151-19.655,5.531-28.162,5.531    c-5.617,0-10.703-0.598-14.975-1.388c-6.686-1.236-12.201-3.078-15.896-4.527l0.011,3.84c3.119,1.225,7.591,2.745,12.999,3.925    C242.603,605.496,244.581,605.945,247.261,606.336z" /><path
         id="top_quarter"
         d="M246.919,527.27c10.43,1.924,25.827,2.671,41.813-3.886v-3.573c0,0-25.25-17.75-59.25-1l0.009,3.288    C232.977,523.572,239.138,525.836,246.919,527.27z" /></g><g
       id="nickels"><path
         id="nic_15"
         d="M183.214,607.292c-5.381-0.995-9.775-2.502-12.6-3.635l0.008,2.942c2.768,1.113,7.114,2.607,12.456,3.593    c8.159,1.505,20.286,2.071,32.81-3.298v-2.615c-7.479,3.059-14.789,4.076-21.199,4.076    C190.385,608.355,186.486,607.897,183.214,607.292z" /><path
         id="nic_14"
         d="M215.888,614.941v-2.778c-7.613,3.182-15.063,4.239-21.582,4.239c-4.305,0-8.202-0.458-11.476-1.063    c-5.13-0.949-9.362-2.362-12.193-3.475l0.007,2.791c2.771,1.112,7.107,2.602,12.435,3.583    C191.237,619.743,203.364,620.311,215.888,614.941z" /><path
         id="nic_13"
         d="M183.214,599.245c-5.395-0.997-9.798-2.51-12.622-3.644l0.007,2.787c2.74,1.126,7.253,2.723,12.863,3.757    c8.075,1.489,20.039,2.062,32.426-3.134v-2.779c-7.479,3.059-14.789,4.076-21.199,4.076    C190.385,600.309,186.486,599.851,183.214,599.245z" /><path
         id="nic_12"
         d="M183.979,571.082c-5.966-1.104-10.721-2.836-13.466-3.99l0.007,2.777c2.598,1.121,7.475,2.964,13.707,4.113    c7.909,1.459,19.547,2.035,31.66-2.822v-2.79c-7.212,2.819-14.242,3.775-20.432,3.775    C191.151,572.146,187.253,571.688,183.979,571.082z" /><path
         id="nic_11"
         d="M183.979,575.105c-5.959-1.103-10.708-2.832-13.455-3.986l0.008,2.778c2.6,1.121,7.472,2.961,13.695,4.108    c7.909,1.458,19.547,2.034,31.66-2.822v-2.79c-7.212,2.819-14.242,3.775-20.432,3.775    C191.151,576.169,187.253,575.711,183.979,575.105z" /><path
         id="nic_10"
         d="M183.979,579.129c-5.951-1.102-10.695-2.827-13.443-3.981l0.008,2.778c2.602,1.121,7.469,2.957,13.684,4.104    c7.909,1.458,19.547,2.034,31.66-2.822v-2.79c-7.212,2.819-14.242,3.775-20.432,3.775    C191.151,580.192,187.253,579.734,183.979,579.129z" /><path
         id="nic_9"
         d="M183.979,583.152c-5.943-1.1-10.683-2.822-13.433-3.977l0.007,2.778c2.605,1.122,7.469,2.954,13.674,4.099    c7.909,1.458,19.547,2.034,31.66-2.822v-2.79c-7.212,2.819-14.242,3.775-20.432,3.775    C191.151,584.216,187.253,583.758,183.979,583.152z" /><path
         id="nic_8"
         d="M182.83,611.315c-5.136-0.95-9.373-2.366-12.204-3.479l0.007,2.791c2.769,1.112,7.11,2.604,12.445,3.588    c8.159,1.505,20.286,2.071,32.81-3.298v-2.778c-7.613,3.182-15.063,4.239-21.582,4.239    C190.001,612.379,186.104,611.921,182.83,611.315z" /><path
         id="nic_7"
         d="M183.597,591.199c-5.66-1.048-10.229-2.66-13.027-3.809l0.008,2.782c2.687,1.13,7.371,2.839,13.268,3.926    c7.992,1.474,19.793,2.047,32.043-2.978v-2.783c-7.346,2.938-14.516,3.924-20.816,3.924    C190.768,592.262,186.87,591.804,183.597,591.199z" /><path
         id="nic_6"
         d="M183.214,603.269c-5.387-0.997-9.787-2.506-12.611-3.639l0.008,2.786c2.74,1.126,7.248,2.72,12.852,3.753    c8.075,1.489,20.039,2.062,32.426-3.134v-2.779c-7.479,3.059-14.789,4.076-21.199,4.076    C190.385,604.332,186.486,603.874,183.214,603.269z" /><path
         id="nic_5"
         d="M183.979,587.176c-5.936-1.099-10.67-2.818-13.422-3.973l0.009,2.942c2.685,1.13,7.373,2.841,13.278,3.93    c7.992,1.474,19.793,2.047,32.043-2.978v-2.634c-7.212,2.819-14.242,3.774-20.432,3.774    C191.151,588.238,187.253,587.781,183.979,587.176z" /><path
         id="nic_4"
         d="M183.597,567.059c-5.706-1.056-10.301-2.686-13.094-3.836l0.007,2.619c2.595,1.119,7.476,2.967,13.718,4.117    c7.909,1.459,19.547,2.035,31.66-2.822v-2.938c-7.346,2.938-14.516,3.924-20.816,3.924    C190.768,568.122,186.87,567.664,183.597,567.059z" /><path
         id="nic_3"
         d="M183.597,595.223c-5.652-1.047-10.217-2.656-13.016-3.805l0.007,2.942c2.739,1.126,7.256,2.726,12.874,3.762    c8.075,1.489,20.039,2.062,32.426-3.134v-2.627c-7.346,2.938-14.516,3.924-20.816,3.924    C190.768,596.285,186.87,595.827,183.597,595.223z" /><path
         id="nic_2"
         d="M183.597,563.035c-5.714-1.057-10.314-2.689-13.105-3.84l0.008,2.781c2.674,1.13,7.391,2.861,13.346,3.959    c7.992,1.474,19.793,2.047,32.043-2.979v-2.782c-7.346,2.938-14.516,3.924-20.816,3.924    C190.768,564.099,186.87,563.641,183.597,563.035z" /><path
         id="nic_1"
         d="M184.106,622.505c2.053,0.3,19.807,2.278,31.781-3.708v-2.611c-7.613,3.183-15.063,4.24-21.582,4.24    c-4.305,0-8.202-0.459-11.476-1.063c-5.124-0.948-9.351-2.359-12.183-3.47l0.008,2.942c2.391,0.938,5.817,2.104,9.963,3.008    C180.537,621.861,182.053,622.205,184.106,622.505z" /><path
         id="top_nic"
         d="M183.845,561.912c7.992,1.474,19.793,2.047,32.043-2.978v-2.739c0,0-19.351-13.602-45.406-0.766l0.006,2.52    C173.16,559.078,177.882,560.813,183.845,561.912z" /></g><g
       id="stack"><polygon
         id="bottom"
         fill="#FFFFFF"
         stroke="#000000"
         stroke-width="0.5"
         stroke-linejoin="round"
         points="320.32,607.975     223.366,694.979 108.249,644.177 107.731,644.394 107.398,691.728 223.065,744.728 321.397,636.394 320.731,608.061   " /><polygon
         id="top"
         points="320.32,607.975 236.731,590.394 108.249,644.177 223.366,694.979   " /><g
         id="bills"><polyline
           id="_x38_"
           fill="none"
           stroke="#000000"
           stroke-width="0.5"
           stroke-miterlimit="10"
           points="107.398,649.979      223.366,701.102 320.815,611.602    " /><polyline
           id="_x37_"
           fill="none"
           stroke="#000000"
           stroke-width="0.5"
           stroke-miterlimit="10"
           points="107.398,655.79      223.366,707.479 320.32,615.252    " /><polyline
           id="_x36_"
           fill="none"
           stroke="#000000"
           stroke-width="0.5"
           stroke-miterlimit="10"
           points="107.617,660.658      223.366,713.852 320.815,618.491    " /><polyline
           id="_x35_"
           fill="none"
           stroke="#000000"
           stroke-width="0.5"
           stroke-miterlimit="10"
           points="107.398,666.172      223.243,719.979 320.815,621.514    " /><polyline
           id="_x34_"
           fill="none"
           stroke="#000000"
           stroke-width="0.5"
           stroke-miterlimit="10"
           points="107.617,671.288      223.243,726.352 321.108,624.102    " /><polyline
           id="_x33_"
           fill="none"
           stroke="#000000"
           stroke-width="0.5"
           stroke-miterlimit="10"
           points="107.617,676.661      223.243,732.479 321.108,628.104    " /><polyline
           id="_x32_"
           fill="none"
           stroke="#000000"
           stroke-width="0.5"
           stroke-miterlimit="10"
           points="107.398,681.979      223.243,738.852 320.815,631.062    " /><polyline
           id="_x31_"
           fill="none"
           stroke="#000000"
           stroke-width="0.5"
           stroke-miterlimit="10"
           points="107.398,687.227      223.366,742.061 321.108,634.229    " /></g></g><polygon
       id="wrapper"
       fill="#FFFFFF"
       stroke="#000000"
       stroke-width="0.5"
       stroke-miterlimit="10"
       points="174.116,615.963    202.366,603.84 290.866,633.59 290.866,670.107 271.866,690.415 271.866,651.84  " /><ellipse
       id="Dime"
       cx="149.313"
       cy="737.96"
       rx="35.493"
       ry="13.142" /><ellipse
       id="dollar"
       cx="86.321"
       cy="758.354"
       rx="21.078"
       ry="10.461" /></g><g
     id="education"><path
       id="frame_2_"
       stroke="#000000"
       stroke-width="0"
       stroke-linejoin="bevel"
       d="M1227.25,32.657   c0-14.88-12.125-26.88-26.875-26.88h-0.875c-106.625,0-213,0-319.5,0.13h-0.875c-14.25,0-25.75,11.37-25.75,25.62   c0,1,0,1.88,0.125,2.75v321c-0.25,1.25-0.375,2.88-0.375,4.5c0,10.25,8.375,18.75,18.625,18.75c1.25,0,2.25-0.25,3.375-0.37h332   c11.625-2.38,20.375-12.63,20.375-25c0-0.13,0-0.13,0-0.38V33.027L1227.25,32.657z M1212.19,355.782   c-0.88,4.37-4.63,7.62-9.38,7.62H881.44c-5.13,0.13-9.25-3.62-10.13-9V33.532c-0.37-0.63-0.37-1.38-0.37-2   c0-4.38,3.62-8.13,8.12-8.13c0.75,0,1.5,0.25,2.13,0.38h321.25c5.37,0.5,9.75,5.12,9.75,10.87V355.782z" /><g
       id="mortorboard"><path
         id="cap"
         d="M1117.338,143.378L1041.94,174.5l-78.364-34.232c-5.021,7.002-12.1,17.248-15.336,25.802    c-3.877,10.25-4.397,21.749-1.365,28.708s27.865,26.792,39.199,34.626c11.332,7.833,26.855,16.748,48.178,19.874    s48.821-0.374,64.154-5.208c15.334-4.833,36.023-16.33,38.846-21.665c2.822-5.334,0.988-28.501-2.346-45.001    C1131.574,160.904,1124.762,151.958,1117.338,143.378z" /><path
         id="board"
         d="M1058.809,101.401c-1.633,0.372-3.535,0.585-5.568,0.585c-6.075,0-11-1.903-11-4.25s4.925-4.25,11-4.25    s11,1.903,11,4.25c0,1.03-0.949,1.975-2.527,2.71l92.49,26.52l44.049-18.063L1060.74,45.737l-177.488,58.418L1041.939,173    l109.072-44.724L1058.809,101.401z" /><path
         id="tassel"
         d="M1152.615,183.487c-9.585-7.305-7.305-13.74-5.375-16.68c-0.79-1.04-1.25-2.32-1.25-3.695    c0-2.93,2.09-5.395,4.939-6.14l-0.439-28.485l3.71-1.52l0.265,29.98c2.896,0.72,5.025,3.21,5.025,6.165    c0,1.42-0.49,2.73-1.32,3.79C1165.04,175.312,1156.34,181.507,1152.615,183.487z" /></g><g
       id="diploma"><path
         id="rollup"
         fill="none"
         d="M1098.964,292.041c-2.36-6.091-6.745-10.276-12.347-11.785    c-6.35-1.711-13.658,0.239-20.048,5.352c-10.126,8.102-14.918,23.581-10.685,34.505c1.662,4.29,4.76,7.24,8.723,8.308    c4.469,1.207,9.598-0.154,14.066-3.729c7.039-5.632,10.365-16.408,7.413-24.022c-1.187-3.063-3.409-5.174-6.255-5.941    c-3.192-0.859-6.836,0.098-9.997,2.625c-5.024,4.021-7.305,11.439-5.192,16.892c0.865,2.232,2.492,3.772,4.582,4.335    c2.322,0.627,4.955-0.058,7.227-1.875c3.572-2.859,5.188-8.148,3.68-12.043c-0.646-1.666-1.868-2.816-3.442-3.24    c-1.728-0.466-3.677,0.033-5.343,1.367c-2.586,2.068-3.751,5.908-2.65,8.741c0.303,0.779,1.179,1.166,1.958,0.862    c0.778-0.303,1.165-1.179,0.862-1.958c-0.616-1.589,0.188-4.057,1.721-5.283c0.906-0.726,1.879-1.018,2.666-0.808    c0.793,0.214,1.203,0.887,1.407,1.412c1.023,2.643-0.235,6.574-2.749,8.586c-1.512,1.208-3.168,1.688-4.549,1.316    c-1.15-0.311-2.031-1.178-2.547-2.507c-1.607-4.147,0.344-10.3,4.261-13.435c2.4-1.919,5.067-2.672,7.318-2.066    c1.892,0.511,3.392,1.971,4.222,4.113c2.509,6.473-0.398,15.699-6.482,20.565c-3.709,2.967-7.859,4.122-11.389,3.171    c-3.008-0.811-5.383-3.111-6.688-6.479c-3.791-9.783,0.584-23.712,9.753-31.049c5.629-4.504,11.958-6.252,17.37-4.793    c4.646,1.252,8.309,4.787,10.312,9.957c5.679,14.653-0.852,35.495-14.558,46.46c-8.455,6.765-17.992,9.38-26.168,7.179    c-7.056-1.9-12.609-7.252-15.638-15.068c-0.302-0.778-1.179-1.164-1.958-0.863c-0.779,0.302-1.166,1.178-0.864,1.957    c3.386,8.738,9.662,14.738,17.673,16.896c2.156,0.582,4.392,0.867,6.669,0.867c7.349,0,15.142-2.976,22.177-8.604    C1098.137,330.228,1105.084,307.835,1098.964,292.041z" /><path
         id="paper_5"
         d="M978.625,253.155c13.385-3.332,18.377,1.873,18.377,1.873c3.637,5.666-7.262,14.334-12,11.5    c-3.744-2.239-6.645-7.493-7.697-9.601c0.788,2.119,1.763,6.961,2.531,11.211c11.434,7.637,34.718,23.222,59.049,39.699    c2.28,1.545,3.065,1.93,5.355,3.484c0,0,9-37.835,42.915-36.075c0.114,0.006,0.22-0.01,0.335-0.01    c-14.242-3.192-37.41,2.054-93.899-35.897C983.678,243.438,978.625,253.155,978.625,253.155z" /><path
         id="paper_4"
         d="M970.502,257.905c-0.66,0.349-1.684,1.496-2.701,2.785c0.328,0.174,0.652,0.347,0.969,0.515    C969.611,258.493,970.502,257.905,970.502,257.905z" /><path
         id="paper_3"
         d="M959.875,250.905c-4.49-14.207,8.25-14.377,8.25-14.377l6,13.25c3.557-8.491,10.5-12.442,14.229-14.021    c-56.726-39.492-61.479-68.351-61.479-68.351s-35.615,9.11-43.29,52.805c17.165,7.926,57.476,26.674,79.831,38.19l9.086-5.374    L959.875,250.905z" /><path
         id="paper_2"
         d="M1098.49,285.487c0,0-5.711-6.101-11.833-7.739c-29.167-4.261-41.417,37.239-41.417,37.239l-5-3.667    c0,0-3.583,12.418-1.083,21.168s9.203,12.385,16.259,14.285c8.176,2.201,17.713-0.414,26.168-7.179    c13.706-10.965,20.236-31.807,14.558-46.46c-2.003-5.17-5.665-8.705-10.312-9.957c-5.412-1.459-11.741,0.289-17.37,4.793    c-9.169,7.337-13.544,21.266-9.753,31.049c1.305,3.367,3.68,5.668,6.688,6.479c3.529,0.951,7.68-0.204,11.389-3.171    c6.084-4.866,8.991-14.093,6.482-20.565c-0.83-2.143-2.33-3.603-4.222-4.113c-2.251-0.605-4.918,0.147-7.318,2.066    c-3.917,3.135-5.868,9.287-4.261,13.435c0.516,1.329,1.396,2.196,2.547,2.507c1.381,0.372,3.037-0.108,4.549-1.316    c2.514-2.012,3.772-5.943,2.749-8.586c-0.204-0.525-0.614-1.198-1.407-1.412c-0.787-0.21-1.76,0.082-2.666,0.808    c-1.533,1.227-2.337,3.694-1.721,5.283c0.303,0.779-0.084,1.655-0.862,1.958c-0.779,0.304-1.655-0.083-1.958-0.862    c-1.101-2.833,0.064-6.673,2.65-8.741c1.666-1.334,3.615-1.833,5.343-1.367c1.574,0.424,2.797,1.574,3.442,3.24    c1.508,3.895-0.107,9.184-3.68,12.043c-2.271,1.817-4.904,2.502-7.227,1.875c-2.09-0.563-3.717-2.103-4.582-4.335    c-2.112-5.452,0.168-12.871,5.192-16.892c3.161-2.527,6.805-3.484,9.997-2.625c2.846,0.768,5.068,2.878,6.255,5.941    c2.952,7.614-0.374,18.391-7.413,24.022c-4.469,3.575-9.598,4.937-14.066,3.729c-3.963-1.067-7.061-4.018-8.723-8.308    c-4.233-10.924,0.559-26.403,10.685-34.505c6.39-5.112,13.698-7.063,20.048-5.352c5.602,1.509,9.986,5.694,12.347,11.785    c6.12,15.795-0.827,38.188-15.489,49.917c-7.035,5.629-14.828,8.604-22.177,8.604c-2.277,0-4.513-0.285-6.669-0.867    c-7.958-2.144-15.221-8.791-17.889-17.125c-2.666-8.332,1.5-22.75,1.5-22.75c-22.107-15.02-23.732-15.6-57.968-39.208    c0.509,2.95,0.853,5.166,0.853,5.166c-2.99,3.541-5.873-1.123-5.873-1.123l-2.135-8.985c-0.081-0.055-0.16-0.109-0.24-0.166    l0.193,15.287l59.254,58.947l8.833,8.332c0,0,28.083,24.334,56.25-17.332C1113.074,302.07,1098.49,285.487,1098.49,285.487z" /><path
         id="paper_1"
         d="M966.695,262.146c-1.213,1.646-2.193,3.132-2.193,3.132c-4.113,1.291-9.262-2.041-9.262-2.041l6.279-3.714    c-25.803-12.891-75.008-35.164-75.029-35.036c0,0-4,12.5-1,25.5c0,0,47.846-0.488,81.808,25.228    c-0.024-5.757,0.432-9.635,1.007-12.232C967.787,262.71,967.249,262.431,966.695,262.146z" /></g></g><g
     id="construction"><path
       id="frame"
       d="M803.395,32.187c0-14.88-12.125-26.88-27-26.88h-0.75c-106.625,0-213.125,0-319.5,0.13h-1   c-14.125,0-25.625,11.37-25.625,25.62c0,1,0,1.88,0.125,2.75v321c-0.115,19.79,12.24,22.71,21.625,22.88   c9.385,0.165,221.375,0,332,0c11.5-2.38,20.25-12.63,20.25-25c0-0.13,0-0.13,0-0.38V32.557L803.395,32.187z M787.145,353.687   c-0.135,4.455-3.115,7.535-10.25,7.62H456.27c-5,0.13-9.25-3.62-10-9v-130.09c0.005-94.485,0.005-189.005,0-190.78   c-0.01-2.67,0.01-9.71,9.875-9.75c9.865-0.045,214.125,0,321.25,0c5.375,0.5,9.75,5.12,9.75,10.87   C787.145,139.687,787.279,349.227,787.145,353.687z" /><path
       id="stand_alone"
       d="M607.927,83.267c8.667,12.667,14.269,22.749,19.218,35.041s8.375,58.917,8.949,77.792   c0.573,18.876-0.5,73.167-0.5,73.167c16.166-1.167,23.301-1.959,38.926-5.959l9.625-3.123c0.125-2.627,1.5-46.75-3.625-76   c-4.625-28.127-9.375-43.877-21.625-69.627c-6.25-13.25-14.885-24.791-25.635-34.791c0,0-6.333-0.167-11.666,0.333   C616.19,80.606,607.927,83.267,607.927,83.267z" /><path
       id="h-hat"
       d="M775.775,256.082l-38.181-22.815l-3.045-24.5l-2.75-4.25c-0.125-2.5-18.415-85.375-23.375-97.915   c-4.96-12.545-13.33-23.5-21.25-30.585s-26.415-15.085-30.915-16.75s-20-4.165-20-4.165v21.665c10,9.75,14.29,14.5,21.165,26.875   c11.25,20.375,16.835,32.625,22.335,55.125c8,31.875,9.125,80.915,9,83.665l-0.165,15.835c8.665-3.165,15.165-6.835,15.165-6.835   s20.5-11.83,24.665-15c4.17-3.165,6.5-4,7.835-2.165s-3.335,5.335-3.335,5.335l-14,10.165c0,0-20.274,11.815-37.274,17.194   c-24,7.621-55.486,8.695-64,8.25c-8.516-0.444-56.891-7.694-56.891-7.694s-20.875-2.875-27-5s-10-7.875,0.375-5.875   c2.75,0.5,6.125,0.75,6.125,0.75l-0.625-20.625c0,0-17.24-4.96-23.865-9.83c3.115-2.92,4.74-4.795,6.875-7.38   c13.365,6.96,28.74,9.96,28.74,9.96l-6.99,6.67c0,0,0.26,13.825,0.24,22.08c8.375,1.75,25.375,4,40.5,6.25   s44.891,4.694,44.891,4.694s-0.431-99.944-3.101-120.444c-2.726-20.975-16.97-53.945-22.165-60.835   c-5.195-6.885-14-14.83-20.734-18.35c-6.736-3.52-19.601-4.65-21.375-5.62c-1.775-0.97-2.891-1.86-3.226-3.86   c-0.33-2,0-3.5,1.67-4.335c1.665-0.835,40.33-3.165,42.5-1.665c2.165,1.5,1.806,25.48,1.806,25.48   c10.375-2.75,16.75-4.87,27.375-3.12l-0.516-26.36c0,0-71.335,0-74.165,3.83c-2.835,3.835,0.33,8.835,0.33,8.835   c-20.125,7.87-30.15,11.695-46.275,26.315c-8.75,8-13.375,13.5-18.375,24.38c-7.25,15.87-8.125,25.87-10.25,43.12l-3.25,67.63   c6.75,0,12.61,6.305,18.36,9.805s13.235,11.12,18.375,13.25c8.5,5.375,3.32,9.235-1.215,5.931   c-4.535-3.306-36.74-27.241-36.74-27.241s-16.39,10.95-19.53,16.254c-3.14,5.306,0,9.621,0,9.621   c9.875,9.879,18.875,11.379,31,18.5c7,4,10.75,6.879,16.375,12.5c12.625,12.5,19.25,20.5,34,30.129   c20.001,13,34.001,16.621,57.376,21.121c28.875,5.25,46,6.25,75.25,2.75c25-3.121,39.375-6.25,62.125-17.121   c11.375-5.5,17.875-9.129,26.875-18c6.875-6.629,10.25-11.75,13.25-20.879C778.65,271.582,778.65,265.332,775.775,256.082z    M766.52,282.187v0.101c0,0,0,0.225,0,0.899c-6.375,9.87-12.375,13.87-22.625,19.75c-18,10.37-29.25,14.75-49.5,19.37   c-29.5,6.63-47,6.75-77,4.75c-19.875-1.37-31.375-3.25-50-10.25c-27.375-10.5-60.375-40.5-62.5-42.12   c0-0.479-0.015-0.75-0.029-0.89c-0.2,0.82-0.065-0.506,0-0.01c0.039-0.15,0.09-0.375,0.149-0.701v-0.004   c0-0.006,0.005-0.016,0.005-0.025c0.04-0.03,0.08-0.064,0.12-0.09c0.035-0.025,0.07-0.055,0.115-0.09   c0.095-0.08,0.225-0.186,0.39-0.32h0.04c0.015-0.01,0.025-0.02,0.035-0.02c-0.005,0.004-0.01,0.01-0.021,0.02c0.61,0,0.82,0,0.82,0   l15.625,14.25c15.75,13.25,26.125,19.5,45.25,27c26.25,10.25,43,10.75,70.875,11.25c25.875,0.5,41-0.87,65.875-8.25   c19.25-5.87,30.5-10.25,47.125-21.87c6-4.13,9.125-7.25,13.25-13.25c0.395-0.075,0.645-0.14,0.795-0.2   c0.15,0.055,0.381,0.12,0.705,0.2c0.205,0.205,0.346,0.345,0.436,0.431c-1.36-1.466,0.505,0.475,0.06,0.06   C766.515,282.182,766.515,282.182,766.52,282.187z" /></g><g
     id="realestate"><path
       id="frame_6_"
       d="M366.929,4.842H22.554c-8.285,0-15,6.715-15,15v340.315c0,8.285,6.715,15,15,15h344.375   c8.285,0,15-6.715,15-15V19.842C381.929,11.557,375.214,4.842,366.929,4.842z M365.554,345.972c0,8.285-6.721,15-15,15H39.304   c-8.285,0-15-6.715-15-15v-310c0-8.285,6.715-15,15-15h311.25c8.279,0,15,6.715,15,15V345.972z" /><polygon
       id="addition_2_"
       points="147.302,64.844 104.179,40.594 33.429,81.221 62.802,81.221 62.802,98.844  " /><g
       id="main_house_2_"><g
         id="garage_2_"><rect
           x="62.804"
           y="106.342"
           fill="#FFFFFF"
           stroke="#000000"
           stroke-width="1.5"
           stroke-linejoin="round"
           width="45.625"
           height="20.13"
           id="rect168" /><rect
           x="66.804"
           y="110.342"
           width="37.625"
           height="12.13"
           id="rect170" /><rect
           x="62.804"
           y="146.722"
           fill="#FFFFFF"
           stroke="#000000"
           stroke-width="1.5"
           stroke-linejoin="round"
           width="45.625"
           height="15.62"
           id="rect172" /><rect
           x="66.804"
           y="150.722"
           width="37.625"
           height="7.62"
           id="rect174" /><rect
           x="66.804"
           y="150.722"
           width="37.625"
           height="7.62"
           id="rect176" /></g><g
         id="house_2_"><rect
           x="112.054"
           y="146.722"
           fill="#FFFFFF"
           stroke="#000000"
           stroke-width="1.5"
           stroke-linejoin="round"
           width="86.75"
           height="33.62"
           id="rect179" /><rect
           x="116.054"
           y="150.722"
           width="78.75"
           height="25.62"
           id="rect181" /><polygon
           fill="#FFFFFF"
           stroke="#000000"
           stroke-width="1.5"
           stroke-linejoin="round"
           points="352.554,102.722 303.304,102.722      303.304,180.342 234.179,180.342 234.179,113.657 216.554,93.092 198.804,113.722 198.804,126.472 112.054,126.472      112.054,102.722 62.679,102.722 207.929,44.722    "
           id="polygon183" /><polygon
           points="238.179,176.342 238.179,112.178 216.56,86.952 194.804,112.238 194.804,122.472 116.054,122.472      116.054,98.722 83.482,98.722 207.925,49.03 331.833,98.722 299.304,98.722 299.304,176.342    "
           id="polygon185" /></g></g><g
       id="grass_2_"><path
         id="R_blades_2_"
         d="M236.552,342.221c0,0,4.21-15.023,9.877-17.877c0,0-4.999,7.479-3.666,11.479    c0,0,4.666-12.333,14.333-12c0,0-12.333,4.667-9.667,12c0,0,3.667-8.333,10.667-4.666c0,0-8.667-1.667-11,11L236.552,342.221z" /><path
         id="L_blades_2_"
         d="M195.096,342.157c0,0,3.333-12.667-9-17c0,0,2.333,2.333,1,5c0,0-5-10.333-13.667-8    c0,0,12.334,4.667,9.334,14c0,0-2.666-11.334-11-5.667c0,0,6.667-3.667,10,11.333L195.096,342.157z" /></g><g
       id="sign_2_"><path
         stroke="#FFFFFF"
         stroke-width="0.5"
         d="M175.679,154.983c0,3.836-3.11,6.946-6.947,6.946l0,0    c-3.836,0-6.946-3.11-6.946-6.946v-0.689c0-3.836,3.11-6.946,6.946-6.946l0,0c3.837,0,6.947,3.11,6.947,6.946V154.983z"
         id="path192" /><polygon
         points="216.552,93.094 234.179,114.094 234.179,341.971 198.679,341.971 198.804,146.722 36.929,146.721 36.929,126.471     198.804,126.472 198.804,113.722   "
         id="polygon194" /><rect
         x="36.929"
         y="162.471"
         fill="#FFFFFF"
         stroke="#000000"
         width="147"
         height="92.354"
         id="rect196" /><rect
         x="38.929"
         y="164.471"
         width="143"
         height="88.354"
         id="rect198" /><path
         d="M54.179,154.675c0,3.836-3.11,6.946-6.946,6.946l0,0c-3.837,0-6.946-3.11-6.946-6.946v-0.689    c0-3.836,3.109-6.946,6.946-6.946l0,0c3.836,0,6.946,3.11,6.946,6.946V154.675z"
         id="path200" /></g><g
       id="text"><g
         id="sale"><path
           id="e"
           fill="#FFFFFF"
           d="M135.507,211.703h6.337v17.954h-6.337c-0.096,0-0.888-0.048-0.888-0.744     c0-0.336,0.216-0.552,0.527-0.648c0.841-0.264,0.816-0.408,0.816-1.296v-12.577c0-0.888,0.024-1.032-0.816-1.296     c-0.312-0.096-0.527-0.313-0.527-0.648C134.619,211.751,135.411,211.703,135.507,211.703z M142.924,211.703h5.353v4.873     c0,0.12-0.024,0.576-0.744,0.576c-0.408,0-0.528-0.24-0.648-0.601c-0.624-1.944-1.848-3.12-3.96-3.456V211.703z M142.924,219.72     c1.008-0.264,1.464-1.199,1.68-2.111c0.12-0.408,0.264-0.793,0.769-0.793c0.744,0,0.624,0.864,0.624,1.057v5.185     c0,0.191,0.12,1.056-0.624,1.056c-0.505,0-0.648-0.384-0.769-0.792c-0.216-0.912-0.672-1.848-1.68-2.112V219.72z      M142.924,228.265c1.943-0.24,3.432-1.56,4.08-3.48c0.168-0.359,0.312-0.744,0.744-0.744c0.768,0,0.696,0.721,0.696,0.816v4.801     h-5.521V228.265z" /><path
           id="l"
           fill="#FFFFFF"
           d="M123.988,229.657h-6.337c-0.096,0-0.888-0.048-0.888-0.744c0-0.336,0.216-0.552,0.527-0.648     c0.84-0.264,0.816-0.408,0.816-1.296v-12.577c0-0.888,0.023-1.032-0.816-1.296c-0.312-0.096-0.527-0.313-0.527-0.648     c0-0.696,0.792-0.744,0.888-0.744h6.793c0.096,0,0.888,0.048,0.888,0.744c0,0.336-0.216,0.553-0.528,0.648     c-0.84,0.264-0.815,0.408-0.815,1.296V229.657z M125.068,228.265c1.943-0.264,3.048-1.944,3.552-4.176     c0.12-0.528,0.408-0.673,0.912-0.673c0.552,0,0.601,0.456,0.601,0.912v5.329h-5.064V228.265z" /><path
           id="a"
           fill="#FFFFFF"
           d="M101.452,217.776l-2.257,8.208c-0.384,1.465-0.048,1.872,0.769,2.232     c0.384,0.168,0.72,0.313,0.72,0.792c0,0.672-0.768,0.648-1.248,0.648h-2.76c-0.48,0-1.345-0.024-1.345-0.721     c0-0.575,0.408-0.552,0.937-0.815c0.504-0.265,1.152-0.816,1.608-2.521l2.88-10.537h0.072L101.452,217.776z M104.021,225.001     h-3.505l0.336-1.393h2.929L101.355,213l0.313-1.297h5.305l3.6,15.17c0.145,0.672,0.168,1.128,0.841,1.416     c0.336,0.144,0.6,0.312,0.6,0.744c0,0.647-0.864,0.624-1.32,0.624h-5.977c-0.479,0-1.176-0.048-1.176-0.672     c0-0.385,0.144-0.505,0.456-0.673c0.624-0.359,0.72-0.527,0.504-1.464L104.021,225.001z" /><path
           id="s"
           fill="#FFFFFF"
           d="M83.932,212.735c-0.912,0.313-1.704,0.984-1.704,1.969c0,1.176,0.648,1.896,3.505,3     c4.248,1.632,5.208,3.889,5.208,6.097c0,3.72-3.096,6.145-6.648,6.216v-1.392c1.152-0.36,2.137-0.888,2.185-2.208     c0.048-1.513-1.729-2.137-2.881-2.641c-3.024-1.272-5.832-2.64-5.832-6.408c0-3.648,2.64-5.904,6.168-6.024V212.735z      M77.764,224.28c0-0.504,0.096-1.176,0.768-1.176c0.48,0,0.816,0.384,0.889,0.792c0.336,1.92,1.68,4.296,3.792,4.729v1.392     c-2.088-0.048-2.544-0.888-3.408-0.888c-0.769,0-0.696,0.792-1.296,0.792c-0.744,0-0.744-0.888-0.744-1.008V224.28z      M90.293,216.528c0,0.552-0.097,1.151-0.792,1.151c-0.576,0-0.793-0.456-0.864-0.936c-0.265-1.776-1.752-3.601-3.625-4.009     v-1.392c1.513,0.023,3.121,0.936,3.385,0.936c0.624,0,0.576-0.864,1.2-0.864c0.744,0,0.696,0.816,0.696,1.009V216.528z" /></g><g
         id="for"><path
           id="r"
           fill="#FFFFFF"
           d="M123.964,186.892c0-0.888,0.024-1.032-0.816-1.296c-0.312-0.096-0.527-0.313-0.527-0.648     c0-0.696,0.792-0.744,0.888-0.744h6.337v15.266c0,0.889-0.024,1.032,0.815,1.296c0.313,0.097,0.528,0.313,0.528,0.648     c0,0.696-0.792,0.744-0.888,0.744h-6.793c-0.096,0-0.888-0.048-0.888-0.744c0-0.336,0.216-0.552,0.527-0.648     c0.841-0.264,0.816-0.407,0.816-1.296V186.892z M130.925,184.203h0.12c1.56,0,3.191-0.048,4.632,0.648     c1.608,0.792,2.425,2.112,2.448,3.937c0.048,2.76-1.776,3.96-4.225,4.536v0.048c2.137,0.313,4.177,0.937,4.225,3.48v2.112     c0,0.216-0.072,0.696,0.24,0.696c0.384,0,0.456-0.696,1.032-0.696c0.312,0,0.696,0.36,0.696,0.696     c0,0.696-0.793,1.584-1.32,1.992c-0.816,0.672-1.681,0.864-2.713,0.864c-1.031,0-1.968-0.265-2.712-1.009     c-0.84-0.864-0.96-1.92-0.96-3.048v-1.632c0-1.104-0.024-2.448-1.464-2.592v-1.416c1.296-0.12,1.464-0.912,1.464-2.088v-2.904     c0-1.2-0.264-1.776-1.464-2.208V184.203z" /><path
           id="o"
           fill="#FFFFFF"
           d="M110.309,185.235c-1.128,0.408-1.225,1.128-1.225,1.729v12.433c0,0.601,0.097,1.32,1.225,1.729     v1.393c-5.089-0.456-7.465-4.561-7.465-9.337s2.376-8.88,7.465-9.336V185.235z M111.389,201.125     c1.128-0.408,1.224-1.128,1.224-1.729v-12.433c0-0.601-0.096-1.32-1.224-1.729v-1.392c5.088,0.456,7.465,4.56,7.465,9.336     s-2.377,8.881-7.465,9.337V201.125z" /><path
           id="f"
           fill="#FFFFFF"
           d="M87.46,186.892c0-0.888,0.024-1.032-0.816-1.296c-0.312-0.096-0.527-0.313-0.527-0.648     c0-0.696,0.792-0.744,0.888-0.744h6.337v15.266c0,0.889-0.024,1.032,0.816,1.296c0.312,0.097,0.527,0.313,0.527,0.648     c0,0.696-0.792,0.744-0.888,0.744h-6.793c-0.096,0-0.888-0.048-0.888-0.744c0-0.336,0.216-0.552,0.527-0.648     c0.841-0.264,0.816-0.407,0.816-1.296V186.892z M94.421,184.203h5.353v4.873c0,0.12-0.024,0.576-0.744,0.576     c-0.408,0-0.528-0.24-0.648-0.6c-0.624-1.944-1.848-3.12-3.96-3.456V184.203z M94.421,192.22c1.008-0.264,1.464-1.2,1.68-2.112     c0.12-0.408,0.265-0.792,0.769-0.792c0.744,0,0.624,0.864,0.624,1.056v5.185c0,0.192,0.12,1.056-0.624,1.056     c-0.504,0-0.648-0.384-0.769-0.792c-0.216-0.912-0.672-1.848-1.68-2.112V192.22z" /></g></g></g><g
     id="titles"><g
       id="g234"><path
         d="M73.87,424.029V439h-7.734v-38.906h11.719c2.597,0,4.824,0.278,6.68,0.835c1.855,0.557,3.374,1.333,4.556,2.329    c1.182,0.996,2.046,2.188,2.593,3.574c0.546,1.387,0.82,2.911,0.82,4.57c0,1.27-0.176,2.476-0.527,3.618s-0.864,2.188-1.538,3.135    c-0.674,0.948-1.499,1.787-2.476,2.52c-0.977,0.732-2.1,1.323-3.369,1.772c0.488,0.274,0.947,0.601,1.377,0.981    c0.429,0.381,0.83,0.845,1.201,1.392L95.872,439h-6.943c-1.23,0-2.178-0.517-2.842-1.553l-7.09-12.129    c-0.293-0.469-0.62-0.801-0.981-0.996c-0.362-0.195-0.875-0.293-1.538-0.293H73.87z M73.87,418.551h3.926    c1.25,0,2.329-0.166,3.237-0.498c0.908-0.332,1.655-0.791,2.241-1.377s1.021-1.284,1.304-2.095    c0.283-0.81,0.425-1.694,0.425-2.651c0-1.894-0.586-3.354-1.758-4.38s-2.969-1.538-5.391-1.538H73.87V418.551z"
         id="path214" /><path
         d="M111.37,409.439c1.835,0,3.525,0.298,5.068,0.894c1.542,0.596,2.871,1.455,3.984,2.578    c1.113,1.124,1.982,2.505,2.607,4.146c0.625,1.641,0.938,3.516,0.938,5.625c0,0.567-0.029,1.03-0.088,1.392    c-0.059,0.362-0.151,0.649-0.278,0.864c-0.127,0.215-0.303,0.366-0.527,0.454c-0.225,0.088-0.503,0.132-0.835,0.132h-17.402    c0.117,1.406,0.371,2.627,0.762,3.662c0.391,1.036,0.908,1.885,1.553,2.549c0.645,0.664,1.406,1.157,2.285,1.479    s1.855,0.483,2.93,0.483c1.074,0,2.007-0.132,2.798-0.396s1.484-0.546,2.08-0.85c0.596-0.303,1.128-0.586,1.597-0.85    s0.927-0.396,1.377-0.396c0.546,0,0.996,0.225,1.348,0.674l2.139,2.754c-0.801,0.938-1.689,1.714-2.666,2.329    c-0.977,0.615-1.988,1.104-3.032,1.465c-1.045,0.362-2.105,0.62-3.179,0.776c-1.074,0.156-2.109,0.234-3.105,0.234    c-2.012,0-3.887-0.333-5.625-0.996c-1.739-0.664-3.252-1.655-4.541-2.974s-2.3-2.949-3.032-4.893    c-0.732-1.943-1.099-4.194-1.099-6.753c0-1.973,0.322-3.833,0.967-5.581c0.645-1.748,1.567-3.271,2.769-4.57    c1.201-1.299,2.661-2.329,4.38-3.091C107.258,409.82,109.202,409.439,111.37,409.439z M111.517,414.742    c-1.895,0-3.379,0.552-4.453,1.655c-1.074,1.104-1.768,2.662-2.08,4.673h12.305c0-0.839-0.113-1.641-0.337-2.402    c-0.225-0.762-0.576-1.436-1.055-2.021c-0.479-0.586-1.08-1.05-1.802-1.392C113.372,414.914,112.513,414.742,111.517,414.742z"
         id="path216" /><path
         d="M148.899,439c-0.703,0-1.241-0.103-1.611-0.308c-0.371-0.205-0.664-0.62-0.879-1.245l-0.645-1.934    c-0.743,0.645-1.455,1.211-2.139,1.699c-0.684,0.488-1.392,0.898-2.124,1.23c-0.732,0.333-1.514,0.581-2.344,0.747    c-0.831,0.166-1.753,0.249-2.769,0.249c-1.25,0-2.393-0.171-3.428-0.513c-1.036-0.341-1.929-0.845-2.681-1.509    c-0.752-0.664-1.333-1.489-1.743-2.476c-0.41-0.986-0.615-2.124-0.615-3.413c0-1.074,0.273-2.148,0.82-3.223    c0.546-1.074,1.479-2.046,2.798-2.915c1.318-0.869,3.076-1.592,5.273-2.168c2.197-0.576,4.937-0.903,8.218-0.981v-1.553    c0-1.875-0.391-3.252-1.172-4.131c-0.781-0.879-1.904-1.318-3.369-1.318c-1.094,0-1.997,0.127-2.71,0.381    c-0.713,0.254-1.343,0.532-1.89,0.835c-0.547,0.303-1.055,0.582-1.523,0.835c-0.469,0.254-0.996,0.381-1.582,0.381    c-0.508,0-0.942-0.132-1.304-0.396c-0.362-0.264-0.649-0.581-0.864-0.952l-1.348-2.344c1.68-1.563,3.535-2.725,5.566-3.486    c2.031-0.762,4.229-1.143,6.592-1.143c1.699,0,3.223,0.278,4.57,0.835s2.49,1.338,3.428,2.344c0.938,1.006,1.65,2.202,2.139,3.589    c0.488,1.387,0.732,2.911,0.732,4.57V439H148.899z M138.704,434.371c1.328,0,2.476-0.239,3.442-0.718    c0.967-0.479,1.929-1.216,2.886-2.212v-4.688c-1.934,0.078-3.541,0.239-4.819,0.483c-1.279,0.245-2.3,0.557-3.062,0.938    s-1.304,0.825-1.626,1.333c-0.322,0.508-0.483,1.055-0.483,1.641c0,1.172,0.327,2.002,0.981,2.49    C136.678,434.127,137.571,434.371,138.704,434.371z"
         id="path218" /><path
         d="M166.507,396.9V439h-7.441v-42.1H166.507z"
         id="path220" /><path
         d="M185.931,409.439c1.835,0,3.525,0.298,5.068,0.894c1.542,0.596,2.871,1.455,3.984,2.578    c1.113,1.124,1.982,2.505,2.607,4.146c0.625,1.641,0.938,3.516,0.938,5.625c0,0.567-0.029,1.03-0.088,1.392    c-0.059,0.362-0.151,0.649-0.278,0.864c-0.127,0.215-0.303,0.366-0.527,0.454c-0.225,0.088-0.503,0.132-0.835,0.132h-17.402    c0.117,1.406,0.371,2.627,0.762,3.662c0.391,1.036,0.908,1.885,1.553,2.549c0.645,0.664,1.406,1.157,2.285,1.479    s1.855,0.483,2.93,0.483c1.074,0,2.007-0.132,2.798-0.396s1.484-0.546,2.08-0.85c0.596-0.303,1.128-0.586,1.597-0.85    s0.927-0.396,1.377-0.396c0.546,0,0.996,0.225,1.348,0.674l2.139,2.754c-0.801,0.938-1.689,1.714-2.666,2.329    c-0.977,0.615-1.988,1.104-3.032,1.465c-1.045,0.362-2.105,0.62-3.179,0.776c-1.074,0.156-2.109,0.234-3.105,0.234    c-2.012,0-3.887-0.333-5.625-0.996c-1.739-0.664-3.252-1.655-4.541-2.974s-2.3-2.949-3.032-4.893    c-0.732-1.943-1.099-4.194-1.099-6.753c0-1.973,0.322-3.833,0.967-5.581c0.645-1.748,1.567-3.271,2.769-4.57    c1.201-1.299,2.661-2.329,4.38-3.091C181.819,409.82,183.763,409.439,185.931,409.439z M186.077,414.742    c-1.895,0-3.379,0.552-4.453,1.655c-1.074,1.104-1.768,2.662-2.08,4.673h12.305c0-0.839-0.113-1.641-0.337-2.402    c-0.225-0.762-0.576-1.436-1.055-2.021c-0.479-0.586-1.08-1.05-1.802-1.392C187.933,414.914,187.073,414.742,186.077,414.742z"
         id="path222" /><path
         d="M220.853,415.768c-0.195,0.333-0.406,0.562-0.63,0.688c-0.225,0.127-0.503,0.19-0.835,0.19    c-0.352,0-0.718-0.092-1.099-0.278c-0.381-0.186-0.801-0.391-1.26-0.615c-0.459-0.224-0.981-0.429-1.567-0.615    c-0.586-0.186-1.26-0.278-2.021-0.278c-1.172,0-2.08,0.269-2.725,0.806c-0.645,0.538-0.967,1.255-0.967,2.153    c0,0.605,0.186,1.109,0.557,1.509c0.371,0.4,0.864,0.752,1.479,1.055c0.615,0.303,1.308,0.582,2.08,0.835    c0.771,0.254,1.567,0.527,2.388,0.82s1.616,0.64,2.388,1.04c0.771,0.4,1.465,0.894,2.08,1.479s1.108,1.299,1.479,2.139    c0.371,0.84,0.557,1.846,0.557,3.018c0,1.406-0.245,2.706-0.732,3.896c-0.488,1.191-1.206,2.217-2.153,3.076    c-0.948,0.86-2.12,1.534-3.516,2.021c-1.396,0.488-3.013,0.732-4.849,0.732c-0.938,0-1.865-0.088-2.783-0.264    c-0.918-0.176-1.797-0.425-2.637-0.747c-0.84-0.322-1.626-0.698-2.358-1.128c-0.732-0.429-1.362-0.898-1.89-1.406l1.729-2.813    c0.215-0.332,0.469-0.596,0.762-0.791c0.293-0.195,0.674-0.293,1.143-0.293c0.429,0,0.835,0.117,1.216,0.352    s0.795,0.494,1.245,0.776c0.449,0.283,0.986,0.542,1.611,0.776c0.625,0.234,1.406,0.352,2.344,0.352    c0.703,0,1.304-0.088,1.802-0.264s0.898-0.415,1.201-0.718c0.303-0.303,0.527-0.649,0.674-1.04c0.146-0.391,0.22-0.791,0.22-1.201    c0-0.859-0.322-1.528-0.967-2.007c-0.645-0.479-1.455-0.894-2.432-1.245c-0.977-0.352-2.026-0.713-3.149-1.084    c-1.124-0.371-2.173-0.879-3.149-1.523c-0.977-0.645-1.787-1.494-2.432-2.549s-0.967-2.451-0.967-4.189    c0-1.211,0.224-2.358,0.674-3.442c0.449-1.084,1.118-2.036,2.007-2.856c0.889-0.82,1.992-1.475,3.311-1.963    c1.318-0.488,2.856-0.732,4.614-0.732c0.957,0,1.885,0.088,2.783,0.264c0.898,0.176,1.743,0.425,2.534,0.747    s1.513,0.708,2.168,1.157c0.654,0.45,1.235,0.938,1.743,1.465L220.853,415.768z"
         id="path224" /><path
         d="M236.028,439.439c-2.52,0-4.453-0.728-5.801-2.183c-1.348-1.455-2.021-3.452-2.021-5.991v-15.879h-2.637    c-0.391,0-0.723-0.132-0.996-0.396c-0.274-0.264-0.41-0.649-0.41-1.157v-2.959l4.424-0.85l1.553-7.676    c0.176-0.801,0.722-1.201,1.641-1.201h3.867v8.965h7.178v5.273h-7.178v15.381c0,0.86,0.186,1.528,0.557,2.007    c0.371,0.479,0.898,0.718,1.582,0.718c0.371,0,0.678-0.044,0.923-0.132c0.244-0.088,0.454-0.19,0.63-0.308s0.337-0.22,0.483-0.308    s0.308-0.132,0.483-0.132c0.215,0,0.391,0.054,0.527,0.161c0.136,0.107,0.283,0.278,0.439,0.513l2.256,3.604    c-1.016,0.84-2.173,1.475-3.472,1.904C238.757,439.224,237.415,439.439,236.028,439.439z"
         id="path226" /><path
         d="M266.937,439c-0.703,0-1.241-0.103-1.611-0.308c-0.371-0.205-0.664-0.62-0.879-1.245l-0.645-1.934    c-0.743,0.645-1.455,1.211-2.139,1.699c-0.684,0.488-1.392,0.898-2.124,1.23c-0.732,0.333-1.514,0.581-2.344,0.747    c-0.831,0.166-1.753,0.249-2.769,0.249c-1.25,0-2.393-0.171-3.428-0.513c-1.036-0.341-1.929-0.845-2.681-1.509    c-0.752-0.664-1.333-1.489-1.743-2.476c-0.41-0.986-0.615-2.124-0.615-3.413c0-1.074,0.273-2.148,0.82-3.223    c0.546-1.074,1.479-2.046,2.798-2.915c1.318-0.869,3.076-1.592,5.273-2.168c2.197-0.576,4.937-0.903,8.218-0.981v-1.553    c0-1.875-0.391-3.252-1.172-4.131c-0.781-0.879-1.904-1.318-3.369-1.318c-1.094,0-1.997,0.127-2.71,0.381    c-0.713,0.254-1.343,0.532-1.89,0.835c-0.547,0.303-1.055,0.582-1.523,0.835c-0.469,0.254-0.996,0.381-1.582,0.381    c-0.508,0-0.942-0.132-1.304-0.396c-0.362-0.264-0.649-0.581-0.864-0.952l-1.348-2.344c1.68-1.563,3.535-2.725,5.566-3.486    c2.031-0.762,4.229-1.143,6.592-1.143c1.699,0,3.223,0.278,4.57,0.835s2.49,1.338,3.428,2.344c0.938,1.006,1.65,2.202,2.139,3.589    c0.488,1.387,0.732,2.911,0.732,4.57V439H266.937z M256.741,434.371c1.328,0,2.476-0.239,3.442-0.718    c0.967-0.479,1.929-1.216,2.886-2.212v-4.688c-1.934,0.078-3.541,0.239-4.819,0.483c-1.279,0.245-2.3,0.557-3.062,0.938    s-1.304,0.825-1.626,1.333c-0.322,0.508-0.483,1.055-0.483,1.641c0,1.172,0.327,2.002,0.981,2.49    C254.715,434.127,255.608,434.371,256.741,434.371z"
         id="path228" /><path
         d="M285.306,439.439c-2.52,0-4.453-0.728-5.801-2.183c-1.348-1.455-2.021-3.452-2.021-5.991v-15.879h-2.637    c-0.391,0-0.723-0.132-0.996-0.396c-0.274-0.264-0.41-0.649-0.41-1.157v-2.959l4.424-0.85l1.553-7.676    c0.176-0.801,0.722-1.201,1.641-1.201h3.867v8.965h7.178v5.273h-7.178v15.381c0,0.86,0.186,1.528,0.557,2.007    c0.371,0.479,0.898,0.718,1.582,0.718c0.371,0,0.678-0.044,0.923-0.132c0.244-0.088,0.454-0.19,0.63-0.308s0.337-0.22,0.483-0.308    s0.308-0.132,0.483-0.132c0.215,0,0.391,0.054,0.527,0.161c0.136,0.107,0.283,0.278,0.439,0.513l2.256,3.604    c-1.016,0.84-2.173,1.475-3.472,1.904C288.035,439.224,286.692,439.439,285.306,439.439z"
         id="path230" /><path
         d="M308.743,409.439c1.835,0,3.525,0.298,5.068,0.894c1.542,0.596,2.871,1.455,3.984,2.578    c1.113,1.124,1.982,2.505,2.607,4.146c0.625,1.641,0.938,3.516,0.938,5.625c0,0.567-0.029,1.03-0.088,1.392    c-0.059,0.362-0.151,0.649-0.278,0.864c-0.127,0.215-0.303,0.366-0.527,0.454c-0.225,0.088-0.503,0.132-0.835,0.132H302.21    c0.117,1.406,0.371,2.627,0.762,3.662c0.391,1.036,0.908,1.885,1.553,2.549c0.645,0.664,1.406,1.157,2.285,1.479    s1.855,0.483,2.93,0.483c1.074,0,2.007-0.132,2.798-0.396s1.484-0.546,2.08-0.85c0.596-0.303,1.128-0.586,1.597-0.85    s0.927-0.396,1.377-0.396c0.546,0,0.996,0.225,1.348,0.674l2.139,2.754c-0.801,0.938-1.689,1.714-2.666,2.329    c-0.977,0.615-1.988,1.104-3.032,1.465c-1.045,0.362-2.105,0.62-3.179,0.776c-1.074,0.156-2.109,0.234-3.105,0.234    c-2.012,0-3.887-0.333-5.625-0.996c-1.739-0.664-3.252-1.655-4.541-2.974s-2.3-2.949-3.032-4.893    c-0.732-1.943-1.099-4.194-1.099-6.753c0-1.973,0.322-3.833,0.967-5.581c0.645-1.748,1.567-3.271,2.769-4.57    c1.201-1.299,2.661-2.329,4.38-3.091C304.631,409.82,306.575,409.439,308.743,409.439z M308.89,414.742    c-1.895,0-3.379,0.552-4.453,1.655c-1.074,1.104-1.768,2.662-2.08,4.673h12.305c0-0.839-0.113-1.641-0.337-2.402    c-0.225-0.762-0.576-1.436-1.055-2.021c-0.479-0.586-1.08-1.05-1.802-1.392C310.745,414.914,309.886,414.742,308.89,414.742z"
         id="path232" /></g><g
       id="g258"><path
         d="M487.044,429.566c0.41,0,0.762,0.157,1.055,0.469l3.076,3.311c-1.406,1.973-3.169,3.477-5.288,4.512    c-2.119,1.036-4.634,1.553-7.544,1.553c-2.637,0-5.01-0.493-7.119-1.479c-2.109-0.986-3.901-2.363-5.376-4.131    c-1.475-1.768-2.607-3.867-3.398-6.299s-1.187-5.093-1.187-7.983c0-2.91,0.425-5.581,1.274-8.013s2.046-4.526,3.589-6.284    s3.389-3.125,5.537-4.102c2.148-0.977,4.512-1.465,7.09-1.465c2.617,0,4.932,0.464,6.943,1.392    c2.012,0.928,3.691,2.153,5.039,3.677l-2.578,3.604c-0.176,0.215-0.376,0.41-0.601,0.586s-0.542,0.264-0.952,0.264    s-0.806-0.156-1.187-0.469c-0.381-0.312-0.85-0.654-1.406-1.025c-0.557-0.371-1.255-0.713-2.095-1.025    c-0.84-0.312-1.914-0.469-3.223-0.469c-1.426,0-2.725,0.298-3.896,0.894c-1.172,0.596-2.178,1.465-3.018,2.607    s-1.489,2.539-1.948,4.189c-0.459,1.651-0.688,3.53-0.688,5.64c0,2.129,0.254,4.024,0.762,5.684    c0.508,1.66,1.196,3.062,2.065,4.204s1.89,2.012,3.062,2.607c1.172,0.596,2.432,0.894,3.779,0.894    c0.801,0,1.523-0.044,2.168-0.132s1.245-0.244,1.802-0.469c0.557-0.224,1.079-0.513,1.567-0.864s0.977-0.791,1.465-1.318    c0.195-0.156,0.396-0.288,0.601-0.396C486.619,429.621,486.829,429.566,487.044,429.566z"
         id="path236" /><path
         d="M507.962,409.439c2.129,0,4.072,0.347,5.83,1.04c1.758,0.693,3.262,1.689,4.512,2.988c1.25,1.299,2.217,2.871,2.9,4.717    s1.025,3.911,1.025,6.196c0,2.325-0.342,4.414-1.025,6.27c-0.684,1.856-1.65,3.433-2.9,4.731c-1.25,1.299-2.754,2.3-4.512,3.003    s-3.701,1.055-5.83,1.055c-2.148,0-4.106-0.352-5.874-1.055s-3.281-1.704-4.541-3.003c-1.26-1.299-2.231-2.875-2.915-4.731    c-0.684-1.855-1.025-3.945-1.025-6.27c0-2.285,0.342-4.351,1.025-6.196s1.655-3.417,2.915-4.717    c1.26-1.299,2.773-2.295,4.541-2.988C503.855,409.787,505.813,409.439,507.962,409.439z M507.962,433.756    c2.246,0,3.906-0.786,4.98-2.358c1.074-1.572,1.611-3.892,1.611-6.958c0-3.066-0.537-5.386-1.611-6.958    c-1.074-1.572-2.734-2.358-4.98-2.358c-2.285,0-3.97,0.787-5.054,2.358c-1.084,1.572-1.626,3.892-1.626,6.958    c0,3.066,0.542,5.386,1.626,6.958C503.992,432.97,505.677,433.756,507.962,433.756z"
         id="path238" /><path
         d="M527.679,439v-29.092h4.57c0.469,0,0.864,0.107,1.187,0.322c0.322,0.215,0.532,0.547,0.63,0.996l0.498,2.139    c0.586-0.586,1.191-1.118,1.816-1.597c0.625-0.479,1.299-0.889,2.021-1.23c0.723-0.341,1.489-0.61,2.3-0.806    c0.811-0.195,1.704-0.293,2.681-0.293c1.582,0,2.979,0.274,4.189,0.82c1.211,0.547,2.227,1.309,3.047,2.285    c0.82,0.977,1.44,2.144,1.86,3.501c0.42,1.358,0.63,2.837,0.63,4.438V439h-7.441v-18.516c0-1.66-0.381-2.949-1.143-3.867    c-0.762-0.918-1.904-1.377-3.428-1.377c-1.133,0-2.192,0.245-3.179,0.732c-0.986,0.488-1.919,1.172-2.798,2.051V439H527.679z"
         id="path240" /><path
         d="M576.751,415.768c-0.195,0.333-0.405,0.562-0.63,0.688c-0.225,0.127-0.503,0.19-0.835,0.19    c-0.352,0-0.718-0.092-1.099-0.278c-0.381-0.186-0.801-0.391-1.26-0.615c-0.459-0.224-0.981-0.429-1.567-0.615    c-0.586-0.186-1.26-0.278-2.021-0.278c-1.172,0-2.08,0.269-2.725,0.806c-0.645,0.538-0.967,1.255-0.967,2.153    c0,0.605,0.186,1.109,0.557,1.509c0.371,0.4,0.864,0.752,1.479,1.055c0.615,0.303,1.309,0.582,2.08,0.835    c0.771,0.254,1.567,0.527,2.388,0.82s1.616,0.64,2.388,1.04c0.771,0.4,1.465,0.894,2.08,1.479s1.108,1.299,1.479,2.139    c0.371,0.84,0.557,1.846,0.557,3.018c0,1.406-0.244,2.706-0.732,3.896c-0.488,1.191-1.206,2.217-2.153,3.076    c-0.947,0.86-2.119,1.534-3.516,2.021s-3.013,0.732-4.849,0.732c-0.938,0-1.865-0.088-2.783-0.264s-1.797-0.425-2.637-0.747    s-1.626-0.698-2.358-1.128c-0.732-0.429-1.362-0.898-1.89-1.406l1.729-2.813c0.215-0.332,0.469-0.596,0.762-0.791    c0.293-0.195,0.674-0.293,1.143-0.293c0.43,0,0.835,0.117,1.216,0.352s0.796,0.494,1.245,0.776    c0.449,0.283,0.986,0.542,1.611,0.776s1.406,0.352,2.344,0.352c0.703,0,1.304-0.088,1.802-0.264s0.898-0.415,1.201-0.718    c0.303-0.303,0.527-0.649,0.674-1.04c0.146-0.391,0.22-0.791,0.22-1.201c0-0.859-0.322-1.528-0.967-2.007    c-0.645-0.479-1.455-0.894-2.432-1.245s-2.026-0.713-3.149-1.084c-1.123-0.371-2.173-0.879-3.149-1.523s-1.787-1.494-2.432-2.549    s-0.967-2.451-0.967-4.189c0-1.211,0.225-2.358,0.674-3.442s1.118-2.036,2.007-2.856s1.992-1.475,3.311-1.963    c1.318-0.488,2.856-0.732,4.614-0.732c0.957,0,1.885,0.088,2.783,0.264s1.743,0.425,2.534,0.747s1.514,0.708,2.168,1.157    c0.654,0.45,1.235,0.938,1.743,1.465L576.751,415.768z"
         id="path242" /><path
         d="M591.927,439.439c-2.52,0-4.453-0.728-5.801-2.183c-1.348-1.455-2.021-3.452-2.021-5.991v-15.879h-2.637    c-0.391,0-0.723-0.132-0.996-0.396s-0.41-0.649-0.41-1.157v-2.959l4.424-0.85l1.553-7.676c0.176-0.801,0.723-1.201,1.641-1.201    h3.867v8.965h7.178v5.273h-7.178v15.381c0,0.86,0.186,1.528,0.557,2.007c0.371,0.479,0.898,0.718,1.582,0.718    c0.371,0,0.679-0.044,0.923-0.132s0.454-0.19,0.63-0.308s0.337-0.22,0.483-0.308s0.308-0.132,0.483-0.132    c0.215,0,0.391,0.054,0.527,0.161c0.137,0.107,0.283,0.278,0.439,0.513l2.256,3.604c-1.016,0.84-2.173,1.475-3.472,1.904    S593.313,439.439,591.927,439.439z"
         id="path244" /><path
         d="M603.528,439v-29.092h4.365c0.762,0,1.294,0.137,1.597,0.41c0.303,0.274,0.503,0.752,0.601,1.436l0.381,2.959    c0.879-1.66,1.904-2.969,3.076-3.926c1.172-0.957,2.529-1.436,4.072-1.436c1.27,0,2.314,0.303,3.135,0.908l-0.557,5.566    c-0.039,0.352-0.156,0.601-0.352,0.747s-0.459,0.22-0.791,0.22c-0.293,0-0.713-0.044-1.26-0.132s-1.055-0.132-1.523-0.132    c-0.684,0-1.294,0.098-1.831,0.293c-0.537,0.195-1.016,0.483-1.436,0.864s-0.796,0.845-1.128,1.392    c-0.332,0.547-0.635,1.172-0.908,1.875V439H603.528z"
         id="path246" /><path
         d="M632.21,409.908v18.486c0,1.68,0.381,2.979,1.143,3.896c0.762,0.918,1.904,1.377,3.428,1.377    c1.113,0,2.168-0.249,3.164-0.747s1.934-1.176,2.813-2.036v-20.977h7.441V439h-4.57c-0.469,0-0.864-0.112-1.187-0.337    c-0.322-0.224-0.532-0.561-0.63-1.011l-0.527-2.109c-1.152,1.153-2.427,2.09-3.823,2.813s-3.052,1.084-4.966,1.084    c-1.582,0-2.979-0.274-4.189-0.82s-2.227-1.308-3.047-2.285c-0.82-0.977-1.44-2.139-1.86-3.486s-0.63-2.832-0.63-4.453v-18.486    H632.21z"
         id="path248" /><path
         d="M676.126,416.266c-0.215,0.274-0.43,0.494-0.645,0.659c-0.215,0.166-0.518,0.249-0.908,0.249    c-0.371,0-0.713-0.107-1.025-0.322c-0.313-0.215-0.669-0.454-1.069-0.718s-0.869-0.502-1.406-0.718    c-0.537-0.215-1.216-0.322-2.036-0.322c-1.016,0-1.899,0.215-2.651,0.645c-0.752,0.43-1.372,1.045-1.86,1.846    c-0.488,0.801-0.854,1.777-1.099,2.93c-0.244,1.153-0.366,2.442-0.366,3.867c0,3.028,0.518,5.357,1.553,6.987    c1.035,1.631,2.461,2.446,4.277,2.446c0.957,0,1.719-0.136,2.285-0.41c0.566-0.273,1.045-0.571,1.436-0.894    s0.747-0.62,1.069-0.894c0.322-0.273,0.708-0.41,1.157-0.41c0.566,0,1.006,0.225,1.318,0.674l2.168,2.754    c-0.781,0.938-1.611,1.714-2.49,2.329s-1.782,1.109-2.71,1.479c-0.928,0.371-1.865,0.63-2.813,0.776s-1.88,0.22-2.798,0.22    c-1.641,0-3.188-0.337-4.644-1.011s-2.734-1.655-3.838-2.944s-1.978-2.866-2.622-4.731c-0.645-1.865-0.967-3.989-0.967-6.372    c0-2.128,0.283-4.102,0.85-5.918s1.401-3.394,2.505-4.731c1.104-1.337,2.471-2.388,4.102-3.149s3.521-1.143,5.669-1.143    c2.031,0,3.818,0.356,5.361,1.069c1.543,0.713,2.93,1.743,4.16,3.091L676.126,416.266z"
         id="path250" /><path
         d="M710.55,410.113V439h-7.441v-23.613h-12.188v15.381c0,0.86,0.181,1.528,0.542,2.007c0.361,0.479,0.884,0.718,1.567,0.718    c0.352,0,0.649-0.044,0.894-0.132s0.454-0.19,0.63-0.308s0.337-0.22,0.483-0.308s0.308-0.132,0.483-0.132    c0.215,0,0.391,0.054,0.527,0.161c0.137,0.107,0.283,0.278,0.439,0.513l2.256,3.604c-1.016,0.84-2.168,1.475-3.457,1.904    s-2.627,0.645-4.014,0.645c-1.25,0-2.358-0.19-3.325-0.571s-1.782-0.923-2.446-1.626s-1.167-1.557-1.509-2.563    c-0.342-1.006-0.513-2.143-0.513-3.413v-15.879h-2.578c-0.391,0-0.728-0.132-1.011-0.396s-0.425-0.649-0.425-1.157v-2.959    l4.395-0.82l1.553-7.705c0.176-0.801,0.723-1.201,1.641-1.201h3.867v8.965H710.55z M711.78,401.471    c0,0.645-0.127,1.245-0.381,1.802s-0.596,1.045-1.025,1.465c-0.43,0.42-0.938,0.752-1.523,0.996    c-0.586,0.245-1.201,0.366-1.846,0.366c-0.625,0-1.216-0.122-1.772-0.366c-0.557-0.244-1.045-0.576-1.465-0.996    c-0.42-0.42-0.752-0.908-0.996-1.465s-0.366-1.157-0.366-1.802s0.122-1.25,0.366-1.816c0.244-0.566,0.576-1.059,0.996-1.479    c0.42-0.42,0.908-0.751,1.465-0.996c0.557-0.244,1.147-0.366,1.772-0.366c0.645,0,1.26,0.122,1.846,0.366    c0.586,0.245,1.094,0.576,1.523,0.996c0.43,0.42,0.771,0.913,1.025,1.479C711.653,400.221,711.78,400.826,711.78,401.471z"
         id="path252" /><path
         d="M730.237,409.439c2.129,0,4.072,0.347,5.83,1.04c1.758,0.693,3.262,1.689,4.512,2.988c1.25,1.299,2.217,2.871,2.9,4.717    s1.025,3.911,1.025,6.196c0,2.325-0.342,4.414-1.025,6.27c-0.684,1.856-1.65,3.433-2.9,4.731c-1.25,1.299-2.754,2.3-4.512,3.003    s-3.701,1.055-5.83,1.055c-2.148,0-4.106-0.352-5.874-1.055s-3.281-1.704-4.541-3.003c-1.26-1.299-2.231-2.875-2.915-4.731    c-0.684-1.855-1.025-3.945-1.025-6.27c0-2.285,0.342-4.351,1.025-6.196s1.655-3.417,2.915-4.717    c1.26-1.299,2.773-2.295,4.541-2.988C726.131,409.787,728.089,409.439,730.237,409.439z M730.237,433.756    c2.246,0,3.906-0.786,4.98-2.358c1.074-1.572,1.611-3.892,1.611-6.958c0-3.066-0.537-5.386-1.611-6.958    c-1.074-1.572-2.734-2.358-4.98-2.358c-2.285,0-3.97,0.787-5.054,2.358c-1.084,1.572-1.626,3.892-1.626,6.958    c0,3.066,0.542,5.386,1.626,6.958C726.268,432.97,727.952,433.756,730.237,433.756z"
         id="path254" /><path
         d="M749.954,439v-29.092h4.57c0.469,0,0.864,0.107,1.187,0.322c0.322,0.215,0.532,0.547,0.63,0.996l0.498,2.139    c0.586-0.586,1.191-1.118,1.816-1.597c0.625-0.479,1.299-0.889,2.021-1.23c0.723-0.341,1.489-0.61,2.3-0.806    c0.811-0.195,1.704-0.293,2.681-0.293c1.582,0,2.979,0.274,4.189,0.82c1.211,0.547,2.227,1.309,3.047,2.285    c0.82,0.977,1.44,2.144,1.86,3.501c0.42,1.358,0.63,2.837,0.63,4.438V439h-7.441v-18.516c0-1.66-0.381-2.949-1.143-3.867    c-0.762-0.918-1.904-1.377-3.428-1.377c-1.133,0-2.192,0.245-3.179,0.732c-0.986,0.488-1.919,1.172-2.798,2.051V439H749.954z"
         id="path256" /></g><g
       id="g276"><path
         d="M951.527,400.094v6.123h-15.996V416.5h12.451v5.889h-12.451v10.488h16.025L951.527,439h-23.73v-38.906H951.527z"
         id="path260" /><path
         d="M976.693,439c-0.449,0-0.835-0.112-1.157-0.337c-0.322-0.224-0.532-0.561-0.63-1.011l-0.645-2.607    c-1.152,1.309-2.471,2.369-3.955,3.179s-3.223,1.216-5.215,1.216c-1.543,0-2.959-0.333-4.248-0.996s-2.397-1.63-3.325-2.9    c-0.928-1.27-1.65-2.827-2.168-4.673s-0.776-3.959-0.776-6.343c0-2.168,0.293-4.175,0.879-6.021s1.416-3.447,2.49-4.805    c1.074-1.357,2.368-2.421,3.882-3.193c1.514-0.771,3.198-1.157,5.054-1.157c1.563,0,2.896,0.239,3.999,0.718    c1.104,0.479,2.095,1.138,2.974,1.978V396.9h7.441V439H976.693z M967.699,433.551c0.684,0,1.313-0.073,1.89-0.22    s1.108-0.356,1.597-0.63c0.488-0.273,0.952-0.61,1.392-1.011c0.439-0.4,0.864-0.864,1.274-1.392v-12.832    c-0.742-0.938-1.548-1.586-2.417-1.948c-0.869-0.361-1.802-0.542-2.798-0.542c-0.957,0-1.831,0.19-2.622,0.571    s-1.465,0.962-2.021,1.743c-0.557,0.781-0.986,1.772-1.289,2.974s-0.454,2.622-0.454,4.263c0,1.66,0.127,3.062,0.381,4.204    s0.615,2.07,1.084,2.783c0.469,0.713,1.04,1.23,1.714,1.553S966.859,433.551,967.699,433.551z"
         id="path262" /><path
         d="M995.502,409.908v18.486c0,1.68,0.381,2.979,1.143,3.896c0.762,0.918,1.904,1.377,3.428,1.377    c1.113,0,2.168-0.249,3.164-0.747s1.934-1.176,2.813-2.036v-20.977h7.441V439h-4.57c-0.469,0-0.864-0.112-1.187-0.337    c-0.322-0.224-0.532-0.561-0.63-1.011l-0.527-2.109c-1.152,1.153-2.427,2.09-3.823,2.813s-3.052,1.084-4.966,1.084    c-1.582,0-2.979-0.274-4.189-0.82s-2.227-1.308-3.047-2.285c-0.82-0.977-1.44-2.139-1.86-3.486s-0.63-2.832-0.63-4.453v-18.486    H995.502z"
         id="path264" /><path
         d="M1039.418,416.266c-0.215,0.274-0.43,0.494-0.645,0.659c-0.215,0.166-0.518,0.249-0.908,0.249    c-0.371,0-0.713-0.107-1.025-0.322c-0.313-0.215-0.669-0.454-1.069-0.718s-0.869-0.502-1.406-0.718    c-0.537-0.215-1.216-0.322-2.036-0.322c-1.016,0-1.899,0.215-2.651,0.645c-0.752,0.43-1.372,1.045-1.86,1.846    c-0.488,0.801-0.854,1.777-1.099,2.93c-0.244,1.153-0.366,2.442-0.366,3.867c0,3.028,0.518,5.357,1.553,6.987    c1.035,1.631,2.461,2.446,4.277,2.446c0.957,0,1.719-0.136,2.285-0.41c0.566-0.273,1.045-0.571,1.436-0.894    s0.747-0.62,1.069-0.894c0.322-0.273,0.708-0.41,1.157-0.41c0.566,0,1.006,0.225,1.318,0.674l2.168,2.754    c-0.781,0.938-1.611,1.714-2.49,2.329s-1.782,1.109-2.71,1.479c-0.928,0.371-1.865,0.63-2.813,0.776s-1.88,0.22-2.798,0.22    c-1.641,0-3.188-0.337-4.644-1.011s-2.734-1.655-3.838-2.944s-1.978-2.866-2.622-4.731c-0.645-1.865-0.967-3.989-0.967-6.372    c0-2.128,0.283-4.102,0.85-5.918s1.401-3.394,2.505-4.731c1.104-1.337,2.471-2.388,4.102-3.149s3.521-1.143,5.669-1.143    c2.031,0,3.818,0.356,5.361,1.069c1.543,0.713,2.93,1.743,4.16,3.091L1039.418,416.266z"
         id="path266" /><path
         d="M1064.994,439c-0.703,0-1.24-0.103-1.611-0.308s-0.664-0.62-0.879-1.245l-0.645-1.934    c-0.742,0.645-1.455,1.211-2.139,1.699c-0.684,0.488-1.392,0.898-2.124,1.23c-0.732,0.333-1.514,0.581-2.344,0.747    c-0.83,0.166-1.753,0.249-2.769,0.249c-1.25,0-2.393-0.171-3.428-0.513s-1.929-0.845-2.681-1.509    c-0.752-0.664-1.333-1.489-1.743-2.476c-0.41-0.986-0.615-2.124-0.615-3.413c0-1.074,0.273-2.148,0.82-3.223    c0.547-1.074,1.479-2.046,2.798-2.915c1.318-0.869,3.076-1.592,5.273-2.168c2.197-0.576,4.937-0.903,8.218-0.981v-1.553    c0-1.875-0.391-3.252-1.172-4.131s-1.904-1.318-3.369-1.318c-1.094,0-1.997,0.127-2.71,0.381c-0.713,0.254-1.343,0.532-1.89,0.835    c-0.547,0.303-1.055,0.582-1.523,0.835c-0.469,0.254-0.996,0.381-1.582,0.381c-0.508,0-0.942-0.132-1.304-0.396    s-0.649-0.581-0.864-0.952l-1.348-2.344c1.68-1.563,3.535-2.725,5.566-3.486s4.229-1.143,6.592-1.143    c1.699,0,3.223,0.278,4.57,0.835s2.49,1.338,3.428,2.344c0.938,1.006,1.65,2.202,2.139,3.589c0.488,1.387,0.732,2.911,0.732,4.57    V439H1064.994z M1054.799,434.371c1.328,0,2.476-0.239,3.442-0.718c0.967-0.479,1.929-1.216,2.886-2.212v-4.688    c-1.934,0.078-3.54,0.239-4.819,0.483c-1.279,0.245-2.3,0.557-3.062,0.938s-1.304,0.825-1.626,1.333    c-0.322,0.508-0.483,1.055-0.483,1.641c0,1.172,0.327,2.002,0.981,2.49C1052.772,434.127,1053.666,434.371,1054.799,434.371z"
         id="path268" /><path
         d="M1102.553,410.113V439h-7.441v-23.613h-12.188v15.381c0,0.86,0.181,1.528,0.542,2.007    c0.361,0.479,0.884,0.718,1.567,0.718c0.352,0,0.649-0.044,0.894-0.132s0.454-0.19,0.63-0.308s0.337-0.22,0.483-0.308    s0.308-0.132,0.483-0.132c0.215,0,0.391,0.054,0.527,0.161c0.137,0.107,0.283,0.278,0.439,0.513l2.256,3.604    c-1.016,0.84-2.168,1.475-3.457,1.904s-2.627,0.645-4.014,0.645c-1.25,0-2.358-0.19-3.325-0.571s-1.782-0.923-2.446-1.626    s-1.167-1.557-1.509-2.563c-0.342-1.006-0.513-2.143-0.513-3.413v-15.879h-2.578c-0.391,0-0.728-0.132-1.011-0.396    s-0.425-0.649-0.425-1.157v-2.959l4.395-0.82l1.553-7.705c0.176-0.801,0.723-1.201,1.641-1.201h3.867v8.965H1102.553z     M1103.783,401.471c0,0.645-0.127,1.245-0.381,1.802s-0.596,1.045-1.025,1.465c-0.43,0.42-0.938,0.752-1.523,0.996    c-0.586,0.245-1.201,0.366-1.846,0.366c-0.625,0-1.216-0.122-1.772-0.366c-0.557-0.244-1.045-0.576-1.465-0.996    c-0.42-0.42-0.752-0.908-0.996-1.465s-0.366-1.157-0.366-1.802s0.122-1.25,0.366-1.816c0.244-0.566,0.576-1.059,0.996-1.479    c0.42-0.42,0.908-0.751,1.465-0.996c0.557-0.244,1.147-0.366,1.772-0.366c0.645,0,1.26,0.122,1.846,0.366    c0.586,0.245,1.094,0.576,1.523,0.996c0.43,0.42,0.771,0.913,1.025,1.479C1103.656,400.221,1103.783,400.826,1103.783,401.471z"
         id="path270" /><path
         d="M1122.24,409.439c2.129,0,4.072,0.347,5.83,1.04c1.758,0.693,3.262,1.689,4.512,2.988c1.25,1.299,2.217,2.871,2.9,4.717    s1.025,3.911,1.025,6.196c0,2.325-0.342,4.414-1.025,6.27c-0.684,1.856-1.65,3.433-2.9,4.731c-1.25,1.299-2.754,2.3-4.512,3.003    s-3.701,1.055-5.83,1.055c-2.148,0-4.106-0.352-5.874-1.055s-3.281-1.704-4.541-3.003c-1.26-1.299-2.231-2.875-2.915-4.731    c-0.684-1.855-1.025-3.945-1.025-6.27c0-2.285,0.342-4.351,1.025-6.196s1.655-3.417,2.915-4.717    c1.26-1.299,2.773-2.295,4.541-2.988C1118.134,409.787,1120.092,409.439,1122.24,409.439z M1122.24,433.756    c2.246,0,3.906-0.786,4.98-2.358c1.074-1.572,1.611-3.892,1.611-6.958c0-3.066-0.537-5.386-1.611-6.958    c-1.074-1.572-2.734-2.358-4.98-2.358c-2.285,0-3.97,0.787-5.054,2.358c-1.084,1.572-1.626,3.892-1.626,6.958    c0,3.066,0.542,5.386,1.626,6.958C1118.271,432.97,1119.955,433.756,1122.24,433.756z"
         id="path272" /><path
         d="M1141.957,439v-29.092h4.57c0.469,0,0.864,0.107,1.187,0.322c0.322,0.215,0.532,0.547,0.63,0.996l0.498,2.139    c0.586-0.586,1.191-1.118,1.816-1.597c0.625-0.479,1.299-0.889,2.021-1.23c0.723-0.341,1.489-0.61,2.3-0.806    c0.811-0.195,1.704-0.293,2.681-0.293c1.582,0,2.979,0.274,4.189,0.82c1.211,0.547,2.227,1.309,3.047,2.285    c0.82,0.977,1.44,2.144,1.86,3.501c0.42,1.358,0.63,2.837,0.63,4.438V439h-7.441v-18.516c0-1.66-0.381-2.949-1.143-3.867    c-0.762-0.918-1.904-1.377-3.428-1.377c-1.133,0-2.192,0.245-3.179,0.732c-0.986,0.488-1.919,1.172-2.798,2.051V439H1141.957z"
         id="path274" /></g><g
       id="g292"><path
         d="M89.103,885v-38.906h13.213c2.5,0,4.639,0.244,6.416,0.732c1.777,0.488,3.227,1.182,4.351,2.08    c1.123,0.898,1.943,1.987,2.461,3.267c0.517,1.279,0.776,2.71,0.776,4.292c0,0.898-0.127,1.768-0.381,2.607    c-0.254,0.84-0.645,1.621-1.172,2.344s-1.206,1.382-2.036,1.978c-0.831,0.596-1.821,1.099-2.974,1.509    c5.02,1.211,7.529,4.072,7.529,8.584c0,1.66-0.303,3.193-0.908,4.6c-0.605,1.406-1.49,2.622-2.651,3.647    c-1.162,1.025-2.598,1.826-4.307,2.402c-1.709,0.576-3.667,0.864-5.874,0.864H89.103z M96.808,862.793h5.068    c2.168,0,3.838-0.415,5.01-1.245s1.758-2.202,1.758-4.116c0-1.992-0.508-3.394-1.523-4.204c-1.016-0.811-2.618-1.216-4.805-1.216    h-5.508V862.793z M96.808,868.096v10.928h6.592c1.23,0,2.256-0.156,3.076-0.469s1.469-0.732,1.948-1.26    c0.479-0.527,0.815-1.138,1.011-1.831c0.195-0.693,0.293-1.411,0.293-2.153c0-0.801-0.113-1.523-0.337-2.168    c-0.225-0.645-0.586-1.191-1.084-1.641s-1.153-0.796-1.963-1.04c-0.811-0.244-1.802-0.366-2.974-0.366H96.808z"
         id="path278" /><path
         d="M142.364,885c-0.703,0-1.241-0.103-1.611-0.308c-0.371-0.205-0.664-0.62-0.879-1.245l-0.645-1.934    c-0.743,0.645-1.455,1.211-2.139,1.699c-0.684,0.488-1.392,0.898-2.124,1.23s-1.514,0.581-2.344,0.747    c-0.831,0.166-1.753,0.249-2.769,0.249c-1.25,0-2.393-0.171-3.428-0.513c-1.036-0.342-1.929-0.845-2.681-1.509    c-0.752-0.664-1.333-1.489-1.743-2.476s-0.615-2.124-0.615-3.413c0-1.074,0.273-2.148,0.82-3.223    c0.546-1.074,1.479-2.046,2.798-2.915s3.076-1.592,5.273-2.168s4.937-0.903,8.218-0.981v-1.553c0-1.875-0.391-3.252-1.172-4.131    c-0.781-0.879-1.904-1.318-3.369-1.318c-1.094,0-1.997,0.127-2.71,0.381c-0.713,0.254-1.343,0.532-1.89,0.835    c-0.547,0.303-1.055,0.581-1.523,0.835s-0.996,0.381-1.582,0.381c-0.508,0-0.942-0.132-1.304-0.396    c-0.362-0.264-0.649-0.581-0.864-0.952l-1.348-2.344c1.68-1.563,3.535-2.725,5.566-3.486c2.031-0.762,4.229-1.143,6.592-1.143    c1.699,0,3.223,0.278,4.57,0.835s2.49,1.338,3.428,2.344s1.65,2.202,2.139,3.589c0.488,1.387,0.732,2.91,0.732,4.57V885H142.364z     M132.169,880.371c1.328,0,2.476-0.239,3.442-0.718s1.929-1.216,2.886-2.212v-4.688c-1.934,0.078-3.541,0.239-4.819,0.483    c-1.279,0.244-2.3,0.557-3.062,0.938s-1.304,0.825-1.626,1.333s-0.483,1.055-0.483,1.641c0,1.172,0.327,2.002,0.981,2.49    C130.143,880.127,131.036,880.371,132.169,880.371z"
         id="path280" /><path
         d="M152.501,885v-29.092h4.57c0.469,0,0.864,0.107,1.187,0.322s0.532,0.547,0.63,0.996l0.498,2.139    c0.586-0.586,1.191-1.118,1.816-1.597c0.625-0.479,1.299-0.889,2.021-1.23c0.722-0.342,1.489-0.61,2.3-0.806    c0.81-0.195,1.704-0.293,2.681-0.293c1.582,0,2.978,0.273,4.189,0.82c1.211,0.547,2.227,1.309,3.047,2.285s1.44,2.144,1.86,3.501    c0.42,1.357,0.63,2.837,0.63,4.438V885h-7.441v-18.516c0-1.66-0.381-2.949-1.143-3.867s-1.904-1.377-3.428-1.377    c-1.133,0-2.193,0.244-3.179,0.732c-0.986,0.488-1.919,1.172-2.798,2.051V885H152.501z"
         id="path282" /><path
         d="M191.642,842.9v23.965h1.143c0.469,0,0.825-0.068,1.069-0.205c0.244-0.137,0.493-0.391,0.747-0.762l5.332-8.73    c0.293-0.391,0.63-0.698,1.011-0.923s0.854-0.337,1.421-0.337h6.797l-7.031,10.693c-0.333,0.43-0.679,0.811-1.04,1.143    c-0.362,0.332-0.757,0.635-1.187,0.908c0.391,0.293,0.737,0.63,1.04,1.011c0.303,0.381,0.601,0.796,0.894,1.245L209.483,885h-6.68    c-1.133,0-1.953-0.43-2.461-1.289l-5.332-10.84c-0.234-0.449-0.483-0.742-0.747-0.879s-0.64-0.205-1.128-0.205h-1.494V885H184.2    v-42.1H191.642z"
         id="path284" /><path
         d="M221.876,847.559c0,0.645-0.127,1.245-0.381,1.802c-0.254,0.557-0.596,1.045-1.025,1.465    c-0.43,0.42-0.938,0.752-1.523,0.996s-1.201,0.366-1.846,0.366c-0.625,0-1.216-0.122-1.772-0.366s-1.045-0.576-1.465-0.996    c-0.42-0.42-0.752-0.908-0.996-1.465c-0.245-0.557-0.366-1.157-0.366-1.802s0.122-1.25,0.366-1.816    c0.244-0.566,0.576-1.06,0.996-1.479c0.42-0.42,0.908-0.752,1.465-0.996s1.147-0.366,1.772-0.366c0.645,0,1.26,0.122,1.846,0.366    s1.094,0.576,1.523,0.996c0.429,0.42,0.771,0.913,1.025,1.479C221.749,846.309,221.876,846.914,221.876,847.559z M220.968,855.908    V885h-7.441v-29.092H220.968z"
         id="path286" /><path
         d="M228.233,885v-29.092h4.57c0.469,0,0.864,0.107,1.187,0.322s0.532,0.547,0.63,0.996l0.498,2.139    c0.586-0.586,1.191-1.118,1.816-1.597c0.625-0.479,1.299-0.889,2.021-1.23c0.722-0.342,1.489-0.61,2.3-0.806    c0.81-0.195,1.704-0.293,2.681-0.293c1.582,0,2.978,0.273,4.189,0.82c1.211,0.547,2.227,1.309,3.047,2.285s1.44,2.144,1.86,3.501    c0.42,1.357,0.63,2.837,0.63,4.438V885h-7.441v-18.516c0-1.66-0.381-2.949-1.143-3.867s-1.904-1.377-3.428-1.377    c-1.133,0-2.193,0.244-3.179,0.732c-0.986,0.488-1.919,1.172-2.798,2.051V885H228.233z"
         id="path288" /><path
         d="M270.304,855.41c1.172,0,2.28,0.127,3.325,0.381c1.044,0.254,2.007,0.615,2.886,1.084h8.086v2.783    c0,0.43-0.122,0.771-0.366,1.025c-0.245,0.254-0.649,0.439-1.216,0.557l-2.285,0.469c0.352,0.977,0.527,2.012,0.527,3.105    c0,1.445-0.278,2.749-0.835,3.911s-1.329,2.153-2.314,2.974c-0.986,0.82-2.149,1.45-3.486,1.89    c-1.338,0.439-2.779,0.659-4.321,0.659c-0.469,0-0.928-0.02-1.377-0.059c-0.45-0.039-0.898-0.098-1.348-0.176    c-0.723,0.469-1.084,1.016-1.084,1.641c0,0.566,0.253,0.977,0.762,1.23c0.508,0.254,1.172,0.435,1.992,0.542    s1.758,0.176,2.813,0.205s2.134,0.093,3.237,0.19c1.103,0.098,2.183,0.264,3.237,0.498s1.992,0.615,2.813,1.143    s1.484,1.23,1.992,2.109c0.508,0.879,0.762,2.012,0.762,3.398c0,1.289-0.303,2.544-0.908,3.765    c-0.605,1.221-1.484,2.31-2.637,3.267c-1.153,0.957-2.568,1.724-4.248,2.3c-1.68,0.576-3.594,0.864-5.742,0.864    c-2.109,0-3.945-0.215-5.508-0.645c-1.563-0.43-2.852-0.996-3.867-1.699c-1.016-0.703-1.772-1.519-2.271-2.446    s-0.747-1.89-0.747-2.886c0-1.309,0.371-2.417,1.113-3.325c0.742-0.908,1.768-1.636,3.076-2.183    c-0.684-0.391-1.235-0.928-1.655-1.611c-0.42-0.684-0.63-1.553-0.63-2.607c0-0.43,0.073-0.874,0.22-1.333s0.376-0.918,0.688-1.377    c0.312-0.459,0.693-0.894,1.143-1.304c0.449-0.41,0.986-0.781,1.611-1.113c-1.406-0.801-2.515-1.86-3.325-3.179    c-0.811-1.318-1.216-2.866-1.216-4.644c0-1.445,0.283-2.749,0.85-3.911c0.566-1.162,1.343-2.148,2.329-2.959    c0.986-0.811,2.158-1.436,3.516-1.875C267.252,855.63,268.722,855.41,270.304,855.41z M277.247,886.23    c0-0.527-0.146-0.957-0.439-1.289s-0.693-0.591-1.201-0.776c-0.508-0.186-1.104-0.322-1.787-0.41    c-0.684-0.088-1.411-0.156-2.183-0.205c-0.772-0.049-1.572-0.093-2.402-0.132c-0.831-0.039-1.646-0.107-2.446-0.205    c-0.645,0.41-1.167,0.889-1.567,1.436c-0.4,0.547-0.601,1.182-0.601,1.904c0,0.488,0.103,0.938,0.308,1.348    s0.542,0.762,1.011,1.055s1.094,0.522,1.875,0.688c0.781,0.166,1.748,0.249,2.9,0.249c1.211,0,2.231-0.093,3.062-0.278    c0.83-0.186,1.504-0.439,2.021-0.762c0.517-0.322,0.889-0.708,1.113-1.157C277.134,887.246,277.247,886.758,277.247,886.23z     M270.304,869.473c1.504,0,2.612-0.41,3.325-1.23c0.713-0.82,1.069-1.904,1.069-3.252c0-1.367-0.356-2.446-1.069-3.237    c-0.713-0.791-1.821-1.187-3.325-1.187c-1.484,0-2.583,0.396-3.296,1.187c-0.713,0.791-1.069,1.87-1.069,3.237    c0,1.328,0.356,2.407,1.069,3.237C267.721,869.058,268.819,869.473,270.304,869.473z"
         id="path290" /></g><g
       id="g308"><path
         d="M546.981,874.494V888h-7.705v-38.906h12.51c2.52,0,4.688,0.313,6.504,0.938s3.32,1.489,4.512,2.593s2.07,2.417,2.637,3.94    s0.85,3.193,0.85,5.01c0,1.914-0.298,3.662-0.894,5.244s-1.494,2.939-2.695,4.072s-2.71,2.017-4.526,2.651    s-3.945,0.952-6.387,0.952H546.981z M546.981,868.518h4.805c2.344,0,4.063-0.62,5.156-1.86s1.641-2.935,1.641-5.083    c0-2.012-0.557-3.608-1.67-4.79s-2.822-1.772-5.127-1.772h-4.805V868.518z"
         id="path294" /><path
         d="M583.046,858.439c2.129,0,4.072,0.347,5.83,1.04s3.262,1.689,4.512,2.988s2.217,2.871,2.9,4.717s1.025,3.911,1.025,6.196    c0,2.324-0.342,4.414-1.025,6.27s-1.65,3.433-2.9,4.731s-2.754,2.3-4.512,3.003s-3.701,1.055-5.83,1.055    c-2.148,0-4.106-0.352-5.874-1.055s-3.281-1.704-4.541-3.003s-2.231-2.876-2.915-4.731s-1.025-3.945-1.025-6.27    c0-2.285,0.342-4.351,1.025-6.196s1.655-3.418,2.915-4.717s2.773-2.295,4.541-2.988S580.897,858.439,583.046,858.439z     M583.046,882.756c2.246,0,3.906-0.786,4.98-2.358s1.611-3.892,1.611-6.958s-0.537-5.386-1.611-6.958s-2.734-2.358-4.98-2.358    c-2.285,0-3.97,0.786-5.054,2.358s-1.626,3.892-1.626,6.958s0.542,5.386,1.626,6.958S580.761,882.756,583.046,882.756z"
         id="path296" /><path
         d="M610.233,845.9V888h-7.441v-42.1H610.233z"
         id="path298" /><path
         d="M625.878,850.559c0,0.645-0.127,1.245-0.381,1.802s-0.596,1.045-1.025,1.465s-0.938,0.752-1.523,0.996    s-1.201,0.366-1.846,0.366c-0.625,0-1.216-0.122-1.772-0.366s-1.045-0.576-1.465-0.996s-0.752-0.908-0.996-1.465    s-0.366-1.157-0.366-1.802s0.122-1.25,0.366-1.816s0.576-1.06,0.996-1.479s0.908-0.752,1.465-0.996s1.147-0.366,1.772-0.366    c0.645,0,1.26,0.122,1.846,0.366s1.094,0.576,1.523,0.996s0.771,0.913,1.025,1.479S625.878,849.914,625.878,850.559z     M624.97,858.908V888h-7.441v-29.092H624.97z"
         id="path300" /><path
         d="M660.214,859.113V888h-7.441v-23.613h-12.188v15.381c0,0.859,0.181,1.528,0.542,2.007s0.884,0.718,1.567,0.718    c0.352,0,0.649-0.044,0.894-0.132s0.454-0.19,0.63-0.308s0.337-0.22,0.483-0.308s0.308-0.132,0.483-0.132    c0.215,0,0.391,0.054,0.527,0.161s0.283,0.278,0.439,0.513l2.256,3.604c-1.016,0.84-2.168,1.475-3.457,1.904    s-2.627,0.645-4.014,0.645c-1.25,0-2.358-0.19-3.325-0.571s-1.782-0.923-2.446-1.626s-1.167-1.558-1.509-2.563    s-0.513-2.144-0.513-3.413v-15.879h-2.578c-0.391,0-0.728-0.132-1.011-0.396s-0.425-0.649-0.425-1.157v-2.959l4.395-0.82    l1.553-7.705c0.176-0.801,0.723-1.201,1.641-1.201h3.867v8.965H660.214z M661.444,850.471c0,0.645-0.127,1.245-0.381,1.802    s-0.596,1.045-1.025,1.465s-0.938,0.752-1.523,0.996s-1.201,0.366-1.846,0.366c-0.625,0-1.216-0.122-1.772-0.366    s-1.045-0.576-1.465-0.996s-0.752-0.908-0.996-1.465s-0.366-1.157-0.366-1.802s0.122-1.25,0.366-1.816s0.576-1.06,0.996-1.479    s0.908-0.752,1.465-0.996s1.147-0.366,1.772-0.366c0.645,0,1.26,0.122,1.846,0.366s1.094,0.576,1.523,0.996    s0.771,0.913,1.025,1.479S661.444,849.826,661.444,850.471z"
         id="path302" /><path
         d="M686.024,865.266c-0.215,0.273-0.43,0.493-0.645,0.659s-0.518,0.249-0.908,0.249c-0.371,0-0.713-0.107-1.025-0.322    s-0.669-0.454-1.069-0.718s-0.869-0.503-1.406-0.718s-1.216-0.322-2.036-0.322c-1.016,0-1.899,0.215-2.651,0.645    s-1.372,1.045-1.86,1.846s-0.854,1.777-1.099,2.93s-0.366,2.441-0.366,3.867c0,3.027,0.518,5.356,1.553,6.987    s2.461,2.446,4.277,2.446c0.957,0,1.719-0.137,2.285-0.41s1.045-0.571,1.436-0.894s0.747-0.62,1.069-0.894s0.708-0.41,1.157-0.41    c0.566,0,1.006,0.225,1.318,0.674l2.168,2.754c-0.781,0.938-1.611,1.714-2.49,2.329s-1.782,1.108-2.71,1.479    s-1.865,0.63-2.813,0.776s-1.88,0.22-2.798,0.22c-1.641,0-3.188-0.337-4.644-1.011s-2.734-1.655-3.838-2.944    s-1.978-2.866-2.622-4.731s-0.967-3.989-0.967-6.372c0-2.129,0.283-4.102,0.85-5.918s1.401-3.394,2.505-4.731    s2.471-2.388,4.102-3.149s3.521-1.143,5.669-1.143c2.031,0,3.818,0.356,5.361,1.069s2.93,1.743,4.16,3.091L686.024,865.266z"
         id="path304" /><path
         d="M709.345,864.768c-0.195,0.332-0.405,0.562-0.63,0.688s-0.503,0.19-0.835,0.19c-0.352,0-0.718-0.093-1.099-0.278    s-0.801-0.391-1.26-0.615s-0.981-0.43-1.567-0.615s-1.26-0.278-2.021-0.278c-1.172,0-2.08,0.269-2.725,0.806    s-0.967,1.255-0.967,2.153c0,0.605,0.186,1.108,0.557,1.509s0.864,0.752,1.479,1.055s1.309,0.581,2.08,0.835    s1.567,0.527,2.388,0.82s1.616,0.64,2.388,1.04s1.465,0.894,2.08,1.479s1.108,1.299,1.479,2.139s0.557,1.846,0.557,3.018    c0,1.406-0.244,2.705-0.732,3.896s-1.206,2.217-2.153,3.076s-2.119,1.533-3.516,2.021s-3.013,0.732-4.849,0.732    c-0.938,0-1.865-0.088-2.783-0.264s-1.797-0.425-2.637-0.747s-1.626-0.698-2.358-1.128s-1.362-0.898-1.89-1.406l1.729-2.813    c0.215-0.332,0.469-0.596,0.762-0.791s0.674-0.293,1.143-0.293c0.43,0,0.835,0.117,1.216,0.352s0.796,0.493,1.245,0.776    s0.986,0.542,1.611,0.776s1.406,0.352,2.344,0.352c0.703,0,1.304-0.088,1.802-0.264s0.898-0.415,1.201-0.718    s0.527-0.649,0.674-1.04s0.22-0.791,0.22-1.201c0-0.859-0.322-1.528-0.967-2.007s-1.455-0.894-2.432-1.245    s-2.026-0.713-3.149-1.084s-2.173-0.879-3.149-1.523s-1.787-1.494-2.432-2.549s-0.967-2.451-0.967-4.189    c0-1.211,0.225-2.358,0.674-3.442s1.118-2.036,2.007-2.856s1.992-1.475,3.311-1.963s2.856-0.732,4.614-0.732    c0.957,0,1.885,0.088,2.783,0.264s1.743,0.425,2.534,0.747s1.514,0.708,2.168,1.157s1.235,0.938,1.743,1.465L709.345,864.768z"
         id="path306" /></g><g
       id="g322"><path
         d="M988.405,872.227c0.273-0.684,0.547-1.353,0.82-2.007s0.576-1.284,0.908-1.89l11.982-21.035    c0.156-0.293,0.317-0.522,0.483-0.688s0.347-0.283,0.542-0.352s0.42-0.112,0.674-0.132s0.547-0.029,0.879-0.029h5.801V885h-6.768    v-24.346c0-0.527,0.015-1.099,0.044-1.714s0.073-1.245,0.132-1.89l-12.275,21.738c-0.605,1.133-1.494,1.699-2.666,1.699h-1.084    c-1.191,0-2.09-0.566-2.695-1.699l-12.422-21.855c0.078,0.664,0.137,1.313,0.176,1.948s0.059,1.226,0.059,1.772V885h-6.797    v-38.906h5.83c0.332,0,0.62,0.01,0.864,0.029s0.469,0.068,0.674,0.146s0.391,0.195,0.557,0.352s0.327,0.381,0.483,0.674    l12.07,21.094C987.341,869.619,987.917,870.898,988.405,872.227z"
         id="path310" /><path
         d="M1026.579,847.559c0,0.645-0.127,1.245-0.381,1.802s-0.596,1.045-1.025,1.465s-0.938,0.752-1.523,0.996    s-1.201,0.366-1.846,0.366c-0.625,0-1.216-0.122-1.772-0.366s-1.045-0.576-1.465-0.996s-0.752-0.908-0.996-1.465    s-0.366-1.157-0.366-1.802s0.122-1.25,0.366-1.816s0.576-1.06,0.996-1.479s0.908-0.752,1.465-0.996s1.147-0.366,1.772-0.366    c0.645,0,1.26,0.122,1.846,0.366s1.094,0.576,1.523,0.996s0.771,0.913,1.025,1.479S1026.579,846.914,1026.579,847.559z     M1025.671,855.908V885h-7.441v-29.092H1025.671z"
         id="path312" /><path
         d="M1032.937,885v-29.092h4.57c0.469,0,0.864,0.107,1.187,0.322s0.532,0.547,0.63,0.996l0.498,2.139    c0.586-0.586,1.191-1.118,1.816-1.597s1.299-0.889,2.021-1.23s1.489-0.61,2.3-0.806s1.704-0.293,2.681-0.293    c1.582,0,2.979,0.273,4.189,0.82s2.227,1.309,3.047,2.285s1.44,2.144,1.86,3.501s0.63,2.837,0.63,4.438V885h-7.441v-18.516    c0-1.66-0.381-2.949-1.143-3.867s-1.904-1.377-3.428-1.377c-1.133,0-2.192,0.244-3.179,0.732s-1.919,1.172-2.798,2.051V885    H1032.937z"
         id="path314" /><path
         d="M1073.513,847.559c0,0.645-0.127,1.245-0.381,1.802s-0.596,1.045-1.025,1.465s-0.938,0.752-1.523,0.996    s-1.201,0.366-1.846,0.366c-0.625,0-1.216-0.122-1.772-0.366s-1.045-0.576-1.465-0.996s-0.752-0.908-0.996-1.465    s-0.366-1.157-0.366-1.802s0.122-1.25,0.366-1.816s0.576-1.06,0.996-1.479s0.908-0.752,1.465-0.996s1.147-0.366,1.772-0.366    c0.645,0,1.26,0.122,1.846,0.366s1.094,0.576,1.523,0.996s0.771,0.913,1.025,1.479S1073.513,846.914,1073.513,847.559z     M1072.604,855.908V885h-7.441v-29.092H1072.604z"
         id="path316" /><path
         d="M1079.87,885v-29.092h4.57c0.469,0,0.864,0.107,1.187,0.322s0.532,0.547,0.63,0.996l0.498,2.139    c0.586-0.586,1.191-1.118,1.816-1.597s1.299-0.889,2.021-1.23s1.489-0.61,2.3-0.806s1.704-0.293,2.681-0.293    c1.582,0,2.979,0.273,4.189,0.82s2.227,1.309,3.047,2.285s1.44,2.144,1.86,3.501s0.63,2.837,0.63,4.438V885h-7.441v-18.516    c0-1.66-0.381-2.949-1.143-3.867s-1.904-1.377-3.428-1.377c-1.133,0-2.192,0.244-3.179,0.732s-1.919,1.172-2.798,2.051V885    H1079.87z"
         id="path318" /><path
         d="M1121.94,855.41c1.172,0,2.28,0.127,3.325,0.381s2.007,0.615,2.886,1.084h8.086v2.783c0,0.43-0.122,0.771-0.366,1.025    s-0.649,0.439-1.216,0.557l-2.285,0.469c0.352,0.977,0.527,2.012,0.527,3.105c0,1.445-0.278,2.749-0.835,3.911    s-1.328,2.153-2.314,2.974s-2.148,1.45-3.486,1.89s-2.778,0.659-4.321,0.659c-0.469,0-0.928-0.02-1.377-0.059    s-0.898-0.098-1.348-0.176c-0.723,0.469-1.084,1.016-1.084,1.641c0,0.566,0.254,0.977,0.762,1.23s1.172,0.435,1.992,0.542    s1.758,0.176,2.813,0.205s2.134,0.093,3.237,0.19s2.183,0.264,3.237,0.498s1.992,0.615,2.813,1.143s1.484,1.23,1.992,2.109    s0.762,2.012,0.762,3.398c0,1.289-0.303,2.544-0.908,3.765s-1.484,2.31-2.637,3.267s-2.568,1.724-4.248,2.3    s-3.594,0.864-5.742,0.864c-2.109,0-3.945-0.215-5.508-0.645s-2.852-0.996-3.867-1.699s-1.772-1.519-2.271-2.446    s-0.747-1.89-0.747-2.886c0-1.309,0.371-2.417,1.113-3.325s1.768-1.636,3.076-2.183c-0.684-0.391-1.235-0.928-1.655-1.611    s-0.63-1.553-0.63-2.607c0-0.43,0.073-0.874,0.22-1.333s0.376-0.918,0.688-1.377s0.693-0.894,1.143-1.304s0.986-0.781,1.611-1.113    c-1.406-0.801-2.515-1.86-3.325-3.179s-1.216-2.866-1.216-4.644c0-1.445,0.283-2.749,0.85-3.911s1.343-2.148,2.329-2.959    s2.158-1.436,3.516-1.875S1120.358,855.41,1121.94,855.41z M1128.884,886.23c0-0.527-0.146-0.957-0.439-1.289    s-0.693-0.591-1.201-0.776s-1.104-0.322-1.787-0.41s-1.411-0.156-2.183-0.205s-1.572-0.093-2.402-0.132s-1.646-0.107-2.446-0.205    c-0.645,0.41-1.167,0.889-1.567,1.436s-0.601,1.182-0.601,1.904c0,0.488,0.103,0.938,0.308,1.348s0.542,0.762,1.011,1.055    s1.094,0.522,1.875,0.688s1.748,0.249,2.9,0.249c1.211,0,2.231-0.093,3.062-0.278s1.504-0.439,2.021-0.762    s0.889-0.708,1.113-1.157S1128.884,886.758,1128.884,886.23z M1121.94,869.473c1.504,0,2.612-0.41,3.325-1.23    s1.069-1.904,1.069-3.252c0-1.367-0.356-2.446-1.069-3.237s-1.821-1.187-3.325-1.187c-1.484,0-2.583,0.396-3.296,1.187    s-1.069,1.87-1.069,3.237c0,1.328,0.356,2.407,1.069,3.237S1120.456,869.473,1121.94,869.473z"
         id="path320" /></g></g></svg>