<?xml version="1.0" encoding="UTF-8" standalone="no"?>
<!-- Created with Inkscape (http://www.inkscape.org/) -->
<svg xmlns:rdf="http://www.w3.org/1999/02/22-rdf-syntax-ns#" xmlns="http://www.w3.org/2000/svg" xmlns:cc="http://web.resource.org/cc/" xmlns:dc="http://purl.org/dc/elements/1.1/" xmlns:svg="http://www.w3.org/2000/svg" xmlns:inkscape="http://www.inkscape.org/namespaces/inkscape" xmlns:sodipodi="http://sodipodi.sourceforge.net/DTD/sodipodi-0.dtd" xmlns:ns1="http://sozi.baierouge.fr" xmlns:xlink="http://www.w3.org/1999/xlink" id="svg2" style="enable-background:new" viewBox="0 0 744.09 1052.4" version="1.0" inkscape:version="0.91 r13725">
  <g id="layer9">
    <path id="path3373" style="fill-rule:evenodd;fill:#000000" d="m37.564 962.78c2.05-153.33 3.282-306.67 2.052-460-0.91-151.26-4.109-302.52-12.074-453.55 233.13-5.217 466.66-6.497 698.48-30.389 0.00003-0.000003 0.00005-0.000006 0.00008-0.000009-11.223 170.94-13.796 342.39-12.542 513.75v0.00016c0.55397 166.97 4.8505 333.91 8.2659 500.88-106.59-9.7692-213.46-16.478-320.42-21.15-105.62-4.9389-211.33-7.8473-317.05-8.6945l0.13642-17.025c105.95 0.84895 211.88 3.7634 317.71 8.7125 104.07 7.5695 208.11 17.187 311.92 29.874-6.5198-164.02-13.923-328.17-17.585-492.5 1.8616-168.6 7.5702-337.45 21.949-505.95-0.00005 0.000005-0.0001 0.000011-0.00016 0.000016-227.03 24.007-455.12 25.338-682.17 30.557 10.755 148.39 16.732 296.92 20.411 445.37 1.2306 153.51-0.0016 306.97-2.0525 460.36zm-13.32-0.18c2.048-153.28 3.28-306.53 2.05-459.71 1.257-153.47 0.232-306.87-5.552-459.95 237.89-5.222 475.68-6.462 711.24-30.274l0.00009-0.000009c-8.7545 172.85-8.8739 346.33-5.1814 519.86v0.00016c-1.878 169.03-0.012 338.16 0.9742 507.43-108.76-7.4857-217.85-11.919-327.07-14.324-105.44-4.9309-210.98-7.8346-316.54-8.6804l0.07042-8.788c105.67 0.8467 211.32 3.7535 316.88 8.6896 107.73 3.9004 215.36 9.8351 322.69 18.827-2.5887-167.75-6.0582-335.43-5.7845-503.11-2.0841-172.1-0.34613-344.24 10.037-515.83-0.00006 0.000005-0.00011 0.000011-0.00017 0.000016-233.1 23.824-468.08 25.091-702.83 30.311 7.2231 151.72 9.6823 303.71 9.8546 455.73 1.2297 153.28-0.0021 306.58-2.0512 459.9z"/>
  </g>
  <metadata>
    <rdf:RDF>
      <cc:Work>
        <dc:format>image/svg+xml</dc:format>
        <dc:type rdf:resource="http://purl.org/dc/dcmitype/StillImage"/>
        <cc:license rdf:resource="http://creativecommons.org/licenses/publicdomain/"/>
        <dc:publisher>
          <cc:Agent rdf:about="http://openclipart.org/">
            <dc:title>Openclipart</dc:title>
          </cc:Agent>
        </dc:publisher>
        <dc:title>Frame</dc:title>
        <dc:date>2009-03-10T20:16:12</dc:date>
        <dc:description/>
        <dc:source>https://openclipart.org/detail/22105/frame-by-steren</dc:source>
        <dc:creator>
          <cc:Agent>
            <dc:title>Steren</dc:title>
          </cc:Agent>
        </dc:creator>
        <dc:subject>
          <rdf:Bag>
            <rdf:li>frame</rdf:li>
          </rdf:Bag>
        </dc:subject>
      </cc:Work>
      <cc:License rdf:about="http://creativecommons.org/licenses/publicdomain/">
        <cc:permits rdf:resource="http://creativecommons.org/ns#Reproduction"/>
        <cc:permits rdf:resource="http://creativecommons.org/ns#Distribution"/>
        <cc:permits rdf:resource="http://creativecommons.org/ns#DerivativeWorks"/>
      </cc:License>
    </rdf:RDF>
  </metadata>
</svg>
