<?xml version="1.0" encoding="UTF-8" standalone="no"?>
<!-- Created with Inkscape (http://www.inkscape.org/) -->

<svg
   xmlns:dc="http://purl.org/dc/elements/1.1/"
   xmlns:cc="http://creativecommons.org/ns#"
   xmlns:rdf="http://www.w3.org/1999/02/22-rdf-syntax-ns#"
   xmlns:svg="http://www.w3.org/2000/svg"
   xmlns="http://www.w3.org/2000/svg"
   xmlns:sodipodi="http://sodipodi.sourceforge.net/DTD/sodipodi-0.dtd"
   xmlns:inkscape="http://www.inkscape.org/namespaces/inkscape"
   width="210mm"
   height="297mm"
   viewBox="0 0 744.09448819 1052.3622047"
   id="svg2"
   version="1.1"
   inkscape:version="0.91 r13725"
   sodipodi:docname="Zeichnung-7-svg-norm.svg"
   inkscape:export-filename="D:\Bilder\04_SVG\Zeichnung-7.png"
   inkscape:export-xdpi="300"
   inkscape:export-ydpi="300">
  <title
     id="title7567">Wasserglass</title>
  <defs
     id="defs4" />
  <sodipodi:namedview
     id="base"
     pagecolor="#ffffff"
     bordercolor="#666666"
     borderopacity="1.0"
     inkscape:pageopacity="0.0"
     inkscape:pageshadow="2"
     inkscape:zoom="0.35355339"
     inkscape:cx="178.97555"
     inkscape:cy="89.821738"
     inkscape:document-units="px"
     inkscape:current-layer="g7549"
     showgrid="false"
     inkscape:window-width="2560"
     inkscape:window-height="1377"
     inkscape:window-x="1912"
     inkscape:window-y="-8"
     inkscape:window-maximized="1" />
  <metadata
     id="metadata7">
    <rdf:RDF>
      <cc:Work
         rdf:about="">
        <dc:format>image/svg+xml</dc:format>
        <dc:type
           rdf:resource="http://purl.org/dc/dcmitype/StillImage" />
        <dc:title>Wasserglass</dc:title>
        <dc:date>01.06.2016</dc:date>
        <dc:creator>
          <cc:Agent>
            <dc:title>Thomas Cigolla</dc:title>
          </cc:Agent>
        </dc:creator>
        <dc:rights>
          <cc:Agent>
            <dc:title />
          </cc:Agent>
        </dc:rights>
        <dc:publisher>
          <cc:Agent>
            <dc:title>Thomas Cigoola</dc:title>
          </cc:Agent>
        </dc:publisher>
        <dc:language>deutsch</dc:language>
        <dc:subject>
          <rdf:Bag>
            <rdf:li>Wasser Glas tumbler</rdf:li>
          </rdf:Bag>
        </dc:subject>
        <cc:license
           rdf:resource="http://creativecommons.org/licenses/by/3.0/" />
      </cc:Work>
      <cc:License
         rdf:about="http://creativecommons.org/licenses/by/3.0/">
        <cc:permits
           rdf:resource="http://creativecommons.org/ns#Reproduction" />
        <cc:permits
           rdf:resource="http://creativecommons.org/ns#Distribution" />
        <cc:requires
           rdf:resource="http://creativecommons.org/ns#Notice" />
        <cc:requires
           rdf:resource="http://creativecommons.org/ns#Attribution" />
        <cc:permits
           rdf:resource="http://creativecommons.org/ns#DerivativeWorks" />
      </cc:License>
    </rdf:RDF>
  </metadata>
  <g
     inkscape:label="Ebene 1"
     inkscape:groupmode="layer"
     id="layer1">
    <g
       id="g7520"
       transform="matrix(0.3644844,0,0,0.3644844,760.97496,737.19578)">
      <g
         id="g7529">
        <g
           id="g7515"
           transform="matrix(0.72493239,0,0,0.79460681,-346.81056,-48.651442)">
          <g
             id="g7541">
            <g
               id="g7549">
              <g
                 id="g7562"
                 transform="translate(-17.485475,-170.55647)">
                <path
                   sodipodi:nodetypes="zscscsccszcz"
                   inkscape:connector-curvature="0"
                   d="m -1250.1254,724.53961 c 204.0035,37.76628 520.82793,30.11531 603.40696,-31.50008 149.13167,-111.27285 184.00725,-983.37087 374.80011,-1394.00847 -771.15947,263.8993 -1388.83417,144.2244 -1332.78097,43.887 38.6336,-69.1556 364.3662,-184.4921 1275.81039,-91.4599 0,0 -282.53352,-7.7874 -589.6513,-10.6788 -355.10179,-3.3432 -615.64509,36.1453 -631.37349,113.7145 -2.7275,96.0181 874.25453,77.797 1278.51224,-56.8633 -71.3105,273.7214 -146.36596,1098.47406 -298.11924,1443.72435 -50.25077,114.3243 -526.6872,14.34973 -745.33,38.52221 -218.6428,24.17247 -202.3385,-1018.83736 -310.5593,-1294.21566 232.6308,500.141416 171.281,1201.11187 375.2846,1238.87815 z"
                   style="fill:#000000;fill-rule:evenodd;stroke:#000000;stroke-width:1.31757426px;stroke-linecap:butt;stroke-linejoin:miter;stroke-opacity:1"
                   id="path7501" />
                <g
                   id="g7552"
                   transform="translate(2156.9674,310.0684)">
                  <g
                     id="g7530">
                    <path
                       style="opacity:1;fill:#000000;fill-opacity:1;fill-rule:evenodd;stroke:#000000;stroke-width:1;stroke-linecap:butt;stroke-linejoin:miter;stroke-miterlimit:4;stroke-dasharray:none;stroke-opacity:1"
                       d="m -236.52734,339.24414 a 25.632622,27.753941 0 0 0 -25.63282,27.75391 25.632622,27.753941 0 0 0 25.63282,27.7539 25.632622,27.753941 0 0 0 25.63281,-27.7539 25.632622,27.753941 0 0 0 -25.63281,-27.75391 z m -1.76758,6.79102 a 20.955258,21.759916 0 0 1 20.95508,21.75976 20.955258,21.759916 0 0 1 -20.95508,21.75977 20.955258,21.759916 0 0 1 -20.95508,-21.75977 20.955258,21.759916 0 0 1 20.95508,-21.75976 z"
                       transform="matrix(3.7846311,0,0,3.4527789,-2384.12,-2313.5905)"
                       id="path7518"
                       inkscape:connector-curvature="0" />
                    <path
                       id="path7523"
                       d="m -3085.88,-1291.9581 a 67.450727,77.572693 73.794131 0 0 -106.3992,-12.4427 67.450727,77.572693 73.794131 0 0 -22.0369,95.7764 67.450727,77.572693 73.794131 0 0 106.399,12.4428 67.450727,77.572693 73.794131 0 0 22.0371,-95.7765 z m -18.622,6.4641 a 54.810453,61.187771 80.583827 0 1 -15.8652,76.903 54.810453,61.187771 80.583827 0 1 -84.832,-11.5673 54.810453,61.187771 80.583827 0 1 15.8651,-76.903 54.810453,61.187771 80.583827 0 1 84.8321,11.5673 z"
                       style="opacity:1;fill:#000000;fill-opacity:1;fill-rule:evenodd;stroke:#000000;stroke-width:2.71199512;stroke-linecap:butt;stroke-linejoin:miter;stroke-miterlimit:4;stroke-dasharray:none;stroke-opacity:1"
                       inkscape:connector-curvature="0" />
                    <path
                       inkscape:connector-curvature="0"
                       style="opacity:1;fill:#000000;fill-opacity:1;fill-rule:evenodd;stroke:#000000;stroke-width:2.22223973;stroke-linecap:butt;stroke-linejoin:miter;stroke-miterlimit:4;stroke-dasharray:none;stroke-opacity:1"
                       d="m -3015.2528,-1120.4805 a 55.269899,63.563953 73.794131 0 0 -87.1847,-10.1958 55.269899,63.563953 73.794131 0 0 -18.0573,78.4803 55.269899,63.563953 73.794131 0 0 87.1846,10.1958 55.269899,63.563953 73.794131 0 0 18.0574,-78.4803 z m -15.2591,5.2967 a 44.912314,50.13796 80.583827 0 1 -13,63.0152 44.912314,50.13796 80.583827 0 1 -69.5124,-9.4784 44.912314,50.13796 80.583827 0 1 13,-63.0151 44.912314,50.13796 80.583827 0 1 69.5124,9.4783 z"
                       id="path7525" />
                    <path
                       id="path7527"
                       d="m -3371.344,-1484.2709 a 91.929101,81.204522 19.874578 0 0 7.8328,116.6751 91.929101,81.204522 19.874578 0 0 128.1072,2.1331 91.929101,81.204522 19.874578 0 0 -7.8328,-116.6752 91.929101,81.204522 19.874578 0 0 -128.1072,-2.133 z m 12.4844,18.4847 a 72.74469,65.775548 10.958532 0 1 102.4529,-0.2453 72.74469,65.775548 10.958532 0 1 4.1275,93.3939 72.74469,65.775548 10.958532 0 1 -102.4529,0.2452 72.74469,65.775548 10.958532 0 1 -4.1275,-93.3938 z"
                       style="opacity:1;fill:#000000;fill-opacity:1;fill-rule:evenodd;stroke:#000000;stroke-width:3.23934913;stroke-linecap:butt;stroke-linejoin:miter;stroke-miterlimit:4;stroke-dasharray:none;stroke-opacity:1"
                       inkscape:connector-curvature="0" />
                  </g>
                  <g
                     transform="matrix(-1,0,0,1,-6335.2999,-612.81233)"
                     id="g7536">
                    <path
                       inkscape:connector-curvature="0"
                       id="path7538"
                       transform="matrix(3.7846311,0,0,3.4527789,-2384.12,-2313.5905)"
                       d="m -236.52734,339.24414 a 25.632622,27.753941 0 0 0 -25.63282,27.75391 25.632622,27.753941 0 0 0 25.63282,27.7539 25.632622,27.753941 0 0 0 25.63281,-27.7539 25.632622,27.753941 0 0 0 -25.63281,-27.75391 z m -1.76758,6.79102 a 20.955258,21.759916 0 0 1 20.95508,21.75976 20.955258,21.759916 0 0 1 -20.95508,21.75977 20.955258,21.759916 0 0 1 -20.95508,-21.75977 20.955258,21.759916 0 0 1 20.95508,-21.75976 z"
                       style="opacity:1;fill:#000000;fill-opacity:1;fill-rule:evenodd;stroke:#000000;stroke-width:1;stroke-linecap:butt;stroke-linejoin:miter;stroke-miterlimit:4;stroke-dasharray:none;stroke-opacity:1" />
                    <path
                       inkscape:connector-curvature="0"
                       style="opacity:1;fill:#000000;fill-opacity:1;fill-rule:evenodd;stroke:#000000;stroke-width:2.71199512;stroke-linecap:butt;stroke-linejoin:miter;stroke-miterlimit:4;stroke-dasharray:none;stroke-opacity:1"
                       d="m -3085.88,-1291.9581 a 67.450727,77.572693 73.794131 0 0 -106.3992,-12.4427 67.450727,77.572693 73.794131 0 0 -22.0369,95.7764 67.450727,77.572693 73.794131 0 0 106.399,12.4428 67.450727,77.572693 73.794131 0 0 22.0371,-95.7765 z m -18.622,6.4641 a 54.810453,61.187771 80.583827 0 1 -15.8652,76.903 54.810453,61.187771 80.583827 0 1 -84.832,-11.5673 54.810453,61.187771 80.583827 0 1 15.8651,-76.903 54.810453,61.187771 80.583827 0 1 84.8321,11.5673 z"
                       id="path7540" />
                    <path
                       id="path7542"
                       d="m -3015.2528,-1120.4805 a 55.269899,63.563953 73.794131 0 0 -87.1847,-10.1958 55.269899,63.563953 73.794131 0 0 -18.0573,78.4803 55.269899,63.563953 73.794131 0 0 87.1846,10.1958 55.269899,63.563953 73.794131 0 0 18.0574,-78.4803 z m -15.2591,5.2967 a 44.912314,50.13796 80.583827 0 1 -13,63.0152 44.912314,50.13796 80.583827 0 1 -69.5124,-9.4784 44.912314,50.13796 80.583827 0 1 13,-63.0151 44.912314,50.13796 80.583827 0 1 69.5124,9.4783 z"
                       style="opacity:1;fill:#000000;fill-opacity:1;fill-rule:evenodd;stroke:#000000;stroke-width:2.22223973;stroke-linecap:butt;stroke-linejoin:miter;stroke-miterlimit:4;stroke-dasharray:none;stroke-opacity:1"
                       inkscape:connector-curvature="0" />
                    <path
                       inkscape:connector-curvature="0"
                       style="opacity:1;fill:#000000;fill-opacity:1;fill-rule:evenodd;stroke:#000000;stroke-width:3.23934913;stroke-linecap:butt;stroke-linejoin:miter;stroke-miterlimit:4;stroke-dasharray:none;stroke-opacity:1"
                       d="m -3111.7586,-1520.8932 a 91.929101,81.204522 19.874578 0 0 7.8328,116.6751 91.929101,81.204522 19.874578 0 0 128.1072,2.1331 91.929101,81.204522 19.874578 0 0 -7.8328,-116.6752 91.929101,81.204522 19.874578 0 0 -128.1072,-2.133 z m 12.4844,18.4847 a 72.74469,65.775548 10.958532 0 1 102.4529,-0.2453 72.74469,65.775548 10.958532 0 1 4.1275,93.3939 72.74469,65.775548 10.958532 0 1 -102.4529,0.2452 72.74469,65.775548 10.958532 0 1 -4.1275,-93.3938 z"
                       id="path7544" />
                    <path
                       inkscape:connector-curvature="0"
                       style="opacity:1;fill:#000000;fill-opacity:1;fill-rule:evenodd;stroke:#000000;stroke-width:2.22223973;stroke-linecap:butt;stroke-linejoin:miter;stroke-miterlimit:4;stroke-dasharray:none;stroke-opacity:1"
                       d="m -3226.6677,-839.70991 a 55.269899,63.563953 73.794131 0 0 -87.1847,-10.1958 55.269899,63.563953 73.794131 0 0 -18.0573,78.4803 55.269899,63.563953 73.794131 0 0 87.1846,10.1958 55.269899,63.563953 73.794131 0 0 18.0574,-78.4803 z m -15.2591,5.2967 a 44.912314,50.13796 80.583827 0 1 -13,63.0152 44.912314,50.13796 80.583827 0 1 -69.5124,-9.4784 44.912314,50.13796 80.583827 0 1 13,-63.0151 44.912314,50.13796 80.583827 0 1 69.5124,9.4783 z"
                       id="path7546" />
                    <path
                       inkscape:connector-curvature="0"
                       style="opacity:1;fill:#000000;fill-opacity:1;fill-rule:evenodd;stroke:#000000;stroke-width:2.22223973;stroke-linecap:butt;stroke-linejoin:miter;stroke-miterlimit:4;stroke-dasharray:none;stroke-opacity:1"
                       d="m -2910.8834,-659.04014 a 55.269899,63.563953 73.794131 0 0 -87.1847,-10.1958 55.269899,63.563953 73.794131 0 0 -18.0573,78.4803 55.269899,63.563953 73.794131 0 0 87.1846,10.1958 55.269899,63.563953 73.794131 0 0 18.0574,-78.4803 z m -15.2591,5.2967 a 44.912314,50.13796 80.583827 0 1 -13,63.0152 44.912314,50.13796 80.583827 0 1 -69.5124,-9.4784 44.912314,50.13796 80.583827 0 1 13,-63.0151 44.912314,50.13796 80.583827 0 1 69.5124,9.4783 z"
                       id="path7548" />
                    <path
                       id="path7550"
                       d="m -3125.2494,-995.25584 a 58.256244,60.305523 60.652961 0 0 -70.766,47.56512 58.256244,60.305523 60.652961 0 0 46.358,68.13101 58.256244,60.305523 60.652961 0 0 70.766,-47.56506 58.256244,60.305523 60.652961 0 0 -46.358,-68.13107 z m -7.0245,13.44556 a 46.08575,48.861346 83.08415 0 1 38.3069,53.76075 46.08575,48.861346 83.08415 0 1 -57.4433,36.94797 46.08575,48.861346 83.08415 0 1 -38.3068,-53.76067 46.08575,48.861346 83.08415 0 1 57.4432,-36.94805 z"
                       style="opacity:1;fill:#000000;fill-opacity:1;fill-rule:evenodd;stroke:#000000;stroke-width:2.22223973;stroke-linecap:butt;stroke-linejoin:miter;stroke-miterlimit:4;stroke-dasharray:none;stroke-opacity:1"
                       inkscape:connector-curvature="0" />
                  </g>
                </g>
              </g>
            </g>
          </g>
        </g>
      </g>
    </g>
  </g>
</svg>
